<svg xmlns="http://www.w3.org/2000/svg" xmlns:xlink="http://www.w3.org/1999/xlink" width="128.3" height="128.3" viewBox="0 0 128.3 128.3"><defs><linearGradient id="a" x1="0.5" y1="1" x2="0.5" gradientUnits="objectBoundingBox"><stop offset="0" stop-color="gray" stop-opacity="0.251"/><stop offset="0.54" stop-color="gray" stop-opacity="0.122"/><stop offset="1" stop-color="gray" stop-opacity="0.102"/></linearGradient></defs><g transform="translate(-258 286.16)"><g transform="translate(258 -286.16)" opacity="0.5"><circle cx="64.15" cy="64.15" r="64.15" transform="translate(0)" fill="url(#a)"/></g><circle cx="62.794" cy="62.794" r="62.794" transform="translate(259.478 -285.213)" fill="#f5f5f5"/><path d="M296.385,532.547A62.5,62.5,0,0,0,330.9,522.218c-2.314-12.643-11.121-13.368-11.121-13.368H271.2s-8.3.681-10.9,12.316A62.506,62.506,0,0,0,296.385,532.547Z" transform="translate(25.942 -691.924)" fill="#6c63ff"/><circle cx="30.312" cy="30.312" r="30.312" transform="translate(291.351 -254.055)" fill="#333"/><path d="M97.34,409.21h19.424v15.538a9.709,9.709,0,0,1-9.709,9.709h0a9.709,9.709,0,0,1-9.709-9.709V409.21Z" transform="translate(214.542 -607.706)" opacity="0.1"/><path d="M99.194,407.906h15.715a1.854,1.854,0,0,1,1.854,1.854v13.695a9.709,9.709,0,0,1-9.709,9.709h0a9.709,9.709,0,0,1-9.715-9.709v-13.7a1.854,1.854,0,0,1,1.854-1.854Z" transform="translate(214.542 -607.121)" fill="#fdb797"/><path d="M306.69,492.347a27.954,27.954,0,0,0,19.424.055V490H306.69Z" transform="translate(5.231 -683.508)" opacity="0.1"/><circle cx="27.838" cy="27.838" r="27.838" transform="translate(293.825 -245.536)" fill="#fdb797"/><path d="M288.48,394.884s11.73,23.8,44.837,9.964l-7.705-12.084-13.656-4.9Z" transform="translate(13.361 -637.907)" opacity="0.1"/><path d="M288.48,394.254s11.73,23.8,44.837,9.964l-7.705-12.084-13.656-4.9Z" transform="translate(13.361 -637.626)" fill="#333"/><path d="M287.822,381.5a16.08,16.08,0,0,1,3.986-6.482c5.475-5.414,14.453-6.554,19.058-12.732a3.6,3.6,0,0,1-1.661,5.081c4.428-.028,9.526-.415,12.017-4.046a8.253,8.253,0,0,1-1.389,8.713c3.908.177,8.082,2.829,8.336,6.737a7.783,7.783,0,0,1-3.6,6.56,20.076,20.076,0,0,1-7.274,2.74C309.864,389.724,282.973,396.593,287.822,381.5Z" transform="translate(13.914 -626.491)" fill="#333"/><ellipse cx="2.591" cy="4.855" rx="2.591" ry="4.855" transform="translate(291.224 -222.58)" fill="#fdb797"/><ellipse cx="2.591" cy="4.855" rx="2.591" ry="4.855" transform="translate(346.904 -222.58)" fill="#fdb797"/></g></svg>