<svg xmlns="http://www.w3.org/2000/svg" xmlns:xlink="http://www.w3.org/1999/xlink" width="588" height="330" viewBox="0 0 588 330"><defs><linearGradient id="a" x1="0.5" y1="1" x2="0.5" gradientUnits="objectBoundingBox"><stop offset="0" stop-color="gray" stop-opacity="0.251"/><stop offset="0.54" stop-color="gray" stop-opacity="0.122"/><stop offset="1" stop-color="gray" stop-opacity="0.102"/></linearGradient><linearGradient id="b" x1="0.5" x2="0.5" y2="0" xlink:href="#a"/><linearGradient id="c" x1="0.5" x2="0.5" y2="0" xlink:href="#a"/><linearGradient id="d" x1="1.096" x2="1.096" y2="0" xlink:href="#a"/><linearGradient id="e" x1="0.5" x2="0.5" y2="0" xlink:href="#a"/></defs><g fill="#49c4f2" stroke="#707070" stroke-width="1"><rect width="588" height="330" stroke="none"/><rect x="0.5" y="0.5" width="587" height="329" fill="none"/></g><g transform="translate(249.013 53.767)"><path d="M43.44,426.65c5.359,20.884,16.7,38.936,34.635,47.686,37.278,18.187,121.3,8.806,184.015-1.959,32.449-5.57,60.951-20.928,81.668-42.571Z" transform="translate(-39.793 -305.629)" fill="#6c63ff" opacity="0.1"/><path d="M392.768,42.863H358.357a2.724,2.724,0,1,1,0-5.424h5.954a2.722,2.722,0,1,1,0-5.421h-4.248a2.862,2.862,0,0,1-2.977-2.712,2.86,2.86,0,0,1,2.977-2.712h17.96a50.884,50.884,0,0,0-14.01-3.519c-48.975-5.737-66.462-1.944-72.639,1.959A72.076,72.076,0,0,1,266.2,35.093c-30.217,5.683-86.726,12.521-137.946-2.191C102.8,25.594,83.882,37.963,72.54,58.6h326.2A44.889,44.889,0,0,0,394.7,42.2,3.12,3.12,0,0,1,392.768,42.863Z" transform="translate(-60.23 -20.14)" fill="#6c63ff" opacity="0.1"/><path d="M31.886,280.23a126.208,126.208,0,0,0,1.337,36.436L335.354,326.74a128.951,128.951,0,0,0,20.991-29.175Zm119.488,25.992h-5.954a2.722,2.722,0,1,1,0,5.421h-34.4a2.722,2.722,0,1,1,0-5.421h5.954a2.724,2.724,0,1,1,0-5.424h-4.254a2.722,2.722,0,1,1,0-5.421h34.411a2.722,2.722,0,1,1,0,5.421h4.239a2.724,2.724,0,1,1,0,5.424Z" transform="translate(-31.16 -202.798)" fill="#6c63ff" opacity="0.1"/><path d="M371.537,149.94,41.684,157.255a110.789,110.789,0,0,0-7.9,31.056H365.756a118.784,118.784,0,0,0,4.793-19.794A85.747,85.747,0,0,0,371.537,149.94ZM100.754,173.908H94.8a2.724,2.724,0,1,1,0,5.424H60.392a2.724,2.724,0,1,1,0-5.424h5.954a2.722,2.722,0,1,1,0-5.421H62.091a2.724,2.724,0,1,1,0-5.424H96.5a2.724,2.724,0,1,1,0,5.424h4.251a2.722,2.722,0,1,1,0,5.421Z" transform="translate(-33.009 -111.296)" fill="#6c63ff" opacity="0.1"/><ellipse cx="22.396" cy="5.028" rx="22.396" ry="5.028" transform="translate(175.37 218.233)" fill="#6c63ff" opacity="0.1"/><ellipse cx="40.404" cy="3.316" rx="40.404" ry="3.316" transform="translate(209.403 235.913)" fill="#6c63ff" opacity="0.1"/><ellipse cx="40.404" cy="5.028" rx="40.404" ry="5.028" transform="translate(47.177 229.173)" fill="#6c63ff" opacity="0.1"/><ellipse cx="30.401" cy="5.028" rx="30.401" ry="5.028" transform="translate(118.783 204.003)" fill="#6c63ff" opacity="0.1"/><ellipse cx="24.337" cy="5.028" rx="24.337" ry="5.028" transform="translate(133.334 245.883)" fill="#6c63ff" opacity="0.1"/><path d="M470.22,193.245c-.643-4.329-4.576-14.43-4.576-14.43h0q-.1-.447-.232-.893c-2.789-9.586-6.651-10.42-6.651-10.42l-13.831-2.977a1.072,1.072,0,0,1,.3.277,1.917,1.917,0,0,0-.217.033,5.418,5.418,0,0,1-1.212-2.62c-.027-.143-.051-.3-.068-.444a9.729,9.729,0,0,0-.792-14.626c-.146-.113-.3-.223-.444-.327a2.2,2.2,0,0,0,.185-2.623,9.142,9.142,0,0,0-5.894-4.394,9.993,9.993,0,0,0-5.722-.122,20.667,20.667,0,0,0-2.995,1.39c-1.837.917-3.87,1.643-5.243,3.153a1.539,1.539,0,0,0-.524,1.265,3.415,3.415,0,0,0,.521.92,2.776,2.776,0,0,1,.027,2.3,22.329,22.329,0,0,0-.854,2.215,2.316,2.316,0,0,0,.461,2.224,9.789,9.789,0,0,0,.863.6,4.528,4.528,0,0,1,.825.926q.822,1.1,1.637,2.212A22.787,22.787,0,0,1,427.834,160a15.191,15.191,0,0,0,1.268,2.382,3.531,3.531,0,0,0,.545.572l-.161-.063a2.48,2.48,0,0,0,1.819.741h.083a.5.5,0,0,0,.333-.137c0,.1,0,.2,0,.3.033,1.063.027,2.194-.048,3.257l-.128-.065a1.116,1.116,0,0,0-1.191.125l-12.733,10.217s-2.769,3.787-2.382,10.324l-2.233,9.8s-2.789,8.318-.643,14.257,3.391,9.336,3.391,9.336.857,6.749,2.146,7.3,1.846.848,1.846.848l.256,1.614h0s.086.158.238.423c.938,1.631,4.412,7.389,6.43,6.773a25.812,25.812,0,0,1,.327,4.73l2,13.411s1.393,3.647,1.307,5.558,1.625,4.635,1.625,4.635a8.857,8.857,0,0,0-.857,6.237c.816,3.572,1.846,20.029,1.846,20.029l1.488,3.989-.042,4.677a4.465,4.465,0,0,1-.923,2.084c-.965,1.048-.893,2.26-3.218,3.692s-3.8,1.974-3.8,3.87a4.979,4.979,0,0,1-.071.789c-.214,1.393-.631,2.149,3.644,2.554a11.271,11.271,0,0,0,8.371-2.8s.738-1.34,4.215-1.882c0,0,1.191-.062,1.253-1.113.024-.363.018-1.057,0-1.822a11.211,11.211,0,0,0-.381-3.239,7.061,7.061,0,0,1-.777-2.1h.968s.893-6.749,0-11.119a18.038,18.038,0,0,1-.086-7.469l-.173-11.542a3.3,3.3,0,0,1-.256-3.525c.935-2.251,0-13.367,0-13.367s.345-3.989,1.331-4.924.048-5.844,0-6.1l1.756,5.892s.771,11.712,2.405,13.831l.47,5.305s3.346,4.882,2.7,7.511.688,12.137.688,12.137v9.72s-1.5,3.9.6,5.305l.893-.036c-.3.277-.527.694-.875,1.054-.4.414-.631,1.989-.759,3.343-.107,1.146-.143,2.132-.143,2.132a3.51,3.51,0,0,0,2.575,1.527c1.682.1,7.225,4.314,7.225,4.314a65.562,65.562,0,0,0,6.892-.3l.083-.021a1.861,1.861,0,0,0,1.069-.872,2.233,2.233,0,0,0,.256-1.6,4.006,4.006,0,0,0-2.31-2.533c-3.659-1.929-4.2-3.736-4.2-3.736l-2.4-3.605h.342a15.422,15.422,0,0,1,2.4-8.106l-.17-18.883s1.072-6.493-.771-10.018c0,0-.152-3.733,1.081-4.879s-1.64-12.73-1.64-12.73-.6-6.219-1.295-11.893h0c2.9,2.748,5.9-7.145,6.407-8.9h.074l-.033-.128c.021-.083.033-.125.033-.125h0s-.643-2.286-.173-1.822,1.631-1.274,1.631-1.274-.173-9.464,1.846-14.233S470.22,193.245,470.22,193.245Zm-8.633,6.022.015-.027c.3,5.778-.057,18.109-.057,18.109s-.4,1.581-.825,3.441l-.3-11.715h0l-.3-11.036Zm-36.948-3.983s1.459,18.246,0,20.878a13.785,13.785,0,0,0-1.051,3.605c-.482-1.265-1.5-4.236-1.137-5.811.473-2.036-.944-7.386-.944-7.511a12.692,12.692,0,0,1,.893-5.156c1.021-2.179.351-3.123.351-3.123S423.609,194.593,424.639,195.284Z" transform="translate(-298.319 -103.833)" fill="url(#a)"/><path d="M449.26,443.968c-1.271,5.588-6.326-2.861-7.478-4.888-.149-.265-.232-.42-.232-.42l.548-2.569,2.9-1.191a8.09,8.09,0,0,1,1.3.845A7.826,7.826,0,0,1,449.26,443.968Z" transform="translate(-319.385 -311.423)" fill="#d38884"/><path d="M579.527,431.272a.39.39,0,0,1-.033.125.632.632,0,0,1-.039.134c-.5,1.745-3.444,11.566-6.29,8.839-3.114-2.977-1.6-9.86-1.6-9.86h.021l6.549-.67,1.3,1.334h0Z" transform="translate(-410.436 -307.869)" fill="#d38884"/><path d="M491.942,481.388l.167,18.755a15.382,15.382,0,0,0-2.358,8.038l-8.467.333c-2.066-1.39-.6-5.263-.6-5.263v-9.657s-1.307-9.434-.676-12.048-2.652-7.443-2.652-7.443l-.464-5.266c-1.6-2.1-2.361-13.73-2.361-13.73l-1.718-5.871c.048.253.941,5.153,0,6.055s-1.307,4.885-1.307,4.885.926,11.039,0,13.269a3.285,3.285,0,0,0,.25,3.5l.17,11.458a17.919,17.919,0,0,0,.083,7.413c.884,4.338,0,11.039,0,11.039h-9.083l.042-4.677-1.471-3.959s-1.012-16.344-1.813-19.883a8.883,8.883,0,0,1,.84-6.192s-1.682-2.694-1.6-4.591-1.3-5.513-1.3-5.513l-1.959-13.31a25.857,25.857,0,0,0-.971-7.582c-1.137-3.793-2.822-8.764-2.822-8.764l1.9.17,9.6.854s23.337-1.569,24.382-.265a4.38,4.38,0,0,1,.441,1.36c1.048,4.707,2.432,19.452,2.432,19.452s2.822,11.5,1.611,12.637-1.063,4.841-1.063,4.841C493,474.927,491.942,481.388,491.942,481.388Z" transform="translate(-326.64 -309.653)" fill="#444053"/><path d="M479.421,685.383c-.065,1.045-1.23,1.107-1.23,1.107-3.412.536-4.138,1.864-4.138,1.864a10.958,10.958,0,0,1-8.214,2.781c-4.2-.4-3.79-1.152-3.572-2.536a5.248,5.248,0,0,0,.068-.78c0-1.9,1.453-2.435,3.727-3.87s2.212-2.623,3.159-3.665a5.806,5.806,0,0,0,1.045-3.063c1.072-1.867,3.79.3,3.79.3.128.661,4.168.569,4.168.569a8.9,8.9,0,0,0,.813,2.274,11.178,11.178,0,0,1,.372,3.215C479.439,684.335,479.445,685.022,479.421,685.383Z" transform="translate(-333.848 -481.071)" fill="#b07473"/><path d="M479.421,702.181c-.065,1.045-1.23,1.107-1.23,1.107-3.412.536-4.138,1.864-4.138,1.864a10.958,10.958,0,0,1-8.214,2.781c-4.2-.4-3.79-1.152-3.572-2.536,1.875.464,5.46,1.113,7.553-.024,2.909-1.578,5-2.679,5-2.679l4.6-2.313C479.439,701.133,479.445,701.821,479.421,702.181Z" transform="translate(-333.848 -497.869)" opacity="0.1"/><path d="M565.276,693.85a1.816,1.816,0,0,1-1.048.866l-.08.021a63.159,63.159,0,0,1-6.764.3s-5.433-4.2-7.076-4.3a3.456,3.456,0,0,1-2.527-1.518s.033-.976.137-2.114c.128-1.346.351-2.909.747-3.319.726-.759.893-1.786,2.528-1.137,0,0,2.334-4.114,5.085-.935l2.846,4.317s.536,1.786,4.141,3.724a3.994,3.994,0,0,1,2.266,2.516A2.218,2.218,0,0,1,565.276,693.85Z" transform="translate(-393.991 -483.914)" fill="#b07473"/><path d="M565.276,709.413c-.322.271-.676.563-1.048.866l-.08.021a63.159,63.159,0,0,1-6.764.3s-5.433-4.2-7.076-4.3a3.456,3.456,0,0,1-2.527-1.518s.033-.976.137-2.114c1.673.5,4.206,1.384,4.885,2.337a20.7,20.7,0,0,0,4.206,3.474s5.9-.569,8.52-.646A2.218,2.218,0,0,1,565.276,709.413Z" transform="translate(-393.991 -499.477)" opacity="0.1"/><path d="M492.3,208.221l-7.77,8.214s-9.416-.694-7.773-3.474c.837-1.417.968-4.382.893-6.96-.068-2.486-.324-4.6-.324-4.6s13.206-6.573,12.206-.444a10.088,10.088,0,0,0-.036,3.5A4.585,4.585,0,0,0,492.3,208.221Z" transform="translate(-343.975 -145.287)" fill="#d38884"/><path d="M491.314,200.954a10.09,10.09,0,0,0-.036,3.5,9.693,9.693,0,0,1-6.913,2.885c-1.786,0-3.718-1.468-5.162-2.316-.068-2.489-.083-3.623-.083-3.623S492.326,194.824,491.314,200.954Z" transform="translate(-345.771 -145.287)" opacity="0.1"/><path d="M483.5,171.22a9.732,9.732,0,1,1-3.662-7.6A9.732,9.732,0,0,1,483.5,171.22Z" transform="translate(-335.179 -119.408)" fill="#d38884"/><path d="M491.679,434.886c-2.423,5.766-18.011,5.886-18.011,5.886v-6.287l-.944-.063c.408,1.8-.572,6.192-.572,6.192-12.319,1.739-15.323-5.281-15.323-5.281l.429-2.4,9.6.854s23.337-1.569,24.382-.265A4.378,4.378,0,0,1,491.679,434.886Z" transform="translate(-330.117 -310.039)" opacity="0.1"/><path d="M473.668,295.8v-6.287l-.944-.06c.408,1.786-.572,6.192-.572,6.192-9.27,1.307-13.266-2.343-14.674-4.23a5.759,5.759,0,0,1-.649-1.048l3.763-21.167.893-31.151,1.349-5.466.313-2.623v-.03h.033l.959.411,5.737,2.48,6.517-4.921.1-.068.325-.247.539.432,1.34,1.075,4.3,27.743s7.443,21.36,8.836,29.982c.057.345.1.667.137.968C492.879,295.649,473.668,295.8,473.668,295.8Z" transform="translate(-330.117 -165.822)" fill="#6c63ff"/><circle cx="0.554" cy="0.554" r="0.554" transform="translate(139.902 67.054)" fill="#67647e"/><circle cx="0.554" cy="0.554" r="0.554" transform="translate(140.158 72.109)" fill="#67647e"/><circle cx="0.554" cy="0.554" r="0.554" transform="translate(140.711 80.293)" fill="#67647e"/><circle cx="0.554" cy="0.554" r="0.554" transform="translate(141.625 89.108)" fill="#67647e"/><circle cx="0.554" cy="0.554" r="0.554" transform="translate(142.179 97.384)" fill="#67647e"/><circle cx="0.554" cy="0.554" r="0.554" transform="translate(142.733 106.199)" fill="#67647e"/><circle cx="0.554" cy="0.554" r="0.554" transform="translate(142.512 114.918)" fill="#67647e"/><path d="M463.509,277.6s-.619,8.106-1.756,10.464-1.643,8.973-1.643,8.973l-2.641-.3a5.762,5.762,0,0,1-.649-1.048l3.763-21.167.893-31.151,1.352-5.469.313-2.623.036-.015a1.066,1.066,0,0,1,.941.015l.125.065q-.057.161-.107.33a50.6,50.6,0,0,0-1.414,9.166s1.489,10.869,1.643,15.924S463.509,277.6,463.509,277.6Z" transform="translate(-330.11 -171.15)" opacity="0.1"/><path d="M446.292,435.754a1.524,1.524,0,0,1-.1.2c-1.024,1.73-3.62,2.828-4.409,3.129-.149-.265-.232-.42-.232-.42l.548-2.569,2.9-1.191a8.09,8.09,0,0,1,1.3.854Z" transform="translate(-319.385 -311.423)" opacity="0.1"/><path d="M419.709,298.81l-2.4,1.432-2.188,9.732s-2.739,8.255-.634,14.153,3.328,9.273,3.328,9.273.842,6.7,2.108,7.246,1.81.842,1.81.842l.253,1.6s3.43-1.164,4.641-3.215-.893-7.145-.893-7.145-1.81-4.34-1.346-6.362-.929-7.329-.929-7.443a12.614,12.614,0,0,1,.893-5.12c1.018-2.17.339-3.1.339-3.1l-.634-6.192Z" transform="translate(-299.818 -215.847)" fill="#67647e"/><path d="M537.661,289.346s-6.362,2.4-8.383.3-1.813-11.965-1.813-11.965-1.935-18.2-3.159-21.187-.6-24.56-.6-24.56a13.074,13.074,0,0,0-1.539-3.519.78.78,0,0,0-.152-.122l.247.054.863.185,1.34,1.075,4.3,27.743s7.443,21.36,8.836,29.981Z" transform="translate(-375.899 -166.321)" opacity="0.1"/><path d="M580.379,431.511h-.071c-.8.1-7.868.959-7.9-.512a4.312,4.312,0,0,1,.027-.509l6.549-.67,1.3,1.334h0c.024.086.042.161.06.22Z" transform="translate(-411.288 -307.855)" opacity="0.1"/><path d="M573.6,266.07l4.644,2.423s3.87,10.021,4.489,14.316c0,0,2.867,11.509.893,16.243s-1.81,14.129-1.81,14.129-1.137,1.727-1.6,1.265.17,1.81.17,1.81-7.94,1.054-7.972-.506,1.822-9.014,1.822-9.014.506-17.734-.211-20.515S573.6,266.07,573.6,266.07Z" transform="translate(-411.287 -192.854)" fill="#67647e"/><path d="M520.906,329.52s-2.614,6.4-3.456,6.823.17,2.1.17,2.1S522.38,331.794,520.906,329.52Z" transform="translate(-372.454 -237.414)" opacity="0.1"/><path d="M514.991,254.092c.03-.122-3.117,3.087-3.959,3.572S514.107,257.635,514.991,254.092Z" transform="translate(-368.1 -184.439)" opacity="0.1"/><path d="M485.212,327.82s-4.8,3.105-4.168,4.335S485.212,327.82,485.212,327.82Z" transform="translate(-347.081 -236.221)" opacity="0.1"/><path d="M524.47,480.07a25.7,25.7,0,0,0,10.446,3.275Z" transform="translate(-377.62 -343.146)" opacity="0.1"/><path d="M491.5,501.3s3.79,4.763,5.519,4.885S491.5,501.3,491.5,501.3Z" transform="translate(-354.465 -358.055)" opacity="0.1"/><path d="M498.543,564c-.17.083-2.149,4.3-4.168,4.424S498.543,564,498.543,564Z" transform="translate(-356.2 -402.089)" opacity="0.1"/><path d="M568.33,594.706s3.757-.842,4.594,1.852C572.924,596.548,572.671,595.706,568.33,594.706Z" transform="translate(-408.423 -423.566)" opacity="0.1"/><path d="M559.84,645.985s4.552-.929,5.519.336S559.84,645.985,559.84,645.985Z" transform="translate(-402.46 -459.436)" opacity="0.1"/><path d="M506.045,654c0,.042-4.632.929-4.466,1.518s4.942.506,5.112-.423a.893.893,0,0,0-.646-1.1Z" transform="translate(-361.541 -465.296)" opacity="0.1"/><path d="M554.75,666.788s7.612-.929,7.145.673S554.75,666.788,554.75,666.788Z" transform="translate(-398.886 -474.089)" opacity="0.1"/><path d="M420.89,352.44c.042.125,5.013.8,5.686,2.4,0,0-4.885-2.277-5.656-2.277" transform="translate(-304.876 -253.511)" opacity="0.1"/><path d="M435.3,396.16s-4.129,1.307-3.834,3.275S431.045,398.524,435.3,396.16Z" transform="translate(-312.292 -284.216)" opacity="0.1"/><path d="M437.92,425.756s1.5-2.063,2.935-1.685S437.92,425.756,437.92,425.756Z" transform="translate(-316.836 -303.785)" opacity="0.1"/><path d="M479.874,163.612a2.344,2.344,0,0,1-.482.36c-1.191.694-1.518,1.762-2.084,2.995a6.369,6.369,0,0,1-2.17,2.962c-1.372.828-3.179.524-4.605,1.244a3.572,3.572,0,0,0-1.905,3.522,10.155,10.155,0,0,0,.4,1.614,11.505,11.505,0,0,1,.435,3.5.594.594,0,0,1,0,.1,9.729,9.729,0,1,1,10.42-16.305Z" transform="translate(-335.213 -119.404)" opacity="0.1"/><path d="M468.159,147.364A8.98,8.98,0,0,0,462.375,143a9.715,9.715,0,0,0-5.618-.119,20.6,20.6,0,0,0-2.938,1.378c-1.8.911-3.787,1.631-5.144,3.129a1.568,1.568,0,0,0-.515,1.256,3.508,3.508,0,0,0,.509.911,2.765,2.765,0,0,1,.027,2.289,21,21,0,0,0-.84,2.2,2.315,2.315,0,0,0,.452,2.206,8.253,8.253,0,0,0,.851.6,4.481,4.481,0,0,1,.807.917l1.608,2.2a22.283,22.283,0,0,1,2.012,3.093,14.741,14.741,0,0,0,1.244,2.361,2.694,2.694,0,0,0,2.257,1.206.437.437,0,0,0,.357-.17.47.47,0,0,0,.045-.223,11.426,11.426,0,0,0-.426-3.492,10.075,10.075,0,0,1-.4-1.614,3.587,3.587,0,0,1,1.905-3.522c1.429-.72,3.236-.417,4.605-1.241a6.327,6.327,0,0,0,2.17-2.977c.575-1.232.893-2.3,2.084-2.995A2.094,2.094,0,0,0,468.159,147.364Z" transform="translate(-323.75 -106.085)" fill="#585268"/><path d="M501.63,693.06s1.488,1.9,1.1,2.977S501.63,693.06,501.63,693.06Z" transform="translate(-361.58 -492.728)" opacity="0.1"/><path d="M569.28,702.867s.33-2.542,1.655-2.566a4.433,4.433,0,0,1,2.4.253c1.012.39,1.962.994,1.658,1.084s-1.742-1.453-3.218-.664A10.634,10.634,0,0,0,569.28,702.867Z" transform="translate(-409.09 -497.79)" opacity="0.1"/><path d="M477.552,241.572l4.168-2.92s-6.1-3.6-6.823-3.1-1.227,5.061-1.227,5.061Z" transform="translate(-341.943 -171.389)" opacity="0.1"/><path d="M477.492,240.808l4.168-2.977s-6.1-3.6-6.823-3.1-1.227,5.311-1.227,5.311Z" transform="translate(-341.901 -170.813)" fill="#e1e7ef"/><path d="M477.492,240.808l4.168-2.977s-6.1-3.6-6.823-3.1-1.227,5.311-1.227,5.311Z" transform="translate(-341.901 -170.813)" fill="#6c63ff"/><path d="M441.893,234.5l-.125-.063a1.081,1.081,0,0,0-1.17.122l-12.5,10.143s-2.718,3.76-2.34,10.247l7.374,10.446s.842-3.537,1.852-2.864c0,0,1.432,18.115,0,20.726s-2.063,12.384-2.063,12.384l4.844.548s.506-6.615,1.643-8.973,1.756-10.464,1.756-10.464,1.024-11.777.854-16.832S440.372,244,440.372,244,440.786,237.63,441.893,234.5Z" transform="translate(-308.267 -170.558)" fill="#67647e"/><path d="M509.635,234.666l-5.195-1.923s6.615-7.246,7.443-3.227Z" transform="translate(-363.553 -166.329)" opacity="0.1"/><path d="M509.635,233.816l-5.195-1.923s6.615-7.246,7.443-3.227Z" transform="translate(-363.553 -165.732)" fill="#e1e7ef"/><path d="M509.635,233.816l-5.195-1.923s6.615-7.246,7.443-3.227Z" transform="translate(-363.553 -165.732)" fill="#6c63ff"/><path d="M521.32,228.111a.3.3,0,0,1,.214.048Z" transform="translate(-375.408 -166.192)" opacity="0.1"/><path d="M523,226.418l13.784,2.977s3.793.842,6.532,10.363-3.751,21.184-3.751,21.184l-1.432-1.218.717,27.8s-6.362,2.4-8.383.3-1.81-11.974-1.81-11.974-1.938-18.2-3.162-21.187-.6-24.557-.6-24.557S523.774,226.251,523,226.418Z" transform="translate(-376.588 -165.002)" fill="#67647e"/><path d="M564.934,285.645a78.876,78.876,0,0,0,.423,15,81.712,81.712,0,0,0,2.382,11.542l-1.25-25.653S565.523,285.1,564.934,285.645Z" transform="translate(-405.911 -206.514)" opacity="0.1"/><path d="M559.7,261.6c.336.211,1.813,3.706,1.137,5.138S559.7,261.6,559.7,261.6Z" transform="translate(-402.362 -189.714)" opacity="0.1"/><path d="M485.654,151.3a7.609,7.609,0,0,0-3.031-3.173,7.207,7.207,0,0,1,2.271,2.679,2.117,2.117,0,0,1-.738,3.034c-1.158.652-1.518,1.762-2.084,2.995a6.472,6.472,0,0,1-2.173,2.977c-1.369.828-3.176.521-4.605,1.241a3.6,3.6,0,0,0-1.905,3.525,10.123,10.123,0,0,0,.408,1.611,11.516,11.516,0,0,1,.435,3.5.471.471,0,0,1-.048.223.426.426,0,0,1-.354.17,2.051,2.051,0,0,1-1.039-.193,2.417,2.417,0,0,0,1.786.7.351.351,0,0,0,.4-.393,11.423,11.423,0,0,0-.432-3.5,9.782,9.782,0,0,1-.408-1.614,3.587,3.587,0,0,1,1.905-3.522c1.429-.72,3.236-.417,4.605-1.241a6.327,6.327,0,0,0,2.17-2.977c.575-1.232.893-2.3,2.084-2.995A2.119,2.119,0,0,0,485.654,151.3Z" transform="translate(-341.325 -110.024)" opacity="0.1"/><path d="M663.971,204.834c-4.1-.08-7.722-2.977-9.773-6.517a6.549,6.549,0,0,1-.988-2.789,3.221,3.221,0,0,1,.113-.667,6.923,6.923,0,0,0,.3-1.021,1.786,1.786,0,0,0,0-.417s0,0,0-.024a2.463,2.463,0,0,0-.893-2c-.548-.515-1.235-.893-1.807-1.405-1.762-1.548-2.3-4.031-2.331-6.395v-.125c.021-1.012.1-2.027.092-3.04a12.779,12.779,0,0,0-.074-1.721,5.686,5.686,0,0,0-1.84-3.8c-2.935-2.382-7.871.1-10.911-2.152-.738-.551-1.337-1.363-2.233-1.578a3.761,3.761,0,0,0-2.039.277c-2.239.738-4.736,1.709-5.612,3.87-.5,1.241-.36,2.658-.819,3.915a19.541,19.541,0,0,1-1.28,2.364,3.7,3.7,0,0,0-.476,1.974,2.227,2.227,0,0,0,.146,1.051,2.679,2.679,0,0,0,.729,1.045,3.471,3.471,0,0,1-.435.7c-.572.7-1.45,1.191-2.045,1.887a4.46,4.46,0,0,0-.518,4.513c.542,1.5,1.521,2.867,2.2,4.329a2.323,2.323,0,0,1,.223,1.974,5.66,5.66,0,0,1-.988,1.149,3.611,3.611,0,0,0-.893,1.995c-6.7,1.53-6.707,6.916-6.707,6.916h0l-3.62,9.1s-.581,1.533-1.262,3.558l-4.284-.768,2.977,4.984a15.736,15.736,0,0,0-.831,4.858s-1.331,6.252,1.036,7.344l5.222,2.349a3.093,3.093,0,0,0,.723.324l.211.1a.56.56,0,0,0,.488,0h.071a.7.7,0,0,0,.3-.045.6.6,0,0,0,.262-.283.09.09,0,0,1,0-.03l1.563-.453,1.325,1.569c.6.42,1.191.783,1.753,1.11l-2.051,20.369s-.33,27.091-1.331,33.265a17.292,17.292,0,0,0-.232,4.906l-.039.065c.247,1.742.893,2.084.893,2.084v-.024a.192.192,0,0,0,.039.024,17.539,17.539,0,0,1,1.072-2.3v.447c-.021,2.3-.092,5.516-.33,7.609-.4,3.572,1.036,15.346,1.036,15.346l.5,10.717a9.908,9.908,0,0,1-1.221,5.222c-1.191,2.141-2.712,5.153-2.822,6.49a1.346,1.346,0,0,0,0,.217h0L614,350.359s-1,1.542,1.256,2.164a12.064,12.064,0,0,0,4.981-.4,3.328,3.328,0,0,0,2.581-3.239,11.461,11.461,0,0,1,2.108-4.046l.42,2.468,2.81.7.36-6.764a2.978,2.978,0,0,0,.193-1.191h0c.554-4.811-1.3-4.379-1.3-4.379a.259.259,0,0,1,.089.167l-.089-.164h0c-1.14-2.251-.6-5.954-.6-5.954s1.489-10.717,2-13.548c.366-2,.214-8.55.092-12.206a4.356,4.356,0,0,0-.015-.444c4.358-.057,9.7-.2,13.447-.566v.441l-.691,25.319a13.9,13.9,0,0,1-.97,4.71.257.257,0,0,1-.033.086,20.54,20.54,0,0,0-1.372,6.636l-.322,8.038v.223h0c-.56.214-1.444.837-1.468,2.641-.039,2.644,4.62,1.762,4.62,1.762,4.656,0,4.695-4.847,4.695-4.847s.146-4.445.369-7.419-.7-2.319-.7-2.319l-.071,8.461v-7.35l.071-1.075v-.03h0v-.229l.586-8.726s4.29-14.54,4.954-17.329c.473-1.983.277-7.955.122-11.256a2.626,2.626,0,0,0-.024-.438c1.331-.119,2.507-.131,2.977-.131h.217s-.22-23.352-.777-32.152-1.441-16.853-3.659-19.276c-1.34-1.465-3.206-5.987-4.466-9.336a46.7,46.7,0,0,0,8.208,2.679c7.023,1.471,6.061-4.626,6.061-4.626l-.712-11.53h.048a58.78,58.78,0,0,0-.774-9.014,26.52,26.52,0,0,0-1.81-6.549c.762-.3,1.515-.616,2.254-.944,1.908-.842,4.058-2.036,4.332-4.093H663.9a2.651,2.651,0,0,0,.071-.453Zm-43.533,16.671h0c.015,1.191-.03,3.257-.1,5.54l-2.23-2.977,2.236-3.626ZM650.315,227.552Zm.929,4.5-3.715-1.191a16.673,16.673,0,0,1,2.3-2.84l.322-.3-.116.024.179-.164.107-.024-.17.164.2-.042a6.337,6.337,0,0,0,1.265,2.545c1.334,1.456-.366,1.825-.366,1.825Z" transform="translate(-434.836 -126.17)" fill="url(#b)"/><path d="M642.21,715.66l-.435,8.24L639,723.207l-.583-3.427Z" transform="translate(-448.371 -502.604)" fill="#a27772"/><path d="M642.21,715.66l-.435,8.24L639,723.207l-.583-3.427Z" transform="translate(-448.371 -502.604)" opacity="0.1"/><path d="M716.48,643.124l4.227.875,3.135-2.769v-7.8l.071-1.066v-.033h0V632.1l.583-8.672s4.23-14.436,4.888-17.207c.464-1.965.271-7.9.116-11.173-.062-1.343-.116-2.242-.116-2.242l-9.333-2.26-.2,7.175-.682,25.138a13.93,13.93,0,0,1-.956,4.677l-.033.086a20.458,20.458,0,0,0-1.354,6.585l-.316,7.993v.22Z" transform="translate(-512.468 -420.735)" fill="#cc818c"/><path d="M741.45,730.136v.22h0v-.226Z" transform="translate(-530.005 -518.762)" opacity="0.1"/><path d="M716.48,761.117l4.227.875,3.135-2.769v-.664a.893.893,0,0,1-.45.714l-.045.027a8.424,8.424,0,0,1-4.745.938l-1.649-.14a1.544,1.544,0,0,0-.438.107v.22Z" transform="translate(-512.468 -538.729)" opacity="0.1"/><path d="M719.991,739.942l.045-.024a.893.893,0,0,0,.456-.774l.068-8.4s.911-.652.691,2.3-.363,7.365-.363,7.365-.036,4.811-4.629,4.811c0,0-4.594.875-4.558-1.75s1.9-2.733,1.9-2.733l1.649.143A8.4,8.4,0,0,0,719.991,739.942Z" transform="translate(-509.111 -519.152)" fill="#b07473"/><path d="M642.52,647.827c.107,1.9,5.686.8,5.686.8l3.754-7.288s3.135-2.408,1.566-4.522a3.374,3.374,0,0,1-.229-.36l-.015-.018h0c-.033-.054-.062-.11-.092-.17h0c-1.125-2.233-.572-5.895-.572-5.895s1.456-10.646,1.968-13.453c.36-1.983.211-8.487.092-12.125-.048-1.512-.092-2.527-.092-2.527l-9.261-2.48v2.763c-.021,2.283-.092,5.478-.327,7.556-.4,3.534,1.021,15.236,1.021,15.236l.491,10.649a9.863,9.863,0,0,1-1.191,5.183c-1.161,2.126-2.679,5.12-2.783,6.445a1.3,1.3,0,0,0-.015.205Z" transform="translate(-460.526 -427.225)" fill="#cc818c"/><path d="M642.514,734.329c.107,1.9,5.686.8,5.686.8l3.754-7.288s3.135-2.408,1.566-4.522a3.374,3.374,0,0,1-.229-.36,18.1,18.1,0,0,1-1.262,3.87s-3.1,6.2-4.084,7.621-5.266-.265-5.427-.325A1.3,1.3,0,0,0,642.514,734.329Z" transform="translate(-460.52 -513.727)" opacity="0.1"/><path d="M646.658,722.277s1.834-.426,1.286,4.349h0a3.075,3.075,0,0,1-1.45,2.73,10.425,10.425,0,0,0-4.361,6.049h0a3.3,3.3,0,0,1-2.545,3.215,11.937,11.937,0,0,1-4.912.393c-2.224-.619-1.238-2.149-1.238-2.149l2.551-3.028s4.448,1.75,5.43.327,4.084-7.618,4.084-7.618S647.2,722.679,646.658,722.277Z" transform="translate(-453.995 -513.24)" fill="#b07473"/><path d="M728.016,593.52l-.2,7.175c2.486-.241,4.266-.578,4.57-1.051.658-1.018,3.045-1.447,5.076-1.622-.063-1.343-.116-2.242-.116-2.242Z" transform="translate(-520.432 -422.821)" opacity="0.1"/><path d="M651.94,605.483a3.405,3.405,0,0,1,1.021-1.233c.982-.545.875,3.5.875,3.5s3.275.03,7.457-.024c-.048-1.512-.092-2.53-.092-2.53l-9.261-2.477S651.958,603.869,651.94,605.483Z" transform="translate(-467.142 -429.282)" opacity="0.1"/><path d="M646.114,455.763s1.1-2.977,2.084-3.507.875,3.5.875,3.5,24.06.22,25.263-1.64,8.2-1.75,8.2-1.75-.217-23.185-.765-31.931-1.42-16.734-3.608-19.139c-1.414-1.557-3.427-6.594-4.671-9.952-.676-1.834-1.125-3.171-1.125-3.171L649.4,389.48l-.188,1.861-2.438,24.388s-.327,26.9-1.313,33.027S646.114,455.763,646.114,455.763Z" transform="translate(-462.373 -278.604)" fill="#444053"/><g transform="translate(182.803 109.566)" opacity="0.1"><path d="M684.9,454.114c1.191-1.858,8.2-1.75,8.2-1.75s-.217-23.185-.765-31.931-1.42-16.734-3.608-19.139c-1.42-1.563-3.427-6.594-4.671-9.952-.569-1.542-.977-2.73-1.09-3.069l1.786-.1s.45,1.337,1.128,3.171c1.244,3.358,3.254,8.4,4.668,9.952,2.188,2.405,3.063,10.39,3.608,19.139s.768,31.931.768,31.931-7-.107-8.2,1.75c-1.027,1.587-18.731,1.661-23.87,1.646C669.444,455.745,683.969,455.549,684.9,454.114Z" transform="translate(-657.607 -388.17)"/><path d="M646.392,603.319c.444-.247.664.438.774,1.268a17.171,17.171,0,0,0-1.033,2.239s-.634-.342-.893-2.084A4.052,4.052,0,0,1,646.392,603.319Z" transform="translate(-645.24 -539.233)"/></g><path d="M661.426,191.98c-1.59,2.167.018,5.248-1.688,7.356-.563.7-1.429,1.191-2.015,1.876a4.455,4.455,0,0,0-.512,4.48c.533,1.489,1.489,2.846,2.167,4.3a2.3,2.3,0,0,1,.22,1.959,5.547,5.547,0,0,1-.977,1.14,4.112,4.112,0,0,0-.536,4.364,14.123,14.123,0,0,0,2.825,3.9,1.928,1.928,0,0,0,2.8.64,11.015,11.015,0,0,0,5.013-14.376c-.923-2.212-2.462-4.332-2.477-6.669,0-1.855.953-3.626,1.122-5.472.205-2.245-1.122-5.808-3.831-6.788C663.718,190.131,662.233,190.866,661.426,191.98Z" transform="translate(-470.588 -138.51)" fill="#585268"/><path d="M661.426,191.98c-1.59,2.167.018,5.248-1.688,7.356-.563.7-1.429,1.191-2.015,1.876a4.455,4.455,0,0,0-.512,4.48c.533,1.489,1.489,2.846,2.167,4.3a2.3,2.3,0,0,1,.22,1.959,5.547,5.547,0,0,1-.977,1.14,4.112,4.112,0,0,0-.536,4.364,14.123,14.123,0,0,0,2.825,3.9,1.928,1.928,0,0,0,2.8.64,11.015,11.015,0,0,0,5.013-14.376c-.923-2.212-2.462-4.332-2.477-6.669,0-1.855.953-3.626,1.122-5.472.205-2.245-1.122-5.808-3.831-6.788C663.718,190.131,662.233,190.866,661.426,191.98Z" transform="translate(-470.588 -138.51)" opacity="0.1"/><path d="M690.3,464.55a21.142,21.142,0,0,0-8.964,3.084,61.411,61.411,0,0,1-8.482,4.4" transform="translate(-481.827 -332.246)" opacity="0.1"/><path d="M689.569,489.74a13.12,13.12,0,0,0-8.261,4.019c-.774.819-1.441,1.736-2.248,2.522a9.985,9.985,0,0,1-4.43,2.51" transform="translate(-483.077 -349.937)" opacity="0.1"/><path d="M684.5,508.91a14.445,14.445,0,0,0-6.645,4.007c-.488.527-.932,1.09-1.42,1.617-2.635,2.828-6.356,4.329-9.949,5.749" transform="translate(-477.361 -363.4)" opacity="0.1"/><path d="M696.291,242.7a65.319,65.319,0,0,0,.655,7.6,9.945,9.945,0,0,0,1.313,4.105c1.75,2.084-8.529,4.867-8.529,4.867l-6.07-4.7s4.811-4.43,2.569-8.749S696.291,242.7,696.291,242.7Z" transform="translate(-489.419 -176.331)" fill="#cc818c"/><path d="M658.79,391.341h24.278c-.676-1.834-1.125-3.171-1.125-3.171l-22.965,1.31Z" transform="translate(-471.953 -278.604)" opacity="0.1"/><path d="M642.359,309.485h25.957a9.006,9.006,0,0,1,1.039-6.883,15.212,15.212,0,0,1,2.718-3.525l.179-.164,9.062-2.007.488-.107s.074-16.478-5.76-18.74a34.113,34.113,0,0,1-9.333-5.32l-8.017,2.477-5.906-2.977c-1.9,2.039-6.928,1.238-6.928,1.238-8.237.947-8.237,7.145-8.237,7.145s4.811,11.226,5.177,11.226S642.359,309.485,642.359,309.485Z" transform="translate(-457.085 -197.187)" fill="#6c63ff"/><path d="M666.9,354.554s-5.293-1.173-7.094-3.224" transform="translate(-472.669 -252.732)" opacity="0.1"/><path d="M758.809,341.51l-6.139,5.031a10.455,10.455,0,0,0,.2,1.191l.179-.164,9.062-2.007Z" transform="translate(-537.885 -245.835)" opacity="0.1"/><path d="M717.46,374.615s1.343.756,3.4,1.75h3.528a9.006,9.006,0,0,1,1.039-6.883l-6.219-2.012C721.324,369.438,717.46,374.615,717.46,374.615Z" transform="translate(-513.157 -264.067)" opacity="0.1"/><path d="M624.056,293.76l-3.644,1.968-3.572,9.041s-3.718,9.913-3.355,12.539c0,0-1.31,6.2,1.021,7.291l6.073,2.751a.566.566,0,0,0,.729-.78c-.866-1.64-1.819-4.207-.3-5.618l-1.75-3.644,6.326-10.354,2.114-3.572Z" transform="translate(-439.877 -212.3)" fill="#6c63ff"/><path d="M676.978,349.285c.316,1.286,1.381,3.275,4.909,4.016l3.87,3.171,4.117,1.867,1.679.759.711-5.141-1.616-.893-1.885-1.03s-4.251-7.7-10.982-4.466A1.489,1.489,0,0,0,676.978,349.285Z" transform="translate(-484.693 -249.531)" opacity="0.1"/><path d="M677.733,347.856c.316,1.289,1.378,3.275,4.906,4.016l3.87,3.171,4.12,1.867,1.676.759.711-5.141-1.617-.893-1.87-1.021s-4.254-7.7-10.985-4.451A1.489,1.489,0,0,0,677.733,347.856Z" transform="translate(-485.227 -248.54)" fill="#cc818c"/><circle cx="9.404" cy="9.404" r="9.404" transform="translate(190.686 54.226)" opacity="0.1"/><circle cx="9.404" cy="9.404" r="9.404" transform="translate(190.686 54.009)" fill="#cc818c"/><path d="M716.208,277.974l-2.828-5.5s4.138-1.673,4.439-3.611,3.965,2.271,3.173,3.668A52.049,52.049,0,0,1,716.208,277.974Z" transform="translate(-510.291 -194.466)" opacity="0.1"/><path d="M716.208,276.5l-2.828-5.5s4.138-1.673,4.439-3.611,3.965,2.274,3.173,3.668A52.365,52.365,0,0,1,716.208,276.5Z" transform="translate(-510.291 -193.434)" fill="#6c63ff"/><path d="M618.527,342.042l15.626,21.009s-5.76,3.135-13.694-2.477l-3.427-4.084L607.25,340Z" transform="translate(-435.756 -244.775)" fill="#f6f8fb"/><path d="M633.936,372.462l1.423-.039s8.693-8.437,10.827-4.168-5.415,8.258-5.415,8.258l-2.3,1.238-2.992.893-1.914-2.569Z" transform="translate(-454.241 -263.771)" fill="#cc818c"/><path d="M631.391,387.677a2.124,2.124,0,0,1,.036,1.471.6.6,0,0,1-.259.283.664.664,0,0,1-.3.042,2.992,2.992,0,0,1-1.962-.971,8.959,8.959,0,0,1-1.271-1.84,3.394,3.394,0,0,1-.652-2.191,3.2,3.2,0,0,1,1.617-1.887c1.441-.953,1.489.158,1.8,1.384S631.061,386.438,631.391,387.677Z" transform="translate(-449.597 -274.429)" opacity="0.1"/><path d="M630.659,387.677a2.141,2.141,0,0,1,.036,1.471.6.6,0,0,1-.259.283.669.669,0,0,1-.3.042,2.977,2.977,0,0,1-1.962-.97,8.857,8.857,0,0,1-1.274-1.84,3.373,3.373,0,0,1-.649-2.191,3.19,3.19,0,0,1,1.614-1.887c1.444-.953,1.488.158,1.807,1.384S630.325,386.438,630.659,387.677Z" transform="translate(-449.082 -274.429)" fill="#6c63ff"/><path d="M623.85,315.039l.726-1.229-.634,2.283Z" transform="translate(-438.138 -220.386)" opacity="0.1"/><path d="M721.19,371.705l1.676.759.711-5.141-1.617-.893C723.077,367.71,722.1,370.077,721.19,371.705Z" transform="translate(-515.776 -263.336)" opacity="0.1"/><path d="M725.6,361.4s-5.412.33-7.71-1.146" transform="translate(-513.459 -258.996)" opacity="0.1"/><g transform="translate(188.427 75.482)" opacity="0.1"><path d="M735.841,305.252a15.235,15.235,0,0,1,2.718-3.528,7.261,7.261,0,0,1,.8-.435l8.437-1.733.488-.107s.074-16.478-5.758-18.74a35.045,35.045,0,0,1-9.1-5.123l.64-.2a34.023,34.023,0,0,0,9.333,5.32c5.835,2.26,5.758,18.74,5.758,18.74h-.875l-8.633,1.652s-.372.36-.485.464a16.731,16.731,0,0,0-2.76,3.65,9.152,9.152,0,0,0-.723,6.919h-.893A9.1,9.1,0,0,1,735.841,305.252Z" transform="translate(-712.799 -274.881)"/><path d="M664.13,277.867c.14-.021.274-.042.42-.057a15.1,15.1,0,0,0,1.786.146A16.237,16.237,0,0,1,664.13,277.867Z" transform="translate(-664.13 -276.58)"/><path d="M693.1,276.666l-5.341-2.7a2.831,2.831,0,0,0,.3-.283l5.573,2.819Z" transform="translate(-680.725 -273.68)"/></g><path d="M734.8,340l3.572,4.376.729,11.884s.947,6.049-5.978,4.591-14.939-5.966-14.939-5.966,3.87-5.177,1.75-7.145l9.916,3.209s1.676-.366.363-1.822a8.2,8.2,0,0,1-1.545-4.084Z" transform="translate(-513.669 -244.775)" fill="#6c63ff"/><path d="M779.42,382.17l1.968,2.26A2.837,2.837,0,0,1,779.42,382.17Z" transform="translate(-556.671 -274.39)" opacity="0.1"/><path d="M736.99,360.8l3.063,3.936-1.53.366Z" transform="translate(-517.596 -253.387)" opacity="0.1"/><path d="M665.215,188.015a3.141,3.141,0,0,1,.327-2.563,20.252,20.252,0,0,0,1.265-2.349c.449-1.244.313-2.653.8-3.87.866-2.158,3.328-3.123,5.534-3.87a3.721,3.721,0,0,1,2.012-.274c.893.211,1.474,1.021,2.2,1.566,2.995,2.233,7.865-.226,10.762,2.137a5.633,5.633,0,0,1,1.813,3.775,33.315,33.315,0,0,1-.018,4.293c-.048,2.507.423,5.248,2.3,6.91.566.5,1.232.875,1.786,1.393a2.439,2.439,0,0,1,.893,1.992,6.912,6.912,0,0,1-.3,1.012,5.182,5.182,0,0,0,.863,3.87c2.024,3.5,5.594,6.392,9.64,6.472-.271,2.042-2.382,3.227-4.272,4.064-2.382,1.069-4.918,2.117-7.541,1.983s-5.359-1.813-5.817-4.4c-.158-.893-.137-1.968-.893-2.432-.464-.283-1.066-.211-1.566-.423a2.759,2.759,0,0,1-1.319-1.858,16.72,16.72,0,0,1-.777-4.763c-.033-1.917.22-4.01-.866-5.588-1.006-1.462-2.792-2.2-3.953-3.546-1.072-1.244-2.236-2.745-3.992-2.977C671.675,188.229,666.65,191.531,665.215,188.015Z" transform="translate(-476.356 -128.918)" opacity="0.1"/><path d="M665.215,186.545a3.141,3.141,0,0,1,.327-2.563,20.252,20.252,0,0,0,1.265-2.349c.449-1.244.313-2.653.8-3.87.866-2.161,3.328-3.126,5.534-3.87a3.721,3.721,0,0,1,2.012-.274c.893.211,1.474,1.021,2.2,1.566,2.995,2.233,7.865-.226,10.762,2.137a5.634,5.634,0,0,1,1.813,3.778,33.267,33.267,0,0,1-.018,4.29c-.048,2.507.423,5.248,2.3,6.91.566.5,1.232.875,1.786,1.393a2.439,2.439,0,0,1,.893,1.992,6.912,6.912,0,0,1-.3,1.012,5.182,5.182,0,0,0,.863,3.87c2.03,3.492,5.585,6.389,9.631,6.469-.271,2.042-2.382,3.227-4.272,4.067-2.382,1.066-4.918,2.114-7.541,1.98s-5.359-1.813-5.817-4.4c-.158-.893-.137-1.968-.893-2.432-.464-.283-1.066-.211-1.566-.423a2.758,2.758,0,0,1-1.319-1.858,16.7,16.7,0,0,1-.777-4.763c-.033-1.917.22-4.01-.866-5.588-1.006-1.462-2.792-2.2-3.953-3.546-1.072-1.244-2.236-2.745-3.992-2.977C671.675,186.759,666.65,190.067,665.215,186.545Z" transform="translate(-476.356 -127.886)" fill="#585268"/><path d="M683.623,277.936l5.391-4.376s-3.691-2-4.132-3.706-3.394.81-3.093,2.34S683.623,277.936,683.623,277.936Z" transform="translate(-488.09 -195.11)" opacity="0.1"/><path d="M684.376,275.733l5.391-4.373s-3.692-2-4.114-3.706-3.394.81-3.093,2.34S684.376,275.733,684.376,275.733Z" transform="translate(-488.631 -193.565)" fill="#6c63ff"/><circle cx="0.429" cy="0.429" r="0.429" transform="translate(200.918 81.028)" opacity="0.1"/><circle cx="0.429" cy="0.429" r="0.429" transform="translate(200.918 83.41)" opacity="0.1"/><circle cx="0.429" cy="0.429" r="0.429" transform="translate(200.918 85.788)" opacity="0.1"/><g transform="translate(188.772 48.918)" opacity="0.1"><path d="M671.57,188.112c.426-1.17.333-2.483.732-3.662a4,4,0,0,0-.455.84c-.494,1.23-.354,2.638-.807,3.87l-.03.071a6.8,6.8,0,0,0,.56-1.119Z" transform="translate(-669.306 -184.45)"/><path d="M701.563,233.039c-2.382,1.066-4.918,2.114-7.541,1.98s-5.359-1.813-5.817-4.394c-.158-.893-.137-1.971-.893-2.435-.464-.283-1.066-.211-1.566-.423a2.759,2.759,0,0,1-1.319-1.858,16.7,16.7,0,0,1-.777-4.763c-.033-1.914.223-4.007-.863-5.588-1.009-1.462-2.8-2.2-3.956-3.546-1.072-1.241-2.236-2.745-3.992-2.977-2.408-.327-7.443,2.977-8.866-.542a2.769,2.769,0,0,1,.092-2.033c-.1.176-.205.351-.3.53a3.154,3.154,0,0,0-.324,2.566c1.432,3.513,6.457.211,8.866.542,1.756.238,2.92,1.742,3.992,2.977,1.161,1.346,2.947,2.084,3.953,3.549,1.09,1.578.834,3.671.866,5.585a16.7,16.7,0,0,0,.777,4.763,2.765,2.765,0,0,0,1.319,1.858c.5.211,1.1.143,1.566.423.768.464.747,1.551.893,2.435.464,2.581,3.2,4.26,5.817,4.394s5.144-.911,7.541-1.98c1.727-.768,3.65-1.831,4.168-3.572A9.019,9.019,0,0,1,701.563,233.039Z" transform="translate(-665.288 -199.908)"/></g><path d="M829.269,273.282a70.026,70.026,0,0,0-8.7-4.519l-.131-.092a5.243,5.243,0,0,1-1.587-2.007,4.191,4.191,0,0,1,0-.432.183.183,0,0,0,0,.042c.1-1.92,1.465-3.668,2.76-5.192l3.313-3.9a3.841,3.841,0,0,0,.854-1.352,3.117,3.117,0,0,0,.089-.831v-.339c-.018-.968-.045-1.938-.08-2.906-.03-.845-.247-1.911-1.093-2.084-.441-.089-1.024.068-1.256-.3a.723.723,0,0,1-.057-.5.17.17,0,0,0,0,.042v-.048a11.216,11.216,0,0,0,.313-1.992,2.714,2.714,0,0,0-.137-1.009c-.488-1.4-2.176-1.98-3.668-2.245s-3.165-.491-4.1-1.658a12.135,12.135,0,0,0-.816-1.122,3.218,3.218,0,0,0-1.524-.753,8.633,8.633,0,0,0-5.546.482,4.978,4.978,0,0,1-2.236.709c-.792-.048-1.524-.619-2.334-.756a3.33,3.33,0,0,0-3.209,1.878,4.594,4.594,0,0,0-.6,2.215v.131h0a3.239,3.239,0,0,0,.851,2.263c.566.6,1.405.988,1.64,1.759.1.313.071.652.158.971a.866.866,0,0,0,.036.116l-.042.057a9.824,9.824,0,0,0-2.084,6.055,10.05,10.05,0,0,0,7.061,9.526c0,.1,0,.2,0,.3a4.283,4.283,0,0,1-1.369,3.334l-8.928,3.566s-5.382-.64-7.323,7.225a13.41,13.41,0,0,0-.333,3.989,11.565,11.565,0,0,1-1.489,5.975c-2.206,4.323-1.7,14.245,2.81,15.227,4.26.929,5.927.542,6.1.5v.173c-.071,1.864-.747,17.922-3.2,19.863-.679.539-.554.893,0,1.146,0,0,0,.1-.015.3-.074,1.191-.453,5.656-2.084,8.193-1.908,2.947-1.709,19.946-1.709,19.946l-1.3,10.021s.8,6.189,0,7.27c-.717.962-1.67,23.858-1.87,28.823h-.083a2.417,2.417,0,0,0-1.929,1.191c-1.054,1.712-4.745,4.876-4.745,4.876-.8,1.137-3.763,2.227-5.329,2.739a3.306,3.306,0,0,0-.6.262,3.176,3.176,0,0,0-1.346,1.417,1.521,1.521,0,0,0-.143,1.191c.4.979,8.726,1.67,10.833.685,1.655-.771,8.217-1.786,10.941-2.185A2.245,2.245,0,0,0,796,409.567a1.283,1.283,0,0,0-.25-.974h0a8.631,8.631,0,0,1-.893-3.572,2.414,2.414,0,0,0,.613-.363,26.155,26.155,0,0,1,1.489-10.512c2.006-5.305,2.608-15.129,2.108-21.515,0,0,6.118-26.329,10.935-28.785h0c.074.1,2.411,3.093,2.709,12.378a37.509,37.509,0,0,0,3.709,15.62s-1.506,16.013,0,22.006l-1.968,9.452c-.146-.122-.238-.217-.238-.217s.06.262.14.682l-.042.2.086.018a18.6,18.6,0,0,1,.417,4.466c-.077.688-.271,1.631-.4,2.557-.208,1.456-.265,2.867.5,3.176,1.256.506,8.633,1.191,9.884-.429a2.319,2.319,0,0,0,.363-2.426,2.456,2.456,0,0,0-.363-.619s-1.959-3.2-1.405-5.457a1.661,1.661,0,0,0-.235-1.295,66.55,66.55,0,0,1,1.688-10.586c1.256-4.728,3.9-15.094,1.956-21.908h0q-.11-.4-.25-.786a29.423,29.423,0,0,1-1.1-11.494,23.426,23.426,0,0,1,0-10.021c1.206-5.5,2.048-10.9,2.048-10.9a68.942,68.942,0,0,0,.083-11.726,2.925,2.925,0,0,0-.039-.3l.316-.071s-1.706-7.565-2.307-12.378c-.143-1.137-.327-2.575-.53-4.111a10.492,10.492,0,0,0,1.634-.408c5.415-1.867,7.121-18.755,7.121-18.755v-5.359S835.59,276.917,829.269,273.282ZM788.913,403.747c-.167-.083-.265-.14-.265-.14h0Z" transform="translate(-551.609 -174.431)" fill="url(#c)"/><path d="M860.474,566.45c2.349,6.755-.393,17.719-1.667,22.625a68.4,68.4,0,0,0-1.664,10.771,22.683,22.683,0,0,1-8.615-.2l2.057-10.083c-1.471-5.972,0-21.932,0-21.932a38.048,38.048,0,0,1-3.623-15.567c-.3-9.25-2.569-12.241-2.641-12.334h0c-4.7,2.447-10.67,28.686-10.67,28.686.488,6.362-.1,16.153-2.057,21.435a26.494,26.494,0,0,0-1.468,10.473,3.185,3.185,0,0,1-2.679.512c-2.8-.453-6.148-2.861-6.148-2.861s1.075-28.579,1.861-29.663,0-7.246,0-7.246l1.271-9.985s-.2-16.939,1.664-19.875c1.608-2.536,1.977-7,2.048-8.166v-.3l2.834-3.394s27.412-2.057,29.472,0a5.875,5.875,0,0,1,1,3.1,70.143,70.143,0,0,1-.083,11.685s-.822,5.385-2,10.866a23.853,23.853,0,0,0,0,9.988A29.9,29.9,0,0,0,860.474,566.45Z" transform="translate(-586.083 -370.092)" fill="#65617d"/><path d="M922.746,795.35c-1.224,1.617-8.419.932-9.646.429-.747-.3-.691-1.718-.488-3.168.128-.92.316-1.861.393-2.545a23.438,23.438,0,0,0-.6-5.338s1.614,1.715,2,0a1.868,1.868,0,0,1,1.4-1.328,3.656,3.656,0,0,1,2.542.158c1.271.554,3.391,1.73,3.013,3.319-.539,2.248,1.369,5.439,1.369,5.439a2.477,2.477,0,0,1,.357.613,2.349,2.349,0,0,1-.348,2.42Z" transform="translate(-650.07 -556.064)" fill="#a27772"/><path d="M922.914,817.449c-1.224,1.617-8.419.932-9.646.429-.747-.3-.691-1.718-.488-3.168a8.305,8.305,0,0,0,4.278.461,12.074,12.074,0,0,1,1.539-.048,35.788,35.788,0,0,0,4.674-.1A2.349,2.349,0,0,1,922.914,817.449Z" transform="translate(-650.237 -578.163)" opacity="0.1"/><path d="M848.144,614.157c.488,6.362-.1,16.153-2.057,21.434a26.5,26.5,0,0,0-1.468,10.473,3.185,3.185,0,0,1-2.679.512c.6-4.129,3.108-21.92,4.719-35.977a58.871,58.871,0,0,1,10.42-27.019l1.712,1.884C854.116,587.917,848.144,614.157,848.144,614.157Z" transform="translate(-600.579 -415.84)" opacity="0.1"/><path d="M890.191,312.937,889,318.811l-5.856,9.839-7.219-3.084s-9.824-10.28-3.647-11.747a5.465,5.465,0,0,0,2.048-.911,4.235,4.235,0,0,0,1.6-3.543,10.86,10.86,0,0,0-.994-4.21l12.628-3.965a20.27,20.27,0,0,0-.893,5.115c-.1,3.441,1.191,5.135,2.23,5.954A3.793,3.793,0,0,0,890.191,312.937Z" transform="translate(-620.453 -217.518)" fill="#fbbebe"/><path d="M898.617,301.19a20.27,20.27,0,0,0-.893,5.115,9.6,9.6,0,0,1-.735.783A9.991,9.991,0,0,1,887,309.365a10.859,10.859,0,0,0-1-4.209Z" transform="translate(-631.522 -217.518)" opacity="0.1"/><path d="M886.126,272.2a9.94,9.94,0,1,1-2.912-7.074,9.988,9.988,0,0,1,2.912,7.074Z" transform="translate(-617.581 -190.149)" fill="#fbbebe"/><path d="M890.191,339.028,889,344.9l-5.856,9.839-7.219-3.084s-9.824-10.28-3.647-11.747a5.465,5.465,0,0,0,2.048-.911c-1.113,3.06,3.483,9.428,3.483,9.428.536.789,1.762.3,1.762.3,2.962-.45,8.413-8.967,9.3-10.384A3.793,3.793,0,0,0,890.191,339.028Z" transform="translate(-620.453 -243.609)" opacity="0.1"/><path d="M877.649,522.441c-1.739.4-11.357,2.524-15,1.992-4.013-.6-11.816-.977-11.816-.977s-4.969.268-6.5-.432v-.3l2.834-3.394s27.412-2.057,29.472,0A5.848,5.848,0,0,1,877.649,522.441Z" transform="translate(-602.257 -370.078)" opacity="0.1"/><path d="M843.545,348.939s-5.165-7.145-3.218-9.943l-8.726,3.572s-5.251-.637-7.145,7.2a13.638,13.638,0,0,0-.324,3.977,11.767,11.767,0,0,1-1.438,5.954c-2.152,4.308-1.664,14.2,2.742,15.183s5.969.488,5.969.488-.6,17.916-3.132,19.973,6.49,1.566,6.49,1.566,7.8.393,11.819.979,15.272-2.057,15.272-2.057-1.664-7.538-2.254-12.334-1.962-15.013-1.962-15.013l9.985-13.528s1.762-8.175-4.406-11.8a69.705,69.705,0,0,0-8.487-4.51s-6.2,10.092-9.428,10.58C845.308,349.23,844.081,349.724,843.545,348.939Z" transform="translate(-586.192 -243.826)" fill="#6c63ff"/><path d="M853.254,382.74s-.1,3.233.491,4.5,2.742,8.336,2.742,8.336h-4.9s2.644-2.84,2.45-4.212S853.254,382.74,853.254,382.74Z" transform="translate(-607.356 -274.791)" opacity="0.1"/><path d="M869.052,432.261s-10.812-2.644-11.819-4.894-3.784-7.291-3.784-7.291l1.14-1.536,5.257,4.126s6.252,4.992,9.2,5.484S869.052,432.261,869.052,432.261Z" transform="translate(-608.662 -299.933)" fill="#fbbebe"/><path d="M869.052,432.261s-10.812-2.644-11.819-4.894-3.784-7.291-3.784-7.291l1.14-1.536,5.257,4.126s6.252,4.992,9.2,5.484S869.052,432.261,869.052,432.261Z" transform="translate(-608.662 -299.933)" opacity="0.05"/><path d="M891.182,421.726v5.865h-.941a27.414,27.414,0,0,0-13.318,3.45l-1.764.977-.473.265-3.036-6.847,2.84-2.545h.146a16.981,16.981,0,0,0,4.972-.11c1.209-.411,2.709-1.712,6.27-.8,1.753.45,3.254,2.414,4.954,1.8Z" transform="translate(-621.444 -302.125)" fill="#fbbebe"/><path d="M918.708,370.3l1.956,2.2v5.338s-1.664,16.838-6.948,18.7-14.724-1.078-14.724-1.078-2.438-6.46-1.3-6.847,10.077-2.751,10.077-2.751-.125-9.878,1.831-12.816c0,0-1.271-9.2,3.135-9.4S918.708,370.3,918.708,370.3Z" transform="translate(-639.521 -261.381)" opacity="0.1"/><path d="M919.712,370.3l1.959,2.2v5.338s-1.664,16.838-6.951,18.7S900,395.463,900,395.463s-2.438-6.46-1.295-6.847,10.077-2.751,10.077-2.751-.128-9.878,1.831-12.816c0,0-1.274-9.2,3.132-9.4S919.712,370.3,919.712,370.3Z" transform="translate(-640.227 -261.381)" fill="#6c63ff"/><path d="M888.2,276.36a3.935,3.935,0,0,0-.223-1.908,1.453,1.453,0,0,0-1.554-.893c-.837.2-1.191,1.286-2.018,1.548a1.613,1.613,0,0,1-1.786-.917,4.568,4.568,0,0,1-.339-2.132v-2.453a4.06,4.06,0,0,0-.578-2.551,4.505,4.505,0,0,0-3.358-1.215,2.849,2.849,0,0,0-1.917.771,2.467,2.467,0,0,1-2.016.717,1.736,1.736,0,0,1-1.405-1.215v-.03a9.985,9.985,0,1,1,14.843,13.254A26.917,26.917,0,0,0,888.2,276.36Z" transform="translate(-622.399 -190.065)" opacity="0.1"/><path d="M868.308,252.747a1.751,1.751,0,0,1-1.408-1.218c-.08-.316-.06-.652-.152-.965-.229-.771-1.051-1.17-1.6-1.756a3.934,3.934,0,0,1-.25-4.5,3.253,3.253,0,0,1,3.132-1.87c.792.137,1.489.7,2.28.753a4.6,4.6,0,0,0,2.182-.706,8.222,8.222,0,0,1,5.424-.482,3.126,3.126,0,0,1,1.489.753,13.02,13.02,0,0,1,.795,1.116c.911,1.161,2.545,1.39,4,1.652s3.1.84,3.572,2.239a5.851,5.851,0,0,1-.173,2.9.875.875,0,0,0,.039.6c.229.375.8.217,1.227.3.825.176,1.036,1.238,1.069,2.084q.051,1.447.077,2.9a3.689,3.689,0,0,1-.086,1.072,3.784,3.784,0,0,1-.831,1.349l-3.233,3.885c-1.435,1.721-2.956,3.727-2.679,5.954a1.387,1.387,0,0,1-1.709-.994,4.446,4.446,0,0,1,.107-2.206,27.053,27.053,0,0,0,.518-3.825,3.923,3.923,0,0,0-.223-1.905,1.453,1.453,0,0,0-1.554-.893c-.84.2-1.191,1.286-2.018,1.548a1.613,1.613,0,0,1-1.786-.917,4.555,4.555,0,0,1-.339-2.129v-2.456a4.06,4.06,0,0,0-.578-2.551,4.5,4.5,0,0,0-3.358-1.215,2.849,2.849,0,0,0-1.914.771A2.472,2.472,0,0,1,868.308,252.747Z" transform="translate(-616.292 -175.773)" fill="#7c5c5c"/><path d="M885.3,381.92l3.066,12.6S890.784,394.5,885.3,381.92Z" transform="translate(-631.03 -274.215)" opacity="0.1"/><path d="M913.862,374.85s-4.013,6.573-2.447,13.373l.747.054S910.828,385.13,913.862,374.85Z" transform="translate(-649.116 -269.25)" opacity="0.1"/><path d="M929,498.995s4.93-1.631,5.287,2.152C934.3,501.147,933.37,498.554,929,498.995Z" transform="translate(-661.721 -356.191)" opacity="0.1"/><path d="M861.308,426.81s-.979,6.847.783,9.595a21.472,21.472,0,0,1-8.615,1.176l-.6-10.771Z" transform="translate(-608.262 -305.741)" opacity="0.1"/><path d="M875.16,434.918l-.473.265-3.036-6.847,2.84-2.545h.146C874.591,426.129,873.8,432.015,875.16,434.918Z" transform="translate(-621.444 -305.025)" opacity="0.1"/><path d="M854.629,425.83s-.979,6.847.783,9.592A21.409,21.409,0,0,1,846.8,436.6L843.37,425.83Z" transform="translate(-601.583 -305.053)" fill="#6c63ff"/><path d="M797.983,790.591a2.218,2.218,0,0,1-1.9,1.941c-2.658.4-9.062,1.408-10.679,2.179-2.057.979-10.181.3-10.574-.685a1.554,1.554,0,0,1,.14-1.191,3.138,3.138,0,0,1,1.313-1.411,3.482,3.482,0,0,1,.6-.262c1.53-.509,4.421-1.593,5.2-2.73,0,0,3.605-3.153,4.632-4.855a2.352,2.352,0,0,1,1.881-1.173c.857-.039,1.813.393,2.206,2.271,0,0,4.695,2.679,5.954.33,0,0,.2,3.608.977,4.6h0A1.31,1.31,0,0,1,797.983,790.591Z" transform="translate(-553.404 -555.473)" fill="#a27772"/><path d="M797.983,807.578a2.218,2.218,0,0,1-1.9,1.941c-2.658.4-9.062,1.408-10.679,2.179-2.057.979-10.181.3-10.574-.685a1.554,1.554,0,0,1,.14-1.191,3.138,3.138,0,0,1,1.313-1.411c1.325.893,4.266,1.739,10.735.729,6.171-.965,9.229-1.908,10.717-2.551h0A1.31,1.31,0,0,1,797.983,807.578Z" transform="translate(-553.404 -572.46)" opacity="0.1"/><g transform="translate(248.013 70.606)" opacity="0.1"><path d="M942.415,266.791v-.048a8.767,8.767,0,0,0,.3-2.224,14.674,14.674,0,0,1-.3,1.786A1.082,1.082,0,0,0,942.415,266.791Z" transform="translate(-919.136 -262.371)"/><path d="M881.851,270.884a2.831,2.831,0,0,1,.241,1.119,3.377,3.377,0,0,0-.241-1.56,1.447,1.447,0,0,0-1.551-.893c-.839.2-1.191,1.286-2.021,1.548a1.617,1.617,0,0,1-1.786-.917,4.529,4.529,0,0,1-.339-2.132V265.6a4.06,4.06,0,0,0-.578-2.551,4.512,4.512,0,0,0-3.358-1.218,2.852,2.852,0,0,0-1.917.774,2.474,2.474,0,0,1-2.018.717,1.744,1.744,0,0,1-1.405-1.215c-.08-.316-.06-.655-.152-.968-.229-.768-1.051-1.17-1.6-1.753a3.206,3.206,0,0,1-.825-2.084,3.337,3.337,0,0,0,.825,2.51c.551.6,1.372.985,1.6,1.753.092.3.071.652.152.968a1.744,1.744,0,0,0,1.405,1.215,2.474,2.474,0,0,0,2.018-.717,2.852,2.852,0,0,1,1.917-.774,4.5,4.5,0,0,1,3.358,1.218,4.084,4.084,0,0,1,.578,2.551v2.453a4.505,4.505,0,0,0,.339,2.129,1.621,1.621,0,0,0,1.786.92c.822-.262,1.191-1.352,2.021-1.548A1.5,1.5,0,0,1,881.851,270.884Z" transform="translate(-864.285 -257.3)"/><path d="M934.39,292.384a3.763,3.763,0,0,1-.834,1.346l-3.233,3.885c-1.36,1.634-2.8,3.528-2.679,5.615.1-1.914,1.432-3.656,2.679-5.174l3.233-3.885a3.763,3.763,0,0,0,.834-1.346,3.714,3.714,0,0,0,.086-1.075,2.829,2.829,0,0,1-.086.634Z" transform="translate(-908.777 -281.494)"/><path d="M921.747,326.874a2.288,2.288,0,0,1-.1-.524,2.639,2.639,0,0,0,.1.965,1.381,1.381,0,0,0,1.709.991,4.2,4.2,0,0,1-.036-.429A1.384,1.384,0,0,1,921.747,326.874Z" transform="translate(-904.565 -305.794)"/></g><path d="M812.69,789.36s1.024,1.786,4.733.214" transform="translate(-580.037 -560.359)" opacity="0.1"/><path d="M918,790.82s3.2,3.766,7.228,1.235" transform="translate(-653.996 -561.385)" opacity="0.1"/><path d="M943.754,641.23s-2.26,1.411-2.331,2.218,1.167-.6,1.167-.6Z" transform="translate(-670.443 -456.328)" opacity="0.1"/><path d="M942.69,677.59a4.724,4.724,0,0,1-2.784,1.087c-1.691.074-1.548,2.277-.444,1.617A27.7,27.7,0,0,0,942.69,677.59Z" transform="translate(-668.487 -481.864)" opacity="0.1"/><path d="M949.065,682.34s-1.084,5.326-1.965,4.3" transform="translate(-674.433 -485.199)" opacity="0.1"/><path d="M242.786,404.5s6.8,1.867,10.077-.616,4.695-1.685,4.695-1.685,7.809-.432,8.452-2.277-2.995-8.55-2.995-8.55c-.259-.6-.637-1.352-.807-1.352l.036-2.828h0l1.131-11.834c2.611-6.7.048-15.346.048-15.346l-.467-2.146a5.43,5.43,0,0,1,.444-3.572l4.742-9.526a14.261,14.261,0,0,1,.893-1.828c.3-.545.694-1.218,1.191-2.024.146-.232.3-.473.464-.726.575-.893,1.271-1.905,2.114-3.072a25.141,25.141,0,0,0,3.775-9.229l.253.84h.057l.068.015h.113l.122.021h.045l1.459,18.565c.089,7.24,2.748,11.247,2.748,11.247l-.366,15.984c.5,3.849-.6,8.982-1.1,11.03l-1.149,2.593a3.117,3.117,0,0,0-1.694,2.358c-.226,1.914-2.242,6.04-2.242,6.04-.78.988-2.474,3.659-2.474,3.659s-.8,2.578-.3,3.543,4.626.866,4.626.866c4.719,1.045,8.336-1.488,8.106-3.233s.735-2.188.735-2.188c1.876-.6,1.694-1.867,1.694-1.867a11.682,11.682,0,0,0-1.42-7.6l-.3.688a10.469,10.469,0,0,1,.566-4.058l-.173.119-.054.033h-.018c.3-2.611,3.04-7.443,3.04-7.443,5.037-8.836,3.206-20.809,3.206-20.809l-.78-3.733-.045-1.408a47,47,0,0,1,.759-10.033c.271-1.465.551-3.233.765-5.183a45.808,45.808,0,0,1,2.584-10.172l.2-.036h.024c.274-.048.551-.1.831-.149h.054s.161-.869.3-2.349c.08-.944.146-2.14.146-3.516a39.555,39.555,0,0,0-1.878-12.238l.152-.217s.36-.488,1.018-1.334h0c1.209-1.536,3.09-3.87,5.409-6.5,4.153-4.736,2.932-9.526,2.932-9.526s-3.007-11.018-4.346-17.633a20.052,20.052,0,0,0-3.3-7.844,15.61,15.61,0,0,0,.417-3.179,11.616,11.616,0,0,0-.86-5.761,4.949,4.949,0,0,0-4.716-2.914,1.8,1.8,0,0,1-.845,0,1.286,1.286,0,0,1-.557-.485,7.307,7.307,0,0,1-.863-5.624c.357-1.917,1.09-3.751,1.417-5.674A7.026,7.026,0,0,0,289.9,237.2c-1.438-1.786-3.945-2.289-5.814-3.632-1.313-.944-2.3-2.3-3.683-3.135s-2.679-.518-4.183-.2c-2.527.533-4.93.777-7.32,1.864a19.5,19.5,0,0,0-6.38,4.641,6.055,6.055,0,0,0-1.423,2.245c-.6,1.968.569,4.064.324,6.1a12.069,12.069,0,0,1-1.7,3.989,5.169,5.169,0,0,0-.661,4.168c.834,2.108,3.552,2.554,5.528,3.677a1.688,1.688,0,0,1,.655.569c.488.851-.509,1.736-1.137,2.492a3.754,3.754,0,0,0-.744,1.512,5.394,5.394,0,0,0-3.236,3.906c-.67,3,.36,6.782,1.268,9.282-.991,5.57.3,7.767,1.247,8.61a4.778,4.778,0,0,1,1.655,3.257v.1c.063,1.012.17,2.021.313,3.028h0c-.033-.235-.066-.485-.083-.6-.777,1.438-2.257,5.112-3.09,11.292a33.935,33.935,0,0,1-.753,3.933,21.506,21.506,0,0,0-.631,7.032l.149,2a.631.631,0,0,1-.4-.134l1.045,1.914v3.23a11.908,11.908,0,0,1-.792,4.26c-.074.2-.155.393-.241.6a3.465,3.465,0,0,0-.351,1.753c-2.248,3.444-7.4,22.747-7.4,22.747-2.8,6.329.229,10.42.229,10.42s1.465,17.621,1.739,18.532.881,11.652.881,11.652h0v.854a2,2,0,0,0-.509-.146c-2.45-.137-3.114,3.733-3.114,3.733l-5.013,4.787s-2.289-.387-5.656,2.141S242.786,404.5,242.786,404.5Zm50.058-101.841-.015-.054-.137.08h0l-.057.033-.027.018h0l-2.31-8.154a13.539,13.539,0,0,1-.17-6.707l1.786-7.824h0v-1.881l5.677,15.129C297.956,295.343,294.583,300.282,292.845,302.664Z" transform="translate(-177.503 -167.448)" fill="url(#d)"/><path d="M383.914,557a46.885,46.885,0,0,0-2.876,10.926c-.211,1.929-.485,3.674-.753,5.12a46.791,46.791,0,0,0-.732,9.9l.045,1.39.744,3.683s1.786,11.828-3.147,20.541c0,0-2.923,5.219-3.013,7.69l-1.98.765-4-1.122s1.932-6.927,1.3-11.783l.36-15.778s-2.6-3.948-2.688-11.092l-1.527-19.607Z" transform="translate(-266.081 -397.173)" fill="#fdc2cc"/><path d="M304.762,547.62s-.491,7.645-4.272,12.914-4.585,7.556-4.585,7.556l-4.656,9.413a5.391,5.391,0,0,0-.438,3.522l.458,2.12s2.519,8.544-.045,15.156l-1.215,12.771h-7.1s-.6-10.613-.854-11.512-1.709-18.3-1.709-18.3-2.977-4.049-.226-10.3c0,0,6.207-23.384,7.868-22.98S304.762,547.62,304.762,547.62Z" transform="translate(-205.193 -390.586)" fill="#fdc2cc"/><g transform="translate(84.097 157.034)" opacity="0.1"><path d="M314.939,583.16l-.455-2.12a5.359,5.359,0,0,1,.435-3.537l4.656-9.422s.807-2.292,4.585-7.556c3.629-5.061,4.227-12.313,4.269-12.87l.723-.036s-.491,7.645-4.272,12.914-4.585,7.556-4.585,7.556l-4.656,9.413a5.391,5.391,0,0,0-.438,3.522l.458,2.12s2.519,8.544-.045,15.156L314.4,611.072h-.72l1.215-12.771C317.458,591.689,314.939,583.16,314.939,583.16Z" transform="translate(-313.68 -547.62)"/></g><path d="M387.948,616.263c.089-2.471,3.013-7.69,3.013-7.69,4.948-8.723,3.147-20.541,3.147-20.541l-.762-3.686-.045-1.39a46.792,46.792,0,0,1,.732-9.9c.265-1.447.539-3.191.75-5.12a46.877,46.877,0,0,1,2.867-10.9l.738-.03a46.885,46.885,0,0,0-2.876,10.926c-.211,1.929-.485,3.674-.753,5.12a46.791,46.791,0,0,0-.732,9.9l.045,1.39.744,3.683s1.786,11.828-3.147,20.541c0,0-2.923,5.219-3.013,7.69l-1.98.765-.417-.116Z" transform="translate(-280.555 -397.173)" opacity="0.1"/><path d="M373.5,753.038a3.441,3.441,0,0,0,3.275-.4,10.569,10.569,0,0,0-.268,5.936c.81,3.239-7.556-2.608-7.556-2.608l1.786-4.081A2.8,2.8,0,0,0,373.5,753.038Z" transform="translate(-268.399 -534.037)" fill="#d39999"/><path d="M374.135,753.2a3.343,3.343,0,0,0,2.658-.6,10.568,10.568,0,0,0-.268,5.936c.81,3.239-7.556-2.608-7.556-2.608l1.786-4.082A2.552,2.552,0,0,0,372.8,753C373.257,753.053,373.7,753.115,374.135,753.2Z" transform="translate(-268.413 -534.016)" opacity="0.1"/><path d="M289.32,433.61h3.495V413.78l-2.623-.47Z" transform="translate(-203.198 -290.264)" fill="#fdc2cc"/><path d="M289.32,433.61h3.495V413.78l-2.623-.47Z" transform="translate(-203.198 -290.264)" opacity="0.05"/><path d="M357.131,760.071a3.485,3.485,0,0,1,3.191,1.843l1.215.944.6-1.393a11.61,11.61,0,0,1,1.375,7.511s.179,1.256-1.664,1.843c0,0-.944.45-.72,2.158s-3.325,4.227-7.958,3.191c0,0-4.049.092-4.543-.854s.316-3.462.316-3.462,1.664-2.638,2.426-3.611c0,0,1.98-4.078,2.206-5.954S355.961,759.035,357.131,760.071Z" transform="translate(-254.011 -539.54)" fill="#7e5659"/><path d="M298.662,759.547l.036-2.8s-4.022,1.158-7.279-.152c0,0,.274,2.81-.179,3.194s1.506,4,1.506,4l2.188,2.292,3.763-1.369,1.021-3.215S298.93,759.547,298.662,759.547Z" transform="translate(-213.775 -537.352)" fill="#d39999"/><path d="M298.662,759.547l.036-2.8s-4.022,1.158-7.279-.152c0,0,.274,2.81-.179,3.194s1.506,4,1.506,4l2.188,2.292,3.763-1.369,1.021-3.215S298.93,759.547,298.662,759.547Z" transform="translate(-213.775 -537.352)" opacity="0.1"/><path d="M256.128,763.091s2.137.247,1.867,2.977.113,0,.113,0a7.828,7.828,0,0,1,3.081,2.2c.81,1.283,2.271-1.146,2.382-1.843s1.021-.985,1.021-.985,3.572,6.624,2.941,8.446-8.3,2.242-8.3,2.242-1.4-.786-4.611,1.664-9.893.6-9.893.6-5.442-2.271-2.135-4.763,5.552-2.114,5.552-2.114l4.924-4.745S253.722,762.955,256.128,763.091Z" transform="translate(-178.91 -541.909)" fill="#7e5659"/><path d="M326.387,235.828c1.361.825,2.328,2.164,3.617,3.1,1.834,1.325,4.3,1.819,5.707,3.587a7.009,7.009,0,0,1,1.024,5.51c-.322,1.9-1.042,3.712-1.39,5.606a7.259,7.259,0,0,0,.848,5.552,1.259,1.259,0,0,0,.545.479,1.786,1.786,0,0,0,.831,0,4.861,4.861,0,0,1,4.632,2.879,11.529,11.529,0,0,1,.842,5.689,11.758,11.758,0,0,1-.95,4.635c-1.191,2.429-3.668,3.93-6.112,5.079a47.348,47.348,0,0,1-4.879,1.971,7.343,7.343,0,0,1-3.537.533c-2.033-.351-3.474-2.2-5.4-2.923a11.375,11.375,0,0,0-5.016-.232c-1.435.125-3.075.122-4.064-.926-1.268-1.346-.7-3.516-.048-5.248a3.736,3.736,0,0,1-2.644-6.109c.613-.747,1.593-1.62,1.113-2.462a1.631,1.631,0,0,0-.643-.56c-1.938-1.107-4.608-1.551-5.424-3.629a5.118,5.118,0,0,1,.646-4.12,12.214,12.214,0,0,0,1.67-3.939c.238-2.012-.893-4.081-.319-6.023a6.037,6.037,0,0,1,1.4-2.221,19.16,19.16,0,0,1,6.252-4.582c2.349-1.075,4.7-1.316,7.186-1.84C323.758,235.316,324.991,234.982,326.387,235.828Z" transform="translate(-223.641 -171.239)" fill="#865a61"/><path d="M315.737,337.752s-5.7-.3-6.773,4.558,2.337,11.81,2.337,11.81Z" transform="translate(-226.123 -243.193)" fill="#fdc2cc"/><path d="M315.737,337.752s-5.7-.3-6.773,4.558,2.337,11.81,2.337,11.81Z" transform="translate(-226.123 -243.193)" opacity="0.05"/><path d="M320,324.431l2.158,1.709,10.071.45,6.287-4.317,6.395-10.973a7.905,7.905,0,0,1-6.079-6.222,13.623,13.623,0,0,1-.125-5.2s-10.253-5.308-8.994,2.977a11.255,11.255,0,0,1,.1,3.078c-.6,4.853-5.305,3.939-5.305,3.939L322.7,312.66l-2.069,6.847Z" transform="translate(-234.021 -215.422)" fill="#fdc2cc"/><path d="M352.407,302.84a11.253,11.253,0,0,1,.1,3.078,9.089,9.089,0,0,0,9.023-.845,13.623,13.623,0,0,1-.125-5.2S351.148,294.567,352.407,302.84Z" transform="translate(-256.705 -215.417)" opacity="0.1"/><circle cx="9.083" cy="9.083" r="9.083" transform="translate(90.492 72.797)" fill="#fdc2cc"/><path d="M321.909,349.832c.22,0,.438.033.655.054,1.191.119,6.165.387,9-3,3.171-3.787,7.392-8.464,7.565-8.654l4.3,1.3s-3.4-1.209-5.656,5.115a6.55,6.55,0,0,0,2.212,7.535,6.806,6.806,0,0,0,2.81,1.191.015.015,0,0,1,0,.015v2.775h0l-1.756,7.74a13.417,13.417,0,0,0,.167,6.624l2.679,9.47c-.4.28-17.029,11.587-28.133,3.778h0c.042-.339,1.414-11.453.461-16.892a37.561,37.561,0,0,1-.5-4.2v-.1a4.739,4.739,0,0,0-1.628-3.215c-1-.893-2.355-3.275-1.015-9.568a23.118,23.118,0,0,1,1.488-4.534l3.724-8.416h0l3.432.068v.024c-.3.369-4.278,5.341-4.71,8.544C316.58,348.522,316.059,349.457,321.909,349.832Z" transform="translate(-228.759 -242.555)" fill="#6c63ff"/><path d="M386.755,347.033s3.358,2.879,4.677,9.413,4.257,17.389,4.257,17.389a11.093,11.093,0,0,1-2.879,9.413c-4.07,4.677-6.776,8.336-6.776,8.336l-2.679,3.948a3.361,3.361,0,0,1-1.929,1.363,6.516,6.516,0,0,1-4.722-.336,2.751,2.751,0,0,1-1.191-3.474l.6-1.378s-5.516,3.477-6,1.557,6.415-3.837,6.415-3.837,5.7-.959,6.847-3.656c0,0,6.115-7.856,5.635-10.554l-5.906-15.829s-7.386-.976-4.867-9.273S386.755,347.033,386.755,347.033Z" transform="translate(-269.199 -248.577)" fill="#fdc2cc"/><path d="M307.32,498.834s13.492,2.7,16.671,2.337l.342,1.14s5.12,1.146,16.7-.691q1.134-.179,2.355-.4l.271-.048s.158-.857.283-2.319a40.217,40.217,0,0,0-1.962-16.326l-1.947-6s-12.033,7.213-20,6.549c-.712-.06-1.417-.116-2.129-.14-1.634-.062-4.168,0-5.814-1.319l-3.453.6v9.824a11.771,11.771,0,0,1-.78,4.2c-.074.2-.152.39-.238.6A3.126,3.126,0,0,0,307.32,498.834Z" transform="translate(-225.081 -340.659)" fill="#65617d"/><path d="M364.58,551.912v3.057s5.894,1.319,19.324-1.14c0,0,.158-.857.283-2.319C380.066,552.171,368.7,553.761,364.58,551.912Z" transform="translate(-265.329 -393.318)" opacity="0.1"/><path d="M307.324,545.368s13.492,2.7,16.671,2.337l.342,1.14v-3.057c-1.536.637-12.5-2.007-16.478-3-.074.2-.152.39-.238.6A3.126,3.126,0,0,0,307.324,545.368Z" transform="translate(-225.084 -387.194)" opacity="0.1"/><path d="M417.31,535.477l1,6.2q1.134-.179,2.355-.4c-.313-1.813-.994-5.954-.807-6.642L418.6,533.56Z" transform="translate(-302.362 -380.711)" fill="#65617d"/><path d="M417.78,535.027l1,6.207q1.134-.182,2.355-.4c-.313-1.813-.994-5.954-.807-6.642l-1.259-1.081Z" transform="translate(-302.692 -380.395)" opacity="0.1"/><g transform="translate(86.428 135.862)" opacity="0.05"><path d="M329.31,495.079c-.709-.06-1.417-.116-2.129-.14-1.59-.06-4.016,0-5.671-1.218l.578-.1c1.655,1.313,4.168,1.256,5.814,1.319.711.024,1.417.08,2.129.14.232.021.47.033.712.039A13.354,13.354,0,0,1,329.31,495.079Z" transform="translate(-321.51 -488.523)"/><path d="M391.3,501.6q1.134-.179,2.355-.4l.274-.051s.158-.857.28-2.319A40.112,40.112,0,0,0,392.25,482.5l-1.834-5.656c.39-.22.6-.348.6-.348l1.947,6a40.217,40.217,0,0,1,1.962,16.326c-.125,1.462-.283,2.319-.283,2.319l-.271.051q-1.218.22-2.355.4a74.155,74.155,0,0,1-12.131,1.042A76.509,76.509,0,0,0,391.3,501.6Z" transform="translate(-362.503 -476.5)"/><path d="M360.087,559.3v.033H359.7Q359.92,559.318,360.087,559.3Z" transform="translate(-348.331 -534.65)"/></g><ellipse cx="0.509" cy="1.048" rx="0.509" ry="1.048" transform="translate(116.115 153.828)" fill="#d39999"/><path d="M310.456,442.789c.822-6.1,2.271-9.729,3.037-11.149.03.194.107.822.143,1.015a29.476,29.476,0,0,1,.066,3.153l-.762,13.8,1.021,4.317c.959,3.418-2.593.717-2.593.717a2.114,2.114,0,0,1-2.084,1.441l-.185-2.477a21.393,21.393,0,0,1,.619-6.945A33.085,33.085,0,0,0,310.456,442.789Z" transform="translate(-226.323 -309.133)" fill="#fdc2cc"/><path d="M310.456,442.789c.822-6.1,2.271-9.729,3.037-11.149.03.194.107.822.143,1.015a29.476,29.476,0,0,1,.066,3.153l-.762,13.8,1.021,4.317c.959,3.418-2.593.717-2.593.717a2.114,2.114,0,0,1-2.084,1.441l-.185-2.477a21.393,21.393,0,0,1,.619-6.945A33.085,33.085,0,0,0,310.456,442.789Z" transform="translate(-226.323 -309.133)" opacity="0.05"/><path d="M388.605,479.675c-.646.837-1,1.316-1,1.316l-2.679,3.945A3.346,3.346,0,0,1,383,486.3a6.5,6.5,0,0,1-4.722-.336,2.745,2.745,0,0,1-1.191-3.471l.6-1.381s-5.516,3.477-6,1.56,6.415-3.837,6.415-3.837,5.7-.959,6.847-3.659c0,0,.5-.637,1.191-1.614" transform="translate(-270.302 -338.574)" fill="#fdc2cc"/><path d="M394.815,506.014s-6.523-.634-8.589-4.364l-.947,3.081s6.847,4.727,8.41,4.114Z" transform="translate(-279.867 -358.301)" fill="#65617d"/><path d="M394.042,505.907s-6.52-.634-8.589-4.367l-.944,3.072s6.847,4.728,8.407,4.114Z" transform="translate(-279.326 -358.224)" opacity="0.1"/><path d="M311.133,510.46s-2.283.81-2.733.36l1.027,1.89,1.941-1.488Z" transform="translate(-225.874 -364.488)" fill="#65617d"/><path d="M311.133,510.46s-2.283.81-2.733.36l1.027,1.89,1.941-1.488Z" transform="translate(-225.874 -364.488)" opacity="0.1"/><path d="M331.208,523.414V519.47l-.938,4.04Z" transform="translate(-231.957 -364.82)" opacity="0.1"/><path d="M347.041,258.909a3.5,3.5,0,0,1-2.447,1.289,19.286,19.286,0,0,1-2.843,0,7.131,7.131,0,0,0-4.29,1.081,10.907,10.907,0,0,0-1.968,2.084c-1.84,2.248-4.394,4.352-7.294,4.117a1.891,1.891,0,0,1-1.355-.572,2.173,2.173,0,0,1-.345-1.232,28.174,28.174,0,0,1,.176-5.555,11.712,11.712,0,0,1,.84-3.313,11.312,11.312,0,0,1,2.018-2.882,12.345,12.345,0,0,1,3.522-2.822,6.317,6.317,0,0,1,4.406-.569c1.736.473,3.087,1.831,4.742,2.53C344.094,253.86,349.113,255.982,347.041,258.909Z" transform="translate(-238.541 -181.825)" opacity="0.1"/><path d="M347.041,257.692a3.5,3.5,0,0,1-2.447,1.289,19.277,19.277,0,0,1-2.843,0,7.107,7.107,0,0,0-4.29,1.078,10.906,10.906,0,0,0-1.968,2.084c-1.84,2.248-4.394,4.352-7.294,4.117a1.879,1.879,0,0,1-1.355-.572,2.165,2.165,0,0,1-.345-1.232,28.174,28.174,0,0,1,.176-5.555,11.712,11.712,0,0,1,.84-3.313,11.235,11.235,0,0,1,2.018-2.879,12.3,12.3,0,0,1,3.522-2.825,6.317,6.317,0,0,1,4.406-.569c1.736.473,3.087,1.831,4.742,2.53C344.094,252.643,349.113,254.759,347.041,257.692Z" transform="translate(-238.541 -180.968)" fill="#865a61"/><path d="M291.668,473.47l-.024,1.087-.244-1.039Z" transform="translate(-204.659 -332.515)" fill="#fdc2cc"/><path d="M291.668,473.47l-.024,1.087-.244-1.039Z" transform="translate(-204.659 -332.515)" opacity="0.05"/><g transform="translate(108.361 97.092)" opacity="0.05"><path d="M396.79,350.146c-2.522,8.3,4.829,9.27,4.829,9.27l5.906,15.829c.479,2.7-5.638,10.553-5.638,10.553a5.232,5.232,0,0,1-2.65,2.337,4.15,4.15,0,0,0,1.572-1.727s6.115-7.853,5.635-10.551l-5.906-15.832s-7.347-.973-4.829-9.27c.842-2.772,2.084-4.034,3.34-4.486A7.643,7.643,0,0,0,396.79,350.146Z" transform="translate(-395.184 -346.27)"/></g><g transform="translate(83.769 94.282)" opacity="0.1"><path d="M401,384.61a6.2,6.2,0,0,0,1.191,1.128,6.767,6.767,0,0,0,2.81,1.191v.313a6.746,6.746,0,0,1-2.548-1.128A6.177,6.177,0,0,1,401,384.61Z" transform="translate(-374.676 -370.386)"/><path d="M321.773,418.321v.1a38.451,38.451,0,0,0,.512,4.218c.893,5.132-.277,15.323-.444,16.731-.1-.062-.191-.122-.3-.191.045-.339,1.417-11.453.464-16.889a37.725,37.725,0,0,1-.5-4.2v-.1a4.594,4.594,0,0,0-.8-2.277A4.629,4.629,0,0,1,321.773,418.321Z" transform="translate(-318.289 -392.227)"/><path d="M321.542,337.238l-2.912-.057a.015.015,0,0,0-.015,0l-3.721,8.413a23.193,23.193,0,0,0-1.488,4.534c-1.084,5.091-.4,7.627.426,8.88-.932-1.1-1.893-3.6-.694-9.229a22.949,22.949,0,0,1,1.474-4.537l3.748-8.413h0l3.432.068v.021C321.765,336.955,321.673,337.068,321.542,337.238Z" transform="translate(-312.577 -336.83)"/><path d="M416.39,345.87l.051.015Z" transform="translate(-385.485 -343.179)"/><path d="M353.561,342.788l-2.917-.878h-.015c-.173.191-4.391,4.867-7.562,8.654-2.834,3.385-7.8,3.12-9,3-.217-.024-.438-.042-.655-.057-3.254-.208-4.534-.6-4.963-1.417.61.6,1.953.893,4.692,1.06.22,0,.438.033.655.054,1.191.119,6.165.384,9-3,3.171-3.79,7.392-8.467,7.565-8.657h0l4.245,1.286a2.652,2.652,0,0,0-1.045-.048Z" transform="translate(-323.725 -340.145)"/></g><path d="M285.2,776.12s-4.108,1.122-4.9-.64" transform="translate(-206.14 -550.612)" opacity="0.1"/><path d="M370.545,773.213s-4.763,1.229-5.865-.673" transform="translate(-265.4 -548.547)" opacity="0.1"/><path d="M539.139,746.144c.068-.6.167-1.191.274-1.786a12.45,12.45,0,0,0-.6-6.037h0c-.11-.313-.191-.488-.191-.488-1.9-.518-9.372,5.281-12.1,7.466-.944,0-1.968.042-3.087.116-.488.036-.976.048-1.465.039h-1.786c-2.528-2.036-10.351-8.16-12.3-7.63,0,0-.08.176-.191.488h0a12.233,12.233,0,0,0-.61,6.037c.107.6.205,1.191.274,1.786a8.547,8.547,0,0,0,2.679,5.51,36.114,36.114,0,0,0,3.245,9.637,6.9,6.9,0,0,0,.417,1.361c-.506,1.953-1.09,4.5-.923,5.359,0,0-2.644-.64-2.911,2.542v.1c-.956.438-2.149,1.441-.807,3.543a1.379,1.379,0,0,0,.691.563c.238.083.47.083.447-.25l1.652,1.861s2.995.345,3.031-1.393l.176.027c.4.06.822.11,1.253.155l.208.688s-2.248-.048-1.634,1.337c0,0,.566.524.759.333,0,0-.3.908.875.908,0,0,1.259.667,1.75.191s1.509-1.191,1.6-1.489c.027-.08.039-.786.045-1.762h.193c2.51.06,5.174-.021,7.6-.152h.2c0,1.057.015,1.837.042,1.92.1.3,1.119,1,1.608,1.489s1.747-.191,1.747-.191c1.167,0,.875-.908.875-.908.2.191.762-.333.762-.333.613-1.384-1.637-1.337-1.637-1.337l.268-.893,1.241-.1.2-.018c-.119,1.89,3.028,1.527,3.028,1.527l1.655-1.861c-.027.333.205.333.444.25a1.366,1.366,0,0,0,.67-.569c2.027-3.171-1.718-3.843-1.718-3.843a1.841,1.841,0,0,0-.354-.057.61.61,0,0,1,.015-.164h0a6.531,6.531,0,0,0,.024-1.256,2.763,2.763,0,0,0-2.23-1.622c-.762-.1-.777-3.6-.7-6.022a6.931,6.931,0,0,0,.119-1.381,7.289,7.289,0,0,0-.3-2.212,28.366,28.366,0,0,0,2.813-5.954A8.661,8.661,0,0,0,539.139,746.144Z" transform="translate(-365.309 -524.143)" fill="url(#e)"/><path d="M544.223,821.133h0c-.119,1.649-.438,4.3-.438,4.3s-1.325.161-3.373.345l-1.39.119c-1.066.086-2.263.17-3.528.241-2.337.128-4.9.208-7.323.149-1.209-.027-2.382-.089-3.468-.2-.485-.048-.956-.1-1.4-.17-2.775-.414-4.763-1.206-4.933-2.6a8.037,8.037,0,0,1-.063-1.786c.259-3.126,2.8-2.495,2.8-2.495-.164-.863.453-3.546.953-5.487.316-1.224.6-2.152.6-2.152l17.9-1.191h.06a.875.875,0,0,1,.875.92c-.107,2.146-.259,7.061.619,7.172a2.7,2.7,0,0,1,2.152,1.593A6.681,6.681,0,0,1,544.223,821.133Z" transform="translate(-373.274 -575.002)" fill="#6c63ff"/><path d="M522.4,748.519s-6.749,8.124-10,5.874c-.077-.054-.152-.107-.223-.164a8.281,8.281,0,0,1-2.912-5.677c-.065-.6-.161-1.17-.265-1.75a12.155,12.155,0,0,1,.6-5.927h0c.107-.3.182-.479.182-.479C512.026,739.769,522.4,748.519,522.4,748.519Z" transform="translate(-366.653 -525.949)" fill="#6c63ff"/><path d="M518.74,750.475s-2.126,1.488-5.123,3.936a10.825,10.825,0,0,1-1.489,1.024,8.281,8.281,0,0,1-2.911-5.677c-.065-.6-.161-1.17-.265-1.75a12.155,12.155,0,0,1,.6-5.927h0C513.751,742.372,518.74,750.475,518.74,750.475Z" transform="translate(-366.618 -527.155)" fill="#6c63ff"/><path d="M518.74,750.475s-2.126,1.488-5.123,3.936a10.825,10.825,0,0,1-1.489,1.024,8.281,8.281,0,0,1-2.911-5.677c-.065-.6-.161-1.17-.265-1.75a12.155,12.155,0,0,1,.6-5.927h0C513.751,742.372,518.74,750.475,518.74,750.475Z" transform="translate(-366.618 -527.155)" fill="#fff" opacity="0.5"/><path d="M521.95,757.02s-1.134.8-2.736,2.1a5.762,5.762,0,0,1-.786.545,4.382,4.382,0,0,1-1.554-3.028c-.033-.316-.083-.625-.14-.938a6.508,6.508,0,0,1,.33-3.162h0C519.288,752.695,521.95,757.02,521.95,757.02Z" transform="translate(-372.141 -534.501)" opacity="0.1"/><path d="M569.05,748.519s6.749,8.124,10,5.874c.074-.054.152-.107.223-.164a8.281,8.281,0,0,0,2.911-5.677c.065-.6.161-1.17.262-1.75a12.119,12.119,0,0,0-.6-5.927h0c-.107-.3-.185-.479-.185-.479C579.425,739.769,569.05,748.519,569.05,748.519Z" transform="translate(-408.928 -525.949)" fill="#6c63ff"/><path d="M581.22,750.475s2.129,1.488,5.126,3.936a10.821,10.821,0,0,0,1.474,1.024,8.281,8.281,0,0,0,2.911-5.677c.065-.6.161-1.17.262-1.75a12.118,12.118,0,0,0-.6-5.927h0C586.215,742.372,581.22,750.475,581.22,750.475Z" transform="translate(-417.475 -527.155)" fill="#6c63ff"/><path d="M581.22,750.475s2.129,1.488,5.126,3.936a10.821,10.821,0,0,0,1.474,1.024,8.281,8.281,0,0,0,2.911-5.677c.065-.6.161-1.17.262-1.75a12.118,12.118,0,0,0-.6-5.927h0C586.215,742.372,581.22,750.475,581.22,750.475Z" transform="translate(-417.475 -527.155)" fill="#fff" opacity="0.5"/><path d="M589.05,757.05s1.128.8,2.718,2.084a5.452,5.452,0,0,0,.783.542,4.4,4.4,0,0,0,1.545-3.01c.033-.3.083-.622.14-.932a6.52,6.52,0,0,0-.313-3.144h0C591.7,752.751,589.05,757.05,589.05,757.05Z" transform="translate(-422.974 -534.536)" opacity="0.1"/><path d="M549.475,810.23a16.169,16.169,0,0,1-2.584,3.293c-2.679,2.382-14.248,1.435-15,1.313-.158-.027-.485-.494-.893-1.253.316-1.224.6-2.152.6-2.152Z" transform="translate(-382.206 -575.016)" opacity="0.1"/><path d="M531.59,765.194c-.47.033-.941.045-1.414.036-2.414-.042-10.548.066-11.45,3.349-1.063,3.87,3.689,14.233,4.436,14.358s12.313,1.063,15-1.313,6.186-9.824,6-10.5C544.162,771.124,547.5,764.092,531.59,765.194Z" transform="translate(-373.478 -543.305)" fill="#6c63ff"/><path d="M539.079,786.427a8.54,8.54,0,0,0-8.746,4.942,7.145,7.145,0,0,0,.527,7.2c.929,1.307,2.292,2.28,4.189,1.488C539.264,798.323,539.079,786.427,539.079,786.427Z" transform="translate(-381.223 -558.263)" opacity="0.1"/><path d="M538.449,785.167a8.54,8.54,0,0,0-8.746,4.942,7.145,7.145,0,0,0,.527,7.2c.929,1.307,2.292,2.28,4.189,1.488C538.634,797.063,538.449,785.167,538.449,785.167Z" transform="translate(-380.781 -557.378)" opacity="0.1"/><path d="M538.449,785.8a8.54,8.54,0,0,0-8.746,4.942,7.145,7.145,0,0,0,.527,7.2c.929,1.307,2.292,2.28,4.189,1.489C538.634,797.693,538.449,785.8,538.449,785.8Z" transform="translate(-380.781 -557.821)" fill="#6c63ff"/><path d="M538.449,785.8a8.54,8.54,0,0,0-8.746,4.942,7.145,7.145,0,0,0,.527,7.2c.929,1.307,2.292,2.28,4.189,1.489C538.634,797.693,538.449,785.8,538.449,785.8Z" transform="translate(-380.781 -557.821)" fill="#fff" opacity="0.5"/><path d="M537.891,803.13s-.813.75-.5.938S537.891,803.13,537.891,803.13Z" transform="translate(-386.644 -570.03)" fill="#3f2b3b"/><path d="M541.611,806.35s-.444.979-.128,1.087.5-.7.5-.7Z" transform="translate(-389.488 -572.292)" fill="#3f2b3b"/><path d="M535.134,811.32s-.435,1.155,0,1.155S535.134,811.32,535.134,811.32Z" transform="translate(-384.974 -575.782)" fill="#3f2b3b"/><path d="M533.78,821.71a3.292,3.292,0,0,0,3.132,2.063" transform="translate(-384.158 -583.079)" fill="none" stroke="#3f2b3b" stroke-miterlimit="10" stroke-width="1"/><path d="M540.61,823.91a1.567,1.567,0,0,0,1.873.25" transform="translate(-388.955 -584.624)" fill="none" stroke="#3f2b3b" stroke-miterlimit="10" stroke-width="1"/><path d="M564,786.427a8.54,8.54,0,0,1,8.746,4.942,7.145,7.145,0,0,1-.527,7.2c-.926,1.307-2.292,2.28-4.189,1.488C563.8,798.323,564,786.427,564,786.427Z" transform="translate(-405.379 -558.263)" opacity="0.1"/><path d="M564.588,785.167a8.54,8.54,0,0,1,8.746,4.942,7.145,7.145,0,0,1-.527,7.2c-.926,1.307-2.292,2.28-4.189,1.488C564.412,797.063,564.588,785.167,564.588,785.167Z" transform="translate(-405.794 -557.378)" opacity="0.1"/><path d="M564.588,785.8a8.54,8.54,0,0,1,8.746,4.942,7.145,7.145,0,0,1-.527,7.2c-.926,1.307-2.292,2.28-4.189,1.489C564.412,797.693,564.588,785.8,564.588,785.8Z" transform="translate(-405.794 -557.821)" fill="#6c63ff"/><path d="M564.588,785.8a8.54,8.54,0,0,1,8.746,4.942,7.145,7.145,0,0,1-.527,7.2c-.926,1.307-2.292,2.28-4.189,1.489C564.412,797.693,564.588,785.8,564.588,785.8Z" transform="translate(-405.794 -557.821)" fill="#fff" opacity="0.5"/><path d="M586.16,803.13s.813.75.5.938S586.16,803.13,586.16,803.13Z" transform="translate(-420.945 -570.03)" fill="#3f2b3b"/><path d="M582.335,806.35s.444.979.128,1.087-.5-.7-.5-.7Z" transform="translate(-417.995 -572.292)" fill="#3f2b3b"/><path d="M589.367,811.32s.432,1.155,0,1.155S589.367,811.32,589.367,811.32Z" transform="translate(-423.063 -575.782)" fill="#3f2b3b"/><path d="M584.232,821.71a3.292,3.292,0,0,1-3.132,2.063" transform="translate(-417.391 -583.079)" fill="none" stroke="#3f2b3b" stroke-miterlimit="10" stroke-width="1"/><path d="M580.375,823.91a1.57,1.57,0,0,1-1.875.25" transform="translate(-415.565 -584.624)" fill="none" stroke="#3f2b3b" stroke-miterlimit="10" stroke-width="1"/><path d="M553.2,841.518a8.645,8.645,0,0,1,6.186,0Z" transform="translate(-397.797 -596.575)" fill="#3f2b3b"/><path d="M523.3,851.6c-2.775-.414-4.763-1.206-4.933-2.6a8.037,8.037,0,0,1-.063-1.786,4.006,4.006,0,0,1,1.06-.387,4.757,4.757,0,0,1,2.438.331c1.313.375,1.218,1.92,1.489,3.936a1.663,1.663,0,0,1,.009.5Z" transform="translate(-373.274 -600.681)" opacity="0.1"/><path d="M516.018,847.49s-3.608.661-1.655,3.775a1.331,1.331,0,0,0,.667.551c.229.08.45.08.426-.247l1.6,1.828s3.185.375,2.906-1.64-.188-3.572-1.488-3.936A4.926,4.926,0,0,0,516.018,847.49Z" transform="translate(-370.115 -601.143)" fill="#6c63ff"/><path d="M524.18,854.67s.765,1.747,1.828.28" transform="translate(-377.416 -606.227)" fill="none" stroke="#3f2b3b" stroke-miterlimit="10" stroke-width="1"/><path d="M518.28,857s.4,1.655,1.9.423" transform="translate(-373.273 -607.863)" fill="none" stroke="#3f2b3b" stroke-miterlimit="10" stroke-width="1"/><path d="M596.41,846.83h0c-.119,1.649-.438,4.3-.438,4.3s-1.325.161-3.373.345a1.723,1.723,0,0,1,0-.345c.28-2.015.188-3.572,1.489-3.936A5.724,5.724,0,0,1,596.41,846.83Z" transform="translate(-425.461 -600.699)" opacity="0.1"/><path d="M597.194,847.49s3.611.661,1.658,3.775a1.343,1.343,0,0,1-.667.551c-.229.08-.453.08-.429-.247l-1.593,1.828s-3.188.375-2.906-1.64.188-3.572,1.488-3.936A4.923,4.923,0,0,1,597.194,847.49Z" transform="translate(-425.917 -601.143)" fill="#6c63ff"/><path d="M599.328,854.67s-.768,1.747-1.828.28" transform="translate(-428.909 -606.227)" fill="none" stroke="#3f2b3b" stroke-miterlimit="10" stroke-width="1"/><path d="M605.059,857s-.4,1.655-1.9.423" transform="translate(-432.884 -607.863)" fill="none" stroke="#3f2b3b" stroke-miterlimit="10" stroke-width="1"/><path d="M540.537,848.3c-1.209-.027-2.382-.089-3.468-.2l-1.081-3.638a2.362,2.362,0,0,1-.1-.664,2.316,2.316,0,0,1,4.629-.015C540.531,845.206,540.543,847,540.537,848.3Z" transform="translate(-385.64 -597.021)" opacity="0.1"/><path d="M534.639,844.283l1.274,4.293s-2.167-.048-1.575,1.313c0,0,.545.515.732.327,0,0-.283.893.843.893,0,0,1.215.658,1.685.188s1.456-1.173,1.551-1.453c.06-.185.042-3.775.021-6.252a2.31,2.31,0,0,0-2.313-2.292h0a2.313,2.313,0,0,0-2.218,2.983Z" transform="translate(-384.478 -596.837)" fill="#6c63ff"/><path d="M539.973,869.47s-.947.893-.447,1.42" transform="translate(-388.091 -616.621)" fill="none" stroke="#3f2b3b" stroke-miterlimit="10" stroke-width="1"/><path d="M537.935,867.56a1.286,1.286,0,0,0-.875,1.1" transform="translate(-386.462 -615.279)" fill="none" stroke="#3f2b3b" stroke-miterlimit="10" stroke-width="1"/><path d="M580.782,843.616a2.354,2.354,0,0,1-.1.664l-1.009,3.444c-1.066.086-2.263.17-3.528.241,0-1.286,0-3,.021-4.364a2.313,2.313,0,1,1,4.626.015Z" transform="translate(-413.915 -596.833)" opacity="0.1"/><path d="M581.271,844.283,580,848.576s2.17-.048,1.578,1.313c0,0-.545.515-.732.327,0,0,.28.893-.846.893,0,0-1.215.658-1.685.188s-1.453-1.173-1.548-1.453c-.06-.185-.042-3.775-.021-6.252a2.31,2.31,0,0,1,2.313-2.292h0a2.313,2.313,0,0,1,2.215,2.983Z" transform="translate(-414.318 -596.837)" fill="#6c63ff"/><path d="M586.23,869.47s.947.893.447,1.42" transform="translate(-420.994 -616.621)" fill="none" stroke="#3f2b3b" stroke-miterlimit="10" stroke-width="1"/><path d="M587.63,867.56a1.286,1.286,0,0,1,.875,1.1" transform="translate(-421.977 -615.279)" fill="none" stroke="#3f2b3b" stroke-miterlimit="10" stroke-width="1"/><path d="M550.084,782.768s-4.409-.14-4.549,3.275,6.889,1.968,6.889,1.968,2.953-.4,2.438-2.471S553.272,782.956,550.084,782.768Z" transform="translate(-392.413 -555.729)" opacity="0.1"/><path d="M550.084,781.508s-4.409-.14-4.549,3.275,6.889,1.968,6.889,1.968,2.953-.4,2.438-2.471S553.272,781.7,550.084,781.508Z" transform="translate(-392.413 -554.845)" opacity="0.1"/><path d="M550.084,782.138s-4.409-.14-4.549,3.275,6.889,1.968,6.889,1.968,2.953-.4,2.438-2.471S553.272,782.326,550.084,782.138Z" transform="translate(-392.413 -555.287)" fill="#3f2b3b"/><path d="M527.78,839.92s1.489.53,1.786,1.545" transform="translate(-379.945 -595.868)" opacity="0.1"/><path d="M595.954,837.4s-1.057.444-.982,2.3" transform="translate(-427.13 -594.098)" opacity="0.1"/><ellipse cx="0.69" cy="1.144" rx="0.69" ry="1.144" transform="translate(147.293 251.143) rotate(-29.887)" fill="#6c63ff"/><ellipse cx="1.14" cy="0.688" rx="1.14" ry="0.688" transform="translate(168.246 251.412) rotate(-60)" fill="#6c63ff"/><ellipse cx="0.69" cy="1.144" rx="0.69" ry="1.144" transform="translate(147.293 251.143) rotate(-29.887)" fill="#fff" opacity="0.5"/><ellipse cx="1.14" cy="0.688" rx="1.14" ry="0.688" transform="translate(168.246 251.412) rotate(-60)" fill="#fff" opacity="0.5"/><ellipse cx="8.017" cy="1.355" rx="8.017" ry="1.355" transform="translate(49.311 211.82)" fill="#6c63ff" opacity="0.1"/><ellipse cx="8.017" cy="1.355" rx="8.017" ry="1.355" transform="translate(17.728 231.031)" fill="#6c63ff" opacity="0.1"/><ellipse cx="11.971" cy="2.024" rx="11.971" ry="2.024" transform="translate(5.427 213.175)" fill="#6c63ff"/><path d="M70.216,718.866a3.463,3.463,0,0,1-1.143-1.721,1.534,1.534,0,0,1,.8-1.753,2.24,2.24,0,0,1,2.108.738,2.829,2.829,0,0,0,2.051.991,3.123,3.123,0,0,1-.965-2.923,1.191,1.191,0,0,1,.268-.6c.4-.435,1.143-.247,1.631.1,1.545,1.09,1.98,3.191,1.986,5.085a9.378,9.378,0,0,0,.03-2.084,2.144,2.144,0,0,1,.786-1.852,2.381,2.381,0,0,1,1.191-.3,2.491,2.491,0,0,1,1.947.554,1.915,1.915,0,0,1-.077,2.382,7.784,7.784,0,0,1-2.012,1.614,4.441,4.441,0,0,0-1.441,1.372,1.4,1.4,0,0,0-.107.244H72.916A12.041,12.041,0,0,1,70.216,718.866Z" transform="translate(-57.77 -506.978)" fill="#6c63ff"/><ellipse cx="8.017" cy="1.355" rx="8.017" ry="1.355" transform="translate(298.556 223.151)" fill="#6c63ff" opacity="0.1"/><path d="M1042.91,747.282s4.573-.14,5.954-1.122,7.032-2.152,7.374-.578,6.874,7.827,1.709,7.868-11.994-.8-13.37-1.643S1042.91,747.282,1042.91,747.282Z" transform="translate(-741.72 -529.073)" fill="#a8a8a8"/><path d="M1058.036,758.727c-5.162.042-11.994-.8-13.37-1.643-1.048-.637-1.465-2.926-1.6-3.983h-.152s.3,3.689,1.664,4.525,8.208,1.685,13.37,1.643c1.488,0,2.006-.542,1.977-1.328C1059.715,758.429,1059.146,758.727,1058.036,758.727Z" transform="translate(-741.72 -534.894)" opacity="0.2"/></g><text transform="translate(24 91)" fill="#707070" font-size="20" font-family="SegoeUI-Bold, Segoe UI" font-weight="700"><tspan x="0" y="0">Partisipasi Masyarakat</tspan></text><text transform="translate(24 129)" fill="#707070" font-size="10" font-family="SegoeUI, Segoe UI"><tspan x="0" y="0">Partisipasi masyarakat dalam pelaksanaan </tspan><tspan x="0" y="14">pembangunan merupakan salah satu syarat </tspan><tspan x="0" y="28">mutlak dalam era kebebasan dan keterbukaan ini</tspan></text></svg>