<svg xmlns="http://www.w3.org/2000/svg" xmlns:xlink="http://www.w3.org/1999/xlink" width="551" height="500.003" viewBox="0 0 551 500.003"><defs><linearGradient id="a" x1="0.5" y1="1" x2="0.5" gradientUnits="objectBoundingBox"><stop offset="0" stop-color="gray" stop-opacity="0.251"/><stop offset="0.54" stop-color="gray" stop-opacity="0.122"/><stop offset="1" stop-color="gray" stop-opacity="0.102"/></linearGradient><linearGradient id="b" x1="0.5" x2="0.5" y2="0" xlink:href="#a"/><linearGradient id="c" x1="0.5" x2="0.5" y2="0" xlink:href="#a"/><linearGradient id="d" x1="1.096" x2="1.096" y2="0" xlink:href="#a"/></defs><g transform="translate(-648 -107)"><g transform="translate(-28 -556)"><rect width="551" height="343.114" transform="translate(676 703.366)" fill="#e6e6e6"/><rect width="100.916" height="65.595" transform="translate(712.949 769.466)" fill="#fff"/><rect width="100.916" height="65.595" transform="translate(838.344 769.466)" fill="#fff"/><rect width="100.916" height="65.595" transform="translate(963.74 769.466)" fill="#fff"/><rect width="100.916" height="65.595" transform="translate(1089.135 769.466)" fill="#fff"/><circle cx="15.137" cy="15.137" r="15.137" transform="translate(805.173 713.458)" fill="#fff"/><circle cx="15.137" cy="15.137" r="15.137" transform="translate(1055.444 713.458)" fill="#fff"/><rect width="12.11" height="69.632" transform="translate(814.255 663)" fill="#e6e6e6"/><rect width="12.11" height="69.632" transform="translate(1064.526 663)" fill="#e6e6e6"/><path d="M978.914,318.024a22.757,22.757,0,1,1-3.527-12.19,22.757,22.757,0,0,1,3.527,12.19Z" transform="translate(183.5 484.24)" fill="#6c63ff"/><path d="M975.387,305.833l-22.464,22.46c-1.412-2.186-9.278-12.344-9.278-12.344a31.828,31.828,0,0,1,3.22-2.842l6.523,8.7,19.369-19.369A22.723,22.723,0,0,1,975.387,305.833Z" transform="translate(183.5 484.24)" fill="#fff"/><rect width="100.916" height="65.595" transform="translate(712.949 862.309)" fill="#fff"/><rect width="100.916" height="65.595" transform="translate(838.344 862.309)" fill="#fff"/><rect width="100.916" height="65.595" transform="translate(963.74 862.309)" fill="#fff"/><rect width="100.916" height="65.595" transform="translate(1089.135 862.309)" fill="#fff"/><rect width="100.916" height="65.595" transform="translate(712.949 955.151)" fill="#fff"/><rect width="100.916" height="65.595" transform="translate(838.344 955.151)" fill="#fff"/><rect width="100.916" height="65.595" transform="translate(963.74 955.151)" fill="#fff"/><rect width="100.916" height="65.595" transform="translate(1089.135 955.151)" fill="#fff"/><path d="M728.123,410.866a22.757,22.757,0,1,1-3.527-12.19,22.757,22.757,0,0,1,3.527,12.19Z" transform="translate(183.5 484.24)" fill="#6c63ff"/><path d="M724.6,398.676l-22.464,22.46c-1.412-2.186-9.278-12.344-9.278-12.344a31.828,31.828,0,0,1,3.22-2.842l6.523,8.7,19.369-19.369a22.725,22.725,0,0,1,2.631,3.4Z" transform="translate(183.5 484.24)" fill="#fff"/><path d="M602.728,410.866a22.757,22.757,0,1,1-3.527-12.19,22.757,22.757,0,0,1,3.527,12.19Z" transform="translate(183.5 484.24)" fill="#6c63ff"/><path d="M599.2,398.676l-22.464,22.46c-1.412-2.186-9.278-12.344-9.278-12.344a31.832,31.832,0,0,1,3.22-2.842l6.523,8.7,19.369-19.369a22.732,22.732,0,0,1,2.631,3.4Z" transform="translate(183.5 484.24)" fill="#fff"/></g><ellipse cx="38.474" cy="8.638" rx="38.474" ry="8.638" transform="translate(922.603 569.021)" fill="#6c63ff" opacity="0.1"/><ellipse cx="52.227" cy="8.638" rx="52.227" ry="8.638" transform="translate(825.392 544.575)" fill="#6c63ff" opacity="0.1"/><path d="M512.338,231.962c-1.1-7.436-7.861-24.789-7.861-24.789h0q-.176-.767-.4-1.534c-4.792-16.468-11.425-17.9-11.425-17.9l-23.761-5.114a1.841,1.841,0,0,1,.511.476,3.3,3.3,0,0,0-.373.056,9.309,9.309,0,0,1-2.081-4.5c-.046-.245-.087-.511-.118-.762a16.713,16.713,0,0,0-1.36-25.126c-.251-.194-.511-.384-.762-.563a3.788,3.788,0,0,0,.317-4.506c-1.872-3.887-5.943-6.347-10.126-7.549a17.167,17.167,0,0,0-9.83-.21,35.506,35.506,0,0,0-5.145,2.388c-3.156,1.575-6.648,2.823-9.006,5.416a2.643,2.643,0,0,0-.9,2.174,5.866,5.866,0,0,0,.895,1.58,4.769,4.769,0,0,1,.046,3.958,38.342,38.342,0,0,0-1.468,3.8,3.978,3.978,0,0,0,.793,3.82,16.842,16.842,0,0,0,1.483,1.023,7.776,7.776,0,0,1,1.417,1.591q1.412,1.892,2.813,3.8a39.141,39.141,0,0,1,3.524,5.355,26.1,26.1,0,0,0,2.179,4.091,6.067,6.067,0,0,0,.936.982l-.276-.107a4.26,4.26,0,0,0,3.125,1.273h.143a.859.859,0,0,0,.573-.235v.511c.056,1.826.046,3.769-.082,5.595l-.22-.113a1.918,1.918,0,0,0-2.046.215L421.98,204.616s-4.756,6.505-4.091,17.736l-3.836,16.841s-4.792,14.289-1.1,24.492,5.825,16.038,5.825,16.038,1.473,11.594,3.687,12.54,3.171,1.458,3.171,1.458l.44,2.772h0s.148.271.409.726c1.611,2.8,7.579,12.694,11.047,11.635a44.34,44.34,0,0,1,.563,8.127l3.432,23.04s2.393,6.265,2.245,9.548,2.792,7.963,2.792,7.963a15.215,15.215,0,0,0-1.473,10.714c1.4,6.137,3.171,34.409,3.171,34.409l2.557,6.853-.072,8.035a7.671,7.671,0,0,1-1.585,3.58c-1.657,1.8-1.534,3.882-5.529,6.342s-6.526,3.391-6.526,6.648a8.549,8.549,0,0,1-.123,1.355c-.368,2.393-1.084,3.692,6.26,4.388a19.363,19.363,0,0,0,14.381-4.807s1.268-2.3,7.242-3.232c0,0,2.046-.107,2.153-1.913.041-.624.031-1.816,0-3.13-.1-2.5-.338-5.421-.655-5.564-.4-.179-1.094-2.7-1.335-3.606h1.662s1.534-11.594,0-19.1a30.988,30.988,0,0,1-.148-12.832l-.3-19.828s-2.046-2.189-.44-6.055,0-22.963,0-22.963.593-6.853,2.286-8.459.082-10.039,0-10.479l3.017,10.121s1.325,20.119,4.132,23.761l.808,9.114s5.748,8.387,4.644,12.9,1.181,20.851,1.181,20.851v16.7s-2.583,6.7,1.023,9.114l1.534-.061c-.511.476-.905,1.192-1.5,1.81-.69.711-1.084,3.416-1.3,5.743-.184,1.969-.245,3.662-.245,3.662a6.03,6.03,0,0,0,4.424,2.624c2.89.169,12.412,7.41,12.412,7.41s9.405,0,11.839-.511l.143-.036a3.2,3.2,0,0,0,1.836-1.5,3.836,3.836,0,0,0,.44-2.757c-.3-1.437-1.442-3.012-3.969-4.352-6.285-3.314-7.221-6.418-7.221-6.418l-4.127-6.193h.588a26.492,26.492,0,0,1,4.127-13.926l-.292-32.44s1.841-11.154-1.325-17.209c0,0-.261-6.413,1.856-8.382s-2.818-21.868-2.818-21.868-1.023-10.684-2.225-20.431h0c4.976,4.72,10.136-12.274,11.006-15.3h.128l-.056-.22c.036-.143.056-.215.056-.215h0s-1.1-3.928-.3-3.13,2.8-2.189,2.8-2.189-.3-16.258,3.171-24.451S512.338,231.962,512.338,231.962Zm-14.831,10.346.026-.046c.511,9.927-.1,31.11-.1,31.11s-.685,2.716-1.417,5.912l-.511-20.125h0L495,240.2Zm-63.473-6.843s2.506,31.345,0,35.866a23.682,23.682,0,0,0-1.805,6.193c-.828-2.174-2.583-7.278-1.954-9.983.813-3.5-1.621-12.688-1.621-12.9a21.8,21.8,0,0,1,1.534-8.858c1.754-3.744.6-5.365.6-5.365S432.264,234.279,434.034,235.465Z" transform="translate(404.307 115.755)" fill="url(#a)"/><path d="M454.8,450.478c-2.184,9.6-10.868-4.915-12.847-8.4-.256-.455-.4-.721-.4-.721l.941-4.414,4.976-2.046a13.9,13.9,0,0,1,2.23,1.452A13.444,13.444,0,0,1,454.8,450.478Z" transform="translate(389.651 -28.66)" fill="#d38884"/><path d="M585.508,432.3a.669.669,0,0,1-.056.215,1.084,1.084,0,0,1-.066.23c-.854,3-5.917,19.869-10.806,15.184-5.349-5.114-2.751-16.938-2.751-16.938h.036l11.251-1.151,2.23,2.291h0Z" transform="translate(326.309 -26.188)" fill="#d38884"/><path d="M520.7,516.571l.286,32.22a26.425,26.425,0,0,0-4.05,13.808l-14.545.573c-3.549-2.388-1.023-9.042-1.023-9.042V537.539s-2.245-16.207-1.161-20.7-4.557-12.786-4.557-12.786l-.8-9.047c-2.751-3.616-4.056-23.587-4.056-23.587l-2.951-10.085c.082.435,1.616,8.853,0,10.4s-2.245,8.392-2.245,8.392,1.591,18.964,0,22.794.43,6.009.43,6.009l.292,19.685a30.783,30.783,0,0,0,.143,12.734c1.519,7.451,0,18.964,0,18.964h-15.6l.072-8.034-2.526-6.8s-1.739-28.077-3.115-34.158a15.261,15.261,0,0,1,1.442-10.638s-2.89-4.628-2.746-7.886-2.23-9.472-2.23-9.472L458.4,460.462a44.424,44.424,0,0,0-1.667-13.026c-1.954-6.516-4.848-15.056-4.848-15.056l3.268.292,16.488,1.468s40.091-2.7,41.886-.455a7.526,7.526,0,0,1,.757,2.337c1.8,8.086,4.178,33.416,4.178,33.416s4.848,19.756,2.767,21.71-1.826,8.316-1.826,8.316C522.518,505.473,520.7,516.571,520.7,516.571Z" transform="translate(384.604 -27.429)" fill="#444053"/><path d="M491.825,691.788c-.113,1.8-2.112,1.9-2.112,1.9-5.861.921-7.109,3.2-7.109,3.2a18.825,18.825,0,0,1-14.11,4.777c-7.211-.7-6.51-1.979-6.137-4.357a9.018,9.018,0,0,0,.118-1.34c0-3.258,2.5-4.183,6.4-6.648s3.8-4.506,5.426-6.3,1.8-5.262,1.8-5.262c1.841-3.207,6.51.511,6.51.511.22,1.135,7.16.977,7.16.977s.921,3.693,1.4,3.907c.312.143.547,3.038.639,5.523C491.856,689.988,491.866,691.169,491.825,691.788Z" transform="translate(379.59 -146.681)" fill="#b07473"/><path d="M491.825,703.474c-.113,1.8-2.112,1.9-2.112,1.9-5.861.921-7.109,3.2-7.109,3.2a18.825,18.825,0,0,1-14.11,4.777c-7.211-.7-6.51-1.979-6.137-4.357,3.222.8,9.379,1.913,12.975-.041,5-2.711,8.582-4.6,8.582-4.6l7.9-3.974C491.856,701.674,491.866,702.855,491.825,703.474Z" transform="translate(379.59 -158.368)" opacity="0.1"/><path d="M577.836,703.427a3.12,3.12,0,0,1-1.8,1.488l-.138.036c-2.388.511-11.62.511-11.62.511s-9.334-7.216-12.157-7.38a5.937,5.937,0,0,1-4.342-2.608s.056-1.677.235-3.631c.22-2.312.6-5,1.284-5.7,1.248-1.3,1.534-3.068,4.342-1.954,0,0,4.01-7.068,8.735-1.606L567.265,690s.921,3.069,7.114,6.4c2.475,1.33,3.58,2.895,3.892,4.322A3.811,3.811,0,0,1,577.836,703.427Z" transform="translate(337.75 -148.66)" fill="#b07473"/><path d="M577.836,714.254c-.552.465-1.161.967-1.8,1.488l-.138.036c-2.388.512-11.62.512-11.62.512s-9.334-7.216-12.157-7.38a5.937,5.937,0,0,1-4.342-2.608s.056-1.677.235-3.631c2.874.859,7.226,2.378,8.393,4.015,1.79,2.491,7.226,5.968,7.226,5.968s10.136-.977,14.637-1.11A3.811,3.811,0,0,1,577.836,714.254Z" transform="translate(337.75 -159.487)" opacity="0.1"/><path d="M503.6,215.314l-13.348,14.11s-16.176-1.192-13.353-5.968c1.437-2.434,1.662-7.528,1.534-11.957-.118-4.27-.557-7.907-.557-7.907s22.687-11.292,20.968-.762a17.331,17.331,0,0,0-.061,6.009C499.745,214.158,503.6,215.314,503.6,215.314Z" transform="translate(372.545 86.917)" fill="#d38884"/><path d="M500.068,202.83a17.332,17.332,0,0,0-.061,6.009,16.652,16.652,0,0,1-11.875,4.956c-3.069,0-6.388-2.521-8.868-3.979-.118-4.275-.143-6.224-.143-6.224S501.807,192.3,500.068,202.83Z" transform="translate(371.296 86.917)" opacity="0.1"/><path d="M497.476,178.2a16.718,16.718,0,1,1-6.29-13.062A16.718,16.718,0,0,1,497.476,178.2Z" transform="translate(378.664 104.92)" fill="#d38884"/><path d="M516.7,436.29c-4.163,9.906-30.941,10.111-30.941,10.111V435.6l-1.621-.107c.7,3.094-.982,10.638-.982,10.638-21.163,2.987-26.323-9.073-26.323-9.073l.736-4.127,16.488,1.468s40.091-2.7,41.886-.455a7.523,7.523,0,0,1,.757,2.347Z" transform="translate(382.186 -27.698)" opacity="0.1"/><path d="M485.756,344.768v-10.8l-1.621-.1c.7,3.069-.982,10.638-.982,10.638-15.926,2.245-22.789-4.025-25.208-7.267a9.9,9.9,0,0,1-1.115-1.8l6.464-36.362,1.534-53.515,2.317-9.39.537-4.506v-.051h.056l1.647.706,9.855,4.26,11.2-8.454L490.6,228l.557-.424.926.742,2.3,1.846,7.38,47.66s12.786,36.695,15.179,51.505c.1.593.174,1.146.235,1.662C518.758,344.517,485.756,344.768,485.756,344.768Z" transform="translate(382.186 72.631)" fill="#6c63ff"/><circle cx="0.951" cy="0.951" r="0.951" transform="translate(861.672 309.309)" fill="#67647e"/><circle cx="0.951" cy="0.951" r="0.951" transform="translate(862.112 317.993)" fill="#67647e"/><circle cx="0.951" cy="0.951" r="0.951" transform="translate(863.063 332.052)" fill="#67647e"/><circle cx="0.951" cy="0.951" r="0.951" transform="translate(864.633 347.196)" fill="#67647e"/><circle cx="0.951" cy="0.951" r="0.951" transform="translate(865.584 361.413)" fill="#67647e"/><circle cx="0.951" cy="0.951" r="0.951" transform="translate(866.536 376.556)" fill="#67647e"/><circle cx="0.951" cy="0.951" r="0.951" transform="translate(866.157 391.536)" fill="#67647e"/><path d="M468.312,308.067s-1.064,13.926-3.017,17.977-2.823,15.414-2.823,15.414l-4.536-.511a9.9,9.9,0,0,1-1.115-1.8l6.464-36.362,1.534-53.515,2.322-9.395.537-4.506.061-.026a1.831,1.831,0,0,1,1.616.026l.215.113q-.1.276-.184.568c-1.77,5.539-2.429,15.747-2.429,15.747s2.557,18.672,2.823,27.356S468.312,308.067,468.312,308.067Z" transform="translate(382.191 68.924)" opacity="0.1"/><path d="M449.7,436.368a2.619,2.619,0,0,1-.174.338c-1.759,2.971-6.219,4.859-7.574,5.375-.256-.455-.4-.721-.4-.721l.941-4.414,4.976-2.046A13.89,13.89,0,0,1,449.7,436.368Z" transform="translate(389.651 -28.661)" opacity="0.1"/><path d="M424.03,298.81l-4.127,2.46-3.759,16.718s-4.705,14.182-1.089,24.313,5.718,15.931,5.718,15.931,1.447,11.507,3.621,12.448,3.109,1.447,3.109,1.447l.435,2.751s5.892-2,7.973-5.523-1.534-12.274-1.534-12.274-3.109-7.457-2.312-10.929-1.6-12.591-1.6-12.786a21.671,21.671,0,0,1,1.534-8.8c1.749-3.728.583-5.319.583-5.319L431.5,308.614Z" transform="translate(403.264 37.83)" fill="#67647e"/><path d="M548.89,333.178s-10.929,4.122-14.4.511-3.115-20.554-3.115-20.554-3.324-31.263-5.426-36.4-1.023-42.193-1.023-42.193-1.412-4.792-2.644-6.045a1.34,1.34,0,0,0-.261-.21l.424.092,1.483.317,2.3,1.846,7.38,47.66s12.786,36.695,15.179,51.505Z" transform="translate(350.336 72.284)" opacity="0.1"/><path d="M586.1,432.725h-.123c-1.376.179-13.517,1.647-13.568-.88a7.4,7.4,0,0,1,.046-.875l11.251-1.151,2.23,2.291h0c.041.148.072.276.1.378Z" transform="translate(325.717 -26.179)" opacity="0.1"/><path d="M574.45,266.07l7.978,4.163s6.648,17.215,7.712,24.594c0,0,4.925,19.772,1.534,27.9S588.565,347,588.565,347s-1.954,2.966-2.751,2.174.292,3.109.292,3.109-13.64,1.81-13.7-.869,3.13-15.486,3.13-15.486.869-30.466-.363-35.242S574.45,266.07,574.45,266.07Z" transform="translate(325.717 53.826)" fill="#67647e"/><path d="M523.628,329.52s-4.49,11-5.938,11.722.292,3.616.292,3.616S526.159,333.427,523.628,329.52Z" transform="translate(352.732 22.826)" opacity="0.1"/><path d="M517.918,254.094c.051-.21-5.355,5.3-6.8,6.137S516.4,260.18,517.918,254.094Z" transform="translate(355.762 59.68)" opacity="0.1"/><path d="M488.245,327.82s-8.249,5.334-7.16,7.446S488.245,327.82,488.245,327.82Z" transform="translate(370.384 23.656)" opacity="0.1"/><path d="M524.47,480.07a44.158,44.158,0,0,0,17.946,5.626Z" transform="translate(349.139 -50.73)" opacity="0.1"/><path d="M491.5,501.3s6.51,8.183,9.482,8.392S491.5,501.3,491.5,501.3Z" transform="translate(365.247 -61.102)" opacity="0.1"/><path d="M501.826,564c-.292.143-3.693,7.38-7.16,7.6S501.826,564,501.826,564Z" transform="translate(364.04 -91.736)" opacity="0.1"/><path d="M568.33,594.8s6.454-1.447,7.891,3.181C576.221,597.961,575.787,596.514,568.33,594.8Z" transform="translate(327.71 -106.677)" opacity="0.1"/><path d="M559.84,646.221s7.82-1.6,9.482.578S559.84,646.221,559.84,646.221Z" transform="translate(331.858 -131.631)" opacity="0.1"/><path d="M509.254,654c0,.072-7.958,1.6-7.671,2.608s8.49.869,8.781-.726a1.534,1.534,0,0,0-1.11-1.882Z" transform="translate(360.324 -135.708)" opacity="0.1"/><path d="M554.75,666.98s13.077-1.6,12.274,1.156S554.75,666.98,554.75,666.98Z" transform="translate(334.345 -141.825)" opacity="0.1"/><path d="M420.89,352.44c.072.215,8.612,1.376,9.768,4.127,0,0-8.392-3.912-9.717-3.912" transform="translate(399.745 11.627)" opacity="0.1"/><path d="M438.062,396.16s-7.093,2.245-6.587,5.626S430.754,400.221,438.062,396.16Z" transform="translate(394.586 -9.733)" opacity="0.1"/><path d="M437.92,427s2.583-3.544,5.043-2.895S437.92,427,437.92,427Z" transform="translate(391.425 -23.347)" opacity="0.1"/><path d="M491.209,165.139a4.026,4.026,0,0,1-.828.619c-2.046,1.192-2.608,3.028-3.58,5.145-.905,1.938-1.9,3.989-3.728,5.089-2.358,1.422-5.462.9-7.912,2.138a6.137,6.137,0,0,0-3.273,6.05,17.453,17.453,0,0,0,.7,2.772,19.764,19.764,0,0,1,.747,6.019,1.031,1.031,0,0,1,0,.179,16.713,16.713,0,1,1,17.9-28.011Z" transform="translate(378.641 104.923)" opacity="0.1"/><path d="M482.8,150.841c-1.836-3.856-5.83-6.3-9.937-7.492a16.69,16.69,0,0,0-9.651-.2,35.4,35.4,0,0,0-5.048,2.368c-3.1,1.565-6.505,2.8-8.837,5.375a2.693,2.693,0,0,0-.885,2.158,6.025,6.025,0,0,0,.875,1.565,4.749,4.749,0,0,1,.046,3.933,36.058,36.058,0,0,0-1.442,3.779,3.976,3.976,0,0,0,.777,3.79,14.163,14.163,0,0,0,1.463,1.023,7.7,7.7,0,0,1,1.386,1.575l2.762,3.774a38.279,38.279,0,0,1,3.457,5.314,25.321,25.321,0,0,0,2.138,4.056,4.628,4.628,0,0,0,3.877,2.071.752.752,0,0,0,.614-.292.808.808,0,0,0,.077-.384,19.63,19.63,0,0,0-.731-6,17.307,17.307,0,0,1-.7-2.772,6.162,6.162,0,0,1,3.273-6.05c2.455-1.238,5.559-.716,7.912-2.133,1.831-1.1,2.828-3.155,3.728-5.114.987-2.117,1.534-3.953,3.58-5.145S483.818,152.872,482.8,150.841Z" transform="translate(386.615 114.189)" fill="#585268"/><path d="M501.63,693.06s2.557,3.258,1.892,5.114S501.63,693.06,501.63,693.06Z" transform="translate(360.298 -154.791)" opacity="0.1"/><path d="M569.28,704.733s.568-4.367,2.844-4.408,2.388-.235,4.127.435,3.37,1.708,2.849,1.862-2.992-2.5-5.529-1.14A18.272,18.272,0,0,0,569.28,704.733Z" transform="translate(327.246 -158.313)" opacity="0.1"/><path d="M480.339,245.926l7.16-5.017s-10.474-6.188-11.722-5.319-2.107,8.694-2.107,8.694Z" transform="translate(373.958 68.758)" opacity="0.1"/><path d="M480.279,245.2l7.16-5.114s-10.474-6.188-11.722-5.319-2.107,9.124-2.107,9.124Z" transform="translate(373.988 69.159)" fill="#e1e7ef"/><path d="M480.279,245.2l7.16-5.114s-10.474-6.188-11.722-5.319-2.107,9.124-2.107,9.124Z" transform="translate(373.988 69.159)" fill="#6c63ff"/><path d="M453.505,234.634l-.215-.107a1.857,1.857,0,0,0-2.01.21L429.8,252.16s-4.669,6.459-4.02,17.6l12.668,17.946s1.447-6.076,3.181-4.92c0,0,2.46,31.12,0,35.605s-3.544,21.275-3.544,21.275l8.321.941s.869-11.364,2.823-15.414,3.017-17.977,3.017-17.977,1.759-20.232,1.468-28.916-2.823-27.356-2.823-27.356S451.6,240,453.505,234.634Z" transform="translate(397.386 69.336)" fill="#67647e"/><path d="M513.364,239.235l-8.924-3.3s11.364-12.448,12.786-5.544Z" transform="translate(358.925 72.278)" opacity="0.1"/><path d="M513.364,238.385l-8.924-3.3s11.364-12.448,12.786-5.544Z" transform="translate(358.925 72.694)" fill="#e1e7ef"/><path d="M513.364,238.385l-8.924-3.3s11.364-12.448,12.786-5.544Z" transform="translate(358.925 72.694)" fill="#6c63ff"/><path d="M521.32,228.114a.511.511,0,0,1,.368.082Z" transform="translate(350.678 72.373)" opacity="0.1"/><path d="M523,226.421l23.679,5.114s6.516,1.447,11.221,17.8-6.444,36.393-6.444,36.393L549,283.639l1.232,47.762s-10.929,4.122-14.4.511-3.109-20.569-3.109-20.569-3.329-31.258-5.431-36.4-1.023-42.187-1.023-42.187S524.33,226.135,523,226.421Z" transform="translate(349.857 73.202)" fill="#67647e"/><path d="M565.063,285.735c-.332.307-.721,14.76.726,25.76a140.4,140.4,0,0,0,4.091,19.828l-2.148-44.069S566.076,284.794,565.063,285.735Z" transform="translate(329.457 44.323)" opacity="0.1"/><path d="M559.7,261.6c.578.363,3.115,6.367,1.954,8.827S559.7,261.6,559.7,261.6Z" transform="translate(331.926 56.01)" opacity="0.1"/><path d="M494.889,153.582a13.072,13.072,0,0,0-5.206-5.452,12.382,12.382,0,0,1,3.9,4.6c1.023,2.046.721,4.091-1.268,5.211s-2.608,3.028-3.58,5.145c-.905,1.938-1.9,3.989-3.733,5.114-2.353,1.422-5.457.895-7.912,2.133a6.178,6.178,0,0,0-3.273,6.055,17.391,17.391,0,0,0,.7,2.767,19.782,19.782,0,0,1,.747,6.019.807.807,0,0,1-.082.384.732.732,0,0,1-.609.292,3.524,3.524,0,0,1-1.785-.332,4.153,4.153,0,0,0,3.069,1.2.6.6,0,0,0,.685-.675,19.621,19.621,0,0,0-.742-6.019,16.8,16.8,0,0,1-.7-2.772,6.162,6.162,0,0,1,3.273-6.05c2.455-1.238,5.559-.716,7.912-2.133,1.831-1.1,2.828-3.156,3.728-5.114.987-2.117,1.534-3.953,3.58-5.145S495.911,155.612,494.889,153.582Z" transform="translate(374.388 111.448)" opacity="0.1"/><path d="M705.632,229.038c-7.047-.138-13.266-5.114-16.79-11.2a11.253,11.253,0,0,1-1.7-4.792,5.531,5.531,0,0,1,.194-1.146,11.886,11.886,0,0,0,.511-1.754,3.074,3.074,0,0,0,0-.716s0,0,0-.041a4.231,4.231,0,0,0-1.534-3.442c-.941-.885-2.122-1.534-3.1-2.414-3.028-2.659-3.948-6.925-4-10.985v-.215c.036-1.739.174-3.483.159-5.222a21.966,21.966,0,0,0-.128-2.956,9.768,9.768,0,0,0-3.161-6.536c-5.043-4.091-13.522.169-18.744-3.7-1.268-.946-2.3-2.342-3.836-2.711a6.462,6.462,0,0,0-3.5.476c-3.846,1.268-8.137,2.936-9.64,6.649-.859,2.133-.619,4.567-1.406,6.725a33.574,33.574,0,0,1-2.2,4.061,6.358,6.358,0,0,0-.818,3.391,3.826,3.826,0,0,0,.251,1.805,4.6,4.6,0,0,0,1.253,1.8,5.964,5.964,0,0,1-.747,1.2c-.982,1.2-2.491,2.046-3.513,3.242-1.892,2.194-1.821,5.176-.89,7.753s2.613,4.925,3.774,7.436a3.991,3.991,0,0,1,.383,3.391,9.72,9.72,0,0,1-1.7,1.974,6.2,6.2,0,0,0-1.534,3.427c-11.512,2.629-11.522,11.88-11.522,11.88h0l-6.219,15.639s-1,2.634-2.169,6.112l-7.359-1.319,5.114,8.561c-.966,3.488-1.652,6.72-1.427,8.346,0,0-2.286,10.74,1.78,12.617l8.97,4.035a5.316,5.316,0,0,0,1.243.557l.363.164a.961.961,0,0,0,.839,0h.123a1.207,1.207,0,0,0,.511-.077,1.023,1.023,0,0,0,.45-.486.155.155,0,0,1,0-.051l2.685-.777,2.276,2.7c1.023.721,2.046,1.345,3.012,1.908l-3.524,34.992s-.568,46.54-2.286,57.147a29.706,29.706,0,0,0-.4,8.428l-.067.112c.425,2.992,1.534,3.58,1.534,3.58v-.041a.333.333,0,0,0,.067.041,30.144,30.144,0,0,1,1.841-3.948v.767c-.036,3.948-.159,9.477-.568,13.072-.7,6.137,1.78,26.364,1.78,26.364l.854,18.411a17.02,17.02,0,0,1-2.1,8.97c-2.046,3.677-4.659,8.853-4.848,11.149a2.311,2.311,0,0,0,0,.373h0l-4.388,5.278s-1.713,2.649,2.158,3.718c2.082.578,5.672,0,8.556-.68a5.718,5.718,0,0,0,4.434-5.564,19.693,19.693,0,0,1,3.621-6.95l.721,4.24L644.1,475l.619-11.62a5.117,5.117,0,0,0,.332-2.046h0c.951-8.265-2.24-7.523-2.24-7.523a.445.445,0,0,1,.154.286l-.154-.281h0c-1.959-3.866-1.023-10.229-1.023-10.229s2.557-18.411,3.432-23.275c.629-3.437.368-14.688.159-20.968a7.486,7.486,0,0,0-.026-.762c7.487-.1,16.662-.348,23.1-.972v.757l-1.187,43.5a23.878,23.878,0,0,1-1.667,8.091.442.442,0,0,1-.056.148,35.285,35.285,0,0,0-2.358,11.4l-.552,13.808v.384h0c-.961.368-2.48,1.437-2.521,4.536-.066,4.541,7.937,3.028,7.937,3.028,8,0,8.065-8.326,8.065-8.326s.251-7.636.634-12.745-1.207-3.984-1.207-3.984l-.123,14.535V460.11l.123-1.846v-.051h0v-.394l1.008-14.99s7.37-24.978,8.51-29.77c.813-3.406.476-13.665.21-19.337a4.518,4.518,0,0,0-.041-.752c2.286-.2,4.306-.225,5.114-.225h.373s-.378-40.116-1.335-55.234S686.9,308.56,683.093,304.4c-2.3-2.516-5.508-10.285-7.671-16.038a80.232,80.232,0,0,0,14.1,4.6c12.065,2.526,10.413-7.948,10.413-7.948l-1.222-19.807h.082a100.994,100.994,0,0,0-1.33-15.486,45.562,45.562,0,0,0-3.11-11.251c1.309-.511,2.6-1.059,3.871-1.621,3.278-1.447,6.971-3.5,7.441-7.032h-.159a4.555,4.555,0,0,0,.123-.777Zm-74.785,28.64h0c.026,2.046-.051,5.595-.174,9.518l-3.831-5.114,3.841-6.229ZM682.173,268.065Zm1.6,7.738-6.383-2.046a28.636,28.636,0,0,1,3.943-4.879l.552-.511-.2.041.307-.281.184-.041-.292.281.348-.072a10.888,10.888,0,0,0,2.174,4.373c2.291,2.5-.629,3.135-.629,3.135Z" transform="translate(309.334 100.217)" fill="url(#b)"/><path d="M644.93,715.66l-.747,14.156-4.761-1.192-1-5.887Z" transform="translate(309.401 -155.533)" fill="#a27772"/><path d="M644.93,715.66l-.747,14.156-4.761-1.192-1-5.887Z" transform="translate(309.401 -155.533)" opacity="0.1"/><path d="M716.48,680.867l7.262,1.5,5.385-4.756v-13.4l.123-1.831v-.056h0v-.389l1-14.9s7.267-24.8,8.4-29.56c.8-3.375.465-13.563.2-19.194-.108-2.307-.2-3.851-.2-3.851l-16.033-3.882-.338,12.325-1.171,43.185a23.928,23.928,0,0,1-1.642,8.034l-.056.148a35.146,35.146,0,0,0-2.327,11.313l-.542,13.732v.378Z" transform="translate(255.327 -104.707)" fill="#cc818c"/><path d="M741.45,730.14v.378h0v-.389Z" transform="translate(243.128 -172.903)" opacity="0.1"/><path d="M716.48,762.953l7.262,1.5,5.385-4.756v-1.14a1.535,1.535,0,0,1-.772,1.227l-.077.046a14.474,14.474,0,0,1-8.152,1.611l-2.833-.24a2.654,2.654,0,0,0-.752.184v.378Z" transform="translate(255.327 -186.793)" opacity="0.1"/><path d="M725.943,746.588l.077-.041a1.534,1.534,0,0,0,.783-1.33l.118-14.427s1.565-1.12,1.186,3.953-.624,12.653-.624,12.653-.061,8.265-7.953,8.265c0,0-7.891,1.5-7.83-3.007s3.258-4.695,3.258-4.695l2.833.245A14.438,14.438,0,0,0,725.943,746.588Z" transform="translate(257.663 -173.174)" fill="#b07473"/><path d="M642.52,682.313c.184,3.258,9.768,1.376,9.768,1.376l6.449-12.52s5.385-4.137,2.69-7.769a5.79,5.79,0,0,1-.394-.619l-.026-.031h0c-.056-.092-.107-.189-.159-.292h0c-1.933-3.836-.982-10.126-.982-10.126s2.5-18.289,3.38-23.111c.619-3.406.363-14.581.159-20.83-.082-2.6-.159-4.342-.159-4.342l-15.91-4.26v4.746c-.036,3.923-.159,9.41-.562,12.98-.685,6.071,1.754,26.175,1.754,26.175l.844,18.294a16.944,16.944,0,0,1-2.046,8.9c-1.994,3.652-4.6,8.8-4.782,11.072a2.243,2.243,0,0,0-.026.353Z" transform="translate(291.462 -109.222)" fill="#cc818c"/><path d="M642.516,742.491c.184,3.258,9.768,1.376,9.768,1.376l6.449-12.52s5.385-4.137,2.69-7.768a5.814,5.814,0,0,1-.394-.619c-.087,1.9-2.168,6.648-2.168,6.648s-5.324,10.653-7.017,13.092-9.047-.455-9.323-.557a2.243,2.243,0,0,0-.005.348Z" transform="translate(291.467 -169.4)" opacity="0.1"/><path d="M656.305,722.284s3.15-.731,2.209,7.472h0a5.283,5.283,0,0,1-2.491,4.69,17.91,17.91,0,0,0-7.492,10.392h0a5.666,5.666,0,0,1-4.373,5.523c-2.844.665-6.388,1.248-8.438.675-3.82-1.064-2.128-3.692-2.128-3.692l4.383-5.2s7.641,3.007,9.328.563,7.017-13.087,7.017-13.087S657.241,722.974,656.305,722.284Z" transform="translate(296.006 -169.061)" fill="#b07473"/><path d="M728.158,593.52l-.338,12.325c4.27-.414,7.329-.992,7.85-1.805,1.13-1.749,5.232-2.486,8.72-2.787-.107-2.306-.2-3.851-.2-3.851Z" transform="translate(249.787 -106.158)" opacity="0.1"/><path d="M651.94,607.466a5.851,5.851,0,0,1,1.754-2.117c1.688-.936,1.5,6.014,1.5,6.014s5.626.051,12.811-.041c-.082-2.6-.159-4.347-.159-4.347l-15.91-4.255S651.971,604.694,651.94,607.466Z" transform="translate(286.86 -110.653)" opacity="0.1"/><path d="M646.806,504.289s1.882-5.114,3.58-6.025,1.5,6.009,1.5,6.009,41.333.378,43.4-2.818,14.09-3.007,14.09-3.007-.373-39.83-1.314-54.855-2.439-28.747-6.2-32.88c-2.429-2.675-5.886-11.328-8.024-17.1-1.161-3.15-1.933-5.447-1.933-5.447l-39.451,2.25-.322,3.2-4.188,41.9s-.563,46.217-2.255,56.737S646.806,504.289,646.806,504.289Z" transform="translate(290.178 -5.829)" fill="#444053"/><g transform="translate(935.373 382.341)" opacity="0.1"><path d="M700.726,501.456c2.046-3.191,14.09-3.007,14.09-3.007s-.373-39.83-1.314-54.855-2.44-28.747-6.2-32.88c-2.44-2.685-5.887-11.328-8.024-17.1-.977-2.649-1.677-4.69-1.872-5.273l3.069-.174s.772,2.3,1.938,5.447c2.138,5.769,5.59,14.422,8.019,17.1,3.759,4.132,5.263,17.849,6.2,32.879s1.319,54.855,1.319,54.855-12.024-.184-14.095,3.007c-1.764,2.726-32.179,2.854-41.006,2.828C674.178,504.258,699.13,503.921,700.726,501.456Z" transform="translate(-653.844 -388.17)"/><path d="M647.219,603.356c.762-.424,1.14.752,1.33,2.179a29.494,29.494,0,0,0-1.775,3.846s-1.089-.588-1.534-3.58A6.961,6.961,0,0,1,647.219,603.356Z" transform="translate(-645.24 -493.262)"/></g><path d="M664.714,194.341c-2.731,3.723.031,9.016-2.9,12.637-.967,1.2-2.455,2.046-3.462,3.222-1.867,2.179-1.8,5.14-.88,7.7s2.557,4.889,3.723,7.385a3.951,3.951,0,0,1,.379,3.365,9.533,9.533,0,0,1-1.677,1.959,7.064,7.064,0,0,0-.921,7.5c1.013,2.475,2.946,4.6,4.854,6.7a3.312,3.312,0,0,0,4.812,1.1,18.923,18.923,0,0,0,8.612-24.7c-1.585-3.8-4.229-7.441-4.255-11.456,0-3.186,1.637-6.229,1.928-9.4.353-3.856-1.928-9.978-6.582-11.66C668.652,191.165,666.1,192.428,664.714,194.341Z" transform="translate(284.463 91.632)" fill="#585268"/><path d="M664.714,194.341c-2.731,3.723.031,9.016-2.9,12.637-.967,1.2-2.455,2.046-3.462,3.222-1.867,2.179-1.8,5.14-.88,7.7s2.557,4.889,3.723,7.385a3.951,3.951,0,0,1,.379,3.365,9.533,9.533,0,0,1-1.677,1.959,7.064,7.064,0,0,0-.921,7.5c1.013,2.475,2.946,4.6,4.854,6.7a3.312,3.312,0,0,0,4.812,1.1,18.923,18.923,0,0,0,8.612-24.7c-1.585-3.8-4.229-7.441-4.255-11.456,0-3.186,1.637-6.229,1.928-9.4.353-3.856-1.928-9.978-6.582-11.66C668.652,191.165,666.1,192.428,664.714,194.341Z" transform="translate(284.463 91.632)" opacity="0.1"/><path d="M702.819,464.55c-5.467.286-10.612,2.639-15.4,5.3s-9.42,5.672-14.57,7.559" transform="translate(276.644 -43.147)" opacity="0.1"/><path d="M700.293,489.74a22.538,22.538,0,0,0-14.192,6.9c-1.33,1.406-2.475,2.982-3.861,4.332a17.154,17.154,0,0,1-7.61,4.311" transform="translate(275.774 -55.454)" opacity="0.1"/><path d="M697.436,508.91a24.815,24.815,0,0,0-11.415,6.884c-.839.905-1.6,1.872-2.439,2.777-4.526,4.859-10.919,7.436-17.092,9.876" transform="translate(279.751 -64.82)" opacity="0.1"/><path d="M705.36,242.807a112.271,112.271,0,0,0,1.125,13.052c.511,3.069,1.228,5.83,2.255,7.053,3.007,3.58-14.652,8.362-14.652,8.362l-10.428-8.081s8.265-7.61,4.414-15.031S705.36,242.807,705.36,242.807Z" transform="translate(271.362 65.32)" fill="#cc818c"/><path d="M658.79,393.617H700.5c-1.161-3.15-1.933-5.447-1.933-5.447l-39.451,2.25Z" transform="translate(283.513 -5.829)" opacity="0.1"/><path d="M645.762,336.224h44.591a15.472,15.472,0,0,1,1.785-11.824,26.136,26.136,0,0,1,4.669-6.055l.307-.281,15.568-3.447.839-.184s.128-28.307-9.9-32.194a58.606,58.606,0,0,1-16.033-9.139l-13.773,4.255-10.147-5.114c-3.258,3.5-11.9,2.128-11.9,2.128-14.151,1.626-14.151,12.274-14.151,12.274s8.265,19.286,8.894,19.286S645.762,336.224,645.762,336.224Z" transform="translate(293.856 50.811)" fill="#6c63ff"/><path d="M672,356.869s-9.093-2.015-12.187-5.539" transform="translate(283.015 12.17)" opacity="0.1"/><path d="M763.216,341.51l-10.546,8.643a17.958,17.958,0,0,0,.348,2.046l.307-.281,15.568-3.447Z" transform="translate(237.646 16.968)" opacity="0.1"/><path d="M717.46,379.744s2.307,1.3,5.841,3.007h6.06a15.472,15.472,0,0,1,1.785-11.824l-10.684-3.457C724.1,370.851,717.46,379.744,717.46,379.744Z" transform="translate(254.848 4.284)" opacity="0.1"/><path d="M631.909,293.76l-6.26,3.38-6.137,15.532s-6.388,17.03-5.764,21.541c0,0-2.25,10.648,1.754,12.525l10.433,4.726a.972.972,0,0,0,1.253-1.34c-1.488-2.818-3.125-7.226-.511-9.651l-3.007-6.26,10.868-17.787,3.631-6.137Z" transform="translate(305.827 40.297)" fill="#6c63ff"/><path d="M677.012,351.088c.542,2.209,2.373,5.626,8.433,6.9l6.648,5.447,7.073,3.207,2.884,1.3,1.222-8.832-2.777-1.534-3.237-1.77s-7.3-13.231-18.866-7.671A2.557,2.557,0,0,0,677.012,351.088Z" transform="translate(274.65 14.396)" opacity="0.1"/><path d="M677.762,349.646c.542,2.214,2.368,5.626,8.428,6.9l6.649,5.447,7.078,3.207,2.879,1.3,1.222-8.832-2.777-1.534-3.212-1.754s-7.308-13.23-18.872-7.646A2.557,2.557,0,0,0,677.762,349.646Z" transform="translate(274.278 15.086)" fill="#cc818c"/><circle cx="16.156" cy="16.156" r="16.156" transform="translate(948.916 287.272)" opacity="0.1"/><circle cx="16.156" cy="16.156" r="16.156" transform="translate(948.916 286.899)" fill="#cc818c"/><path d="M718.239,284.872l-4.859-9.441s7.109-2.874,7.625-6.2,6.812,3.9,5.452,6.3S718.239,284.872,718.239,284.872Z" transform="translate(256.842 52.704)" opacity="0.1"/><path d="M718.239,283.4l-4.859-9.441s7.109-2.874,7.625-6.2,6.812,3.907,5.452,6.3S718.239,283.4,718.239,283.4Z" transform="translate(256.842 53.422)" fill="#6c63ff"/><path d="M626.623,343.508,653.467,379.6s-9.9,5.385-23.526-4.255l-5.886-7.017L607.25,340Z" transform="translate(308.694 17.705)" fill="#f6f8fb"/><path d="M634.2,376.347l2.445-.066s14.934-14.494,18.6-7.16-9.3,14.187-9.3,14.187L642,385.435l-5.14,1.534-3.288-4.414Z" transform="translate(295.835 4.49)" fill="#cc818c"/><path d="M634.574,391.591a3.648,3.648,0,0,1,.061,2.526,1.022,1.022,0,0,1-.445.486,1.139,1.139,0,0,1-.511.072,5.14,5.14,0,0,1-3.37-1.667,15.4,15.4,0,0,1-2.184-3.161,5.83,5.83,0,0,1-1.12-3.764c.266-1.437,1.534-2.434,2.777-3.242,2.475-1.637,2.557.271,3.1,2.378S634.006,389.464,634.574,391.591Z" transform="translate(299.066 -2.924)" opacity="0.1"/><path d="M633.842,391.591a3.678,3.678,0,0,1,.061,2.526,1.023,1.023,0,0,1-.445.486,1.15,1.15,0,0,1-.511.072,5.114,5.114,0,0,1-3.37-1.667,15.211,15.211,0,0,1-2.189-3.161,5.794,5.794,0,0,1-1.115-3.764c.261-1.437,1.534-2.434,2.772-3.242,2.48-1.637,2.557.271,3.1,2.378S633.27,389.464,633.842,391.591Z" transform="translate(299.424 -2.924)" fill="#6c63ff"/><path d="M623.85,315.922l1.248-2.112-1.089,3.923Z" transform="translate(316.52 40.801)" opacity="0.1"/><path d="M721.19,375.492l2.879,1.3,1.222-8.832-2.777-1.534C724.432,368.629,722.755,372.695,721.19,375.492Z" transform="translate(253.026 4.792)" opacity="0.1"/><path d="M731.136,362.219s-9.3.568-13.246-1.969" transform="translate(254.638 7.812)" opacity="0.1"/><g transform="translate(945.034 323.788)" opacity="0.1"><path d="M737.572,326.691a26.176,26.176,0,0,1,4.669-6.06,12.473,12.473,0,0,1,1.376-.747l14.494-2.977.839-.184s.128-28.307-9.891-32.194a60.2,60.2,0,0,1-15.629-8.8l1.1-.338a58.449,58.449,0,0,0,16.033,9.139c10.024,3.882,9.891,32.194,9.891,32.194h-1.5l-14.831,2.838s-.639.619-.834.8a28.739,28.739,0,0,0-4.741,6.27,15.721,15.721,0,0,0-1.243,11.885h-1.534A15.633,15.633,0,0,1,737.572,326.691Z" transform="translate(-697.988 -274.515)"/><path d="M664.13,277.907c.24-.036.47-.072.721-.1a25.926,25.926,0,0,0,3.068.251A27.892,27.892,0,0,1,664.13,277.907Z" transform="translate(-664.13 -275.698)"/><path d="M696.935,278.81l-9.175-4.644a4.848,4.848,0,0,0,.511-.486l9.574,4.843Z" transform="translate(-675.675 -273.68)"/></g><path d="M746.733,340l6.137,7.518,1.253,20.416s1.626,10.392-10.269,7.886-25.663-10.249-25.663-10.249,6.649-8.894,3.007-12.274l17.036,5.513s2.879-.629.624-3.13-2.654-7.017-2.654-7.017Z" transform="translate(254.492 17.705)" fill="#6c63ff"/><path d="M779.42,382.17l3.38,3.882A4.873,4.873,0,0,1,779.42,382.17Z" transform="translate(224.576 -2.898)" opacity="0.1"/><path d="M736.99,360.8l5.263,6.761-2.629.629Z" transform="translate(261.243 17.843)" opacity="0.1"/><path d="M665.326,197.335a5.4,5.4,0,0,1,.563-4.4,34.779,34.779,0,0,0,2.174-4.035c.772-2.138.537-4.557,1.381-6.649,1.488-3.708,5.718-5.365,9.507-6.649a6.392,6.392,0,0,1,3.457-.471c1.534.363,2.532,1.754,3.785,2.69,5.145,3.836,13.512-.389,18.488,3.672a9.677,9.677,0,0,1,3.115,6.485,57.251,57.251,0,0,1-.031,7.375c-.082,4.306.726,9.016,3.948,11.87.972.859,2.117,1.5,3.069,2.393a4.189,4.189,0,0,1,1.534,3.421,11.862,11.862,0,0,1-.511,1.739c-.639,2.245.317,4.6,1.483,6.648,3.478,6.019,9.61,10.98,16.56,11.118-.465,3.508-4.091,5.544-7.339,6.981-4.091,1.836-8.449,3.636-12.954,3.406s-9.206-3.115-9.993-7.554c-.271-1.534-.235-3.38-1.534-4.178-.8-.486-1.831-.363-2.69-.726-1.243-.511-1.857-1.908-2.266-3.191a28.726,28.726,0,0,1-1.335-8.183c-.056-3.294.378-6.889-1.488-9.6-1.729-2.511-4.8-3.785-6.792-6.091-1.841-2.138-3.841-4.715-6.858-5.114C676.424,197.7,667.791,203.375,665.326,197.335Z" transform="translate(280.45 98.304)" opacity="0.1"/><path d="M665.326,195.865a5.4,5.4,0,0,1,.563-4.4,34.78,34.78,0,0,0,2.174-4.035c.772-2.138.537-4.557,1.381-6.649,1.488-3.713,5.718-5.37,9.507-6.649a6.392,6.392,0,0,1,3.457-.47c1.534.363,2.532,1.754,3.785,2.69,5.145,3.836,13.512-.389,18.488,3.672a9.678,9.678,0,0,1,3.115,6.49,57.168,57.168,0,0,1-.031,7.37c-.082,4.306.726,9.016,3.948,11.87.972.859,2.117,1.5,3.069,2.393a4.189,4.189,0,0,1,1.534,3.421,11.862,11.862,0,0,1-.511,1.739c-.639,2.245.317,4.6,1.483,6.649,3.488,6,9.594,10.975,16.544,11.113-.465,3.508-4.091,5.544-7.339,6.986-4.091,1.831-8.449,3.631-12.954,3.4s-9.206-3.115-9.993-7.554c-.271-1.534-.235-3.381-1.534-4.178-.8-.486-1.831-.363-2.69-.726-1.243-.511-1.856-1.908-2.266-3.191a28.693,28.693,0,0,1-1.335-8.183c-.056-3.294.379-6.889-1.488-9.6-1.729-2.511-4.8-3.785-6.792-6.091-1.841-2.138-3.841-4.715-6.858-5.114C676.424,196.233,667.791,201.915,665.326,195.865Z" transform="translate(280.45 99.022)" fill="#585268"/><path d="M684.955,284.148l9.262-7.518s-6.342-3.437-7.1-6.367-5.83,1.391-5.314,4.02S684.955,284.148,684.955,284.148Z" transform="translate(272.287 52.256)" opacity="0.1"/><path d="M685.695,281.943l9.262-7.513s-6.342-3.437-7.068-6.367-5.83,1.391-5.314,4.02S685.695,281.943,685.695,281.943Z" transform="translate(271.91 53.331)" fill="#6c63ff"/><circle cx="0.736" cy="0.736" r="0.736" transform="translate(966.494 333.316)" opacity="0.1"/><circle cx="0.736" cy="0.736" r="0.736" transform="translate(966.494 337.407)" opacity="0.1"/><circle cx="0.736" cy="0.736" r="0.736" transform="translate(966.494 341.493)" opacity="0.1"/><g transform="translate(945.626 278.153)" opacity="0.1"><path d="M671.971,190.741c.731-2.01.573-4.265,1.258-6.29a6.87,6.87,0,0,0-.782,1.442c-.849,2.112-.609,4.531-1.386,6.648l-.051.123A11.681,11.681,0,0,0,671.971,190.741Z" transform="translate(-668.084 -184.45)"/><path d="M727.606,252.12c-4.091,1.831-8.449,3.631-12.954,3.4s-9.206-3.115-9.993-7.549c-.271-1.534-.235-3.386-1.534-4.183-.8-.486-1.831-.363-2.69-.726-1.243-.511-1.856-1.908-2.266-3.191a28.7,28.7,0,0,1-1.335-8.183c-.056-3.288.384-6.884-1.483-9.6-1.734-2.511-4.8-3.779-6.8-6.091-1.841-2.133-3.841-4.715-6.858-5.114-4.137-.563-12.786,5.114-15.23-.931a4.756,4.756,0,0,1,.158-3.493c-.179.3-.353.6-.511.91a5.418,5.418,0,0,0-.557,4.408c2.46,6.035,11.093.363,15.23.931,3.017.409,5.017,2.992,6.858,5.114,1.995,2.312,5.063,3.58,6.792,6.1,1.872,2.711,1.432,6.306,1.488,9.594a28.693,28.693,0,0,0,1.335,8.183c.409,1.289,1.023,2.67,2.266,3.191.859.363,1.892.245,2.69.726,1.32.8,1.284,2.665,1.534,4.183.8,4.434,5.493,7.318,9.993,7.549s8.837-1.565,12.954-3.4c2.966-1.319,6.27-3.145,7.16-6.137C732.434,249.752,729.918,251.092,727.606,252.12Z" transform="translate(-665.288 -195.204)"/></g><path d="M870.231,297.292c-10.827-6.229-14.918-7.763-14.939-7.763l-.225-.159a9.007,9.007,0,0,1-2.726-3.447,7.223,7.223,0,0,1,0-.742.319.319,0,0,0,0,.072c.169-3.3,2.516-6.3,4.741-8.919l5.692-6.695a6.6,6.6,0,0,0,1.468-2.322,5.357,5.357,0,0,0,.153-1.427v-.583c-.031-1.662-.077-3.329-.138-4.991-.051-1.452-.425-3.283-1.877-3.58-.757-.153-1.759.118-2.158-.511a1.243,1.243,0,0,1-.1-.864.305.305,0,0,0,0,.072v-.082a19.259,19.259,0,0,0,.537-3.421,4.664,4.664,0,0,0-.235-1.734c-.839-2.409-3.738-3.4-6.3-3.856s-5.437-.844-7.042-2.849a20.839,20.839,0,0,0-1.4-1.928,5.529,5.529,0,0,0-2.618-1.294,14.832,14.832,0,0,0-9.528.829c-1.238.552-2.48,1.3-3.841,1.217s-2.619-1.064-4.01-1.3c-2.25-.384-4.4,1.268-5.513,3.227a7.892,7.892,0,0,0-1.023,3.8v.225h0a5.564,5.564,0,0,0,1.463,3.887c.972,1.023,2.414,1.7,2.818,3.023.164.537.123,1.12.271,1.667a1.469,1.469,0,0,0,.061.2l-.072.1a16.876,16.876,0,0,0-3.58,10.4,17.266,17.266,0,0,0,12.131,16.366c0,.169,0,.338,0,.511a7.358,7.358,0,0,1-2.353,5.728l-15.338,6.127s-9.247-1.1-12.581,12.412a23.038,23.038,0,0,0-.573,6.853,19.866,19.866,0,0,1-2.557,10.264c-3.79,7.426-2.925,24.472,4.828,26.159,7.318,1.6,10.182.931,10.484.854v.3c-.123,3.2-1.284,30.788-5.5,34.122-1.166.926-.951,1.534,0,1.969,0,0,0,.179-.026.511-.128,2.046-.778,9.717-3.58,14.074-3.278,5.063-2.936,34.265-2.936,34.265l-2.235,17.215s1.376,10.632,0,12.489c-1.233,1.652-2.869,40.986-3.212,49.516h-.143a4.153,4.153,0,0,0-3.314,2.046c-1.81,2.941-8.152,8.377-8.152,8.377-1.376,1.954-6.464,3.825-9.155,4.705a5.688,5.688,0,0,0-1.023.45,5.457,5.457,0,0,0-2.312,2.434,2.613,2.613,0,0,0-.246,2.046c.685,1.682,14.99,2.869,18.611,1.176,2.844-1.325,14.115-3.069,18.795-3.754a3.856,3.856,0,0,0,3.345-3.345,2.2,2.2,0,0,0-.429-1.672h0c-.9-1.11-1.35-4.142-1.534-6.137a4.148,4.148,0,0,0,1.054-.624,44.93,44.93,0,0,1,2.557-18.058c3.447-9.114,4.48-25.991,3.621-36.961,0,0,10.51-45.23,18.785-49.45h0c.128.164,4.143,5.314,4.654,21.265.511,16.2,6.372,26.834,6.372,26.834s-2.588,27.51,0,37.8l-3.38,16.238c-.251-.21-.409-.373-.409-.373s.1.45.24,1.171l-.072.348.148.031a31.964,31.964,0,0,1,.716,7.671c-.133,1.181-.465,2.8-.69,4.393-.358,2.5-.455,4.925.859,5.457,2.158.869,14.831,2.046,16.979-.736a3.984,3.984,0,0,0,.624-4.168,4.216,4.216,0,0,0-.624-1.064s-3.365-5.5-2.414-9.374a2.854,2.854,0,0,0-.4-2.225,114.322,114.322,0,0,1,2.9-18.186c2.158-8.121,6.7-25.929,3.36-37.636h0q-.189-.69-.43-1.35a50.549,50.549,0,0,1-1.9-19.746,40.244,40.244,0,0,1,0-17.214c2.071-9.451,3.518-18.733,3.518-18.733s1.14-12.489.143-20.145a5.006,5.006,0,0,0-.066-.511l.542-.123s-2.93-13-3.963-21.265c-.246-1.954-.563-4.424-.91-7.063a18.025,18.025,0,0,0,2.808-.7c9.3-3.207,12.233-32.22,12.233-32.22v-9.206S881.089,303.537,870.231,297.292ZM800.9,521.419c-.286-.143-.455-.24-.455-.24h0Z" transform="translate(228.098 66.642)" fill="url(#c)"/><path d="M888.6,600.917c4.035,11.6-.675,30.44-2.864,38.868a117.5,117.5,0,0,0-2.859,18.5,38.966,38.966,0,0,1-14.8-.338l3.534-17.322c-2.526-10.259,0-37.677,0-37.677s-5.718-10.6-6.224-26.742c-.511-15.89-4.414-21.03-4.536-21.188h0c-8.07,4.2-18.329,49.281-18.329,49.281.839,10.929-.174,27.75-3.534,36.823a45.516,45.516,0,0,0-2.521,17.992,5.472,5.472,0,0,1-4.6.88c-4.8-.777-10.561-4.915-10.561-4.915s1.846-49.1,3.2-50.958,0-12.448,0-12.448l2.184-17.153s-.338-29.1,2.859-34.143c2.762-4.357,3.4-12.018,3.519-14.028v-.511l4.869-5.83s47.092-3.534,50.631,0c.864.864,1.4,2.838,1.718,5.319.972,7.63-.143,20.073-.143,20.073s-1.411,9.252-3.432,18.667a40.975,40.975,0,0,0,0,17.158A51.361,51.361,0,0,0,888.6,600.917Z" transform="translate(204.115 -69.476)" fill="#65617d"/><path d="M852.6,636.108c.839,10.929-.174,27.75-3.534,36.822a45.517,45.517,0,0,0-2.521,17.992,5.472,5.472,0,0,1-4.6.88c1.023-7.093,5.339-37.656,8.106-61.806a101.135,101.135,0,0,1,17.9-46.417l2.941,3.237C862.857,591.031,852.6,636.108,852.6,636.108Z" transform="translate(194.03 -101.302)" opacity="0.1"/><path d="M904.515,321.371l-2.046,10.09-10.06,16.9-12.4-5.3s-16.877-17.659-6.265-20.181a9.391,9.391,0,0,0,3.519-1.565,7.277,7.277,0,0,0,2.746-6.086A18.657,18.657,0,0,0,878.3,308l21.695-6.812a34.827,34.827,0,0,0-1.534,8.786c-.169,5.912,2.046,8.822,3.831,10.229A6.519,6.519,0,0,0,904.515,321.371Z" transform="translate(180.204 36.667)" fill="#fbbebe"/><path d="M907.674,301.19a34.821,34.821,0,0,0-1.534,8.786,16.492,16.492,0,0,1-1.263,1.345,17.163,17.163,0,0,1-17.153,3.912A18.657,18.657,0,0,0,886,308Z" transform="translate(172.504 36.667)" opacity="0.1"/><path d="M900.467,279.373a17.076,17.076,0,1,1-5-12.153A17.158,17.158,0,0,1,900.467,279.373Z" transform="translate(182.202 55.707)" fill="#fbbebe"/><path d="M904.515,339.521l-2.046,10.09-10.06,16.9-12.4-5.3s-16.877-17.659-6.265-20.181a9.39,9.39,0,0,0,3.519-1.565c-1.913,5.257,5.984,16.2,5.984,16.2.921,1.355,3.028.511,3.028.511,5.089-.772,14.453-15.4,15.982-17.839A6.516,6.516,0,0,0,904.515,339.521Z" transform="translate(180.204 18.516)" opacity="0.1"/><path d="M901.569,525.329c-2.987.68-19.511,4.337-25.776,3.421-6.894-1.023-20.3-1.677-20.3-1.677s-8.536.46-11.164-.742v-.511l4.869-5.83s47.092-3.534,50.631,0C900.714,520.874,901.251,522.848,901.569,525.329Z" transform="translate(192.863 -69.466)" opacity="0.1"/><path d="M859.4,356.325s-8.873-12.274-5.529-17.082l-14.99,6.137s-9.022-1.094-12.274,12.371a23.43,23.43,0,0,0-.557,6.833,20.215,20.215,0,0,1-2.47,10.229c-3.7,7.4-2.859,24.39,4.71,26.083s10.254.839,10.254.839-1.023,30.778-5.38,34.311,11.149,2.69,11.149,2.69,13.4.675,20.3,1.683,26.236-3.534,26.236-3.534S888,423.935,886.986,415.7s-3.37-25.791-3.37-25.791l17.153-23.239S903.8,352.622,893.2,346.4s-14.581-7.748-14.581-7.748-10.648,17.337-16.2,18.176C862.432,356.826,860.326,357.675,859.4,356.325Z" transform="translate(204.039 18.365)" fill="#6c63ff"/><path d="M854.449,382.74s-.164,5.554.844,7.738S860,404.8,860,404.8H851.59s4.541-4.879,4.209-7.237S854.449,382.74,854.449,382.74Z" transform="translate(189.316 -3.176)" opacity="0.1"/><path d="M880.254,442.112s-18.575-4.541-20.3-8.408-6.5-12.525-6.5-12.525l1.959-2.639,9.032,7.088s10.74,8.577,15.813,9.42S880.254,442.112,880.254,442.112Z" transform="translate(188.407 -20.667)" fill="#fbbebe"/><path d="M880.254,442.112s-18.575-4.541-20.3-8.408-6.5-12.525-6.5-12.525l1.959-2.639,9.032,7.088s10.74,8.577,15.813,9.42S880.254,442.112,880.254,442.112Z" transform="translate(188.407 -20.667)" opacity="0.05"/><path d="M905.2,421.773v10.075h-1.616a47.1,47.1,0,0,0-22.879,5.927l-3.03,1.678-.813.455-5.216-11.763,4.879-4.373h.251c1.192.118,6.352.547,8.541-.189,2.076-.706,4.654-2.941,10.771-1.381,3.012.772,5.59,4.148,8.51,3.094Z" transform="translate(179.515 -22.192)" fill="#fbbebe"/><path d="M934.013,375.078l3.36,3.785v9.17s-2.859,28.926-11.937,32.123-25.3-1.851-25.3-1.851-4.189-11.1-2.23-11.763,17.312-4.726,17.312-4.726-.215-16.969,3.145-22.017c0,0-2.184-15.808,5.385-16.146S934.013,375.078,934.013,375.078Z" transform="translate(166.939 6.152)" opacity="0.1"/><path d="M935.016,375.078l3.365,3.785v9.17s-2.859,28.926-11.942,32.123-25.3-1.851-25.3-1.851-4.188-11.1-2.225-11.763,17.312-4.726,17.312-4.726-.22-16.969,3.145-22.017c0,0-2.189-15.808,5.38-16.146S935.016,375.078,935.016,375.078Z" transform="translate(166.448 6.152)" fill="#6c63ff"/><path d="M899.113,286.6a6.76,6.76,0,0,0-.384-3.278,2.5,2.5,0,0,0-2.67-1.534c-1.437.338-2.046,2.209-3.467,2.659a2.771,2.771,0,0,1-3.069-1.575,7.847,7.847,0,0,1-.583-3.662v-4.214c0-1.534-.051-3.181-.992-4.383-1.171-1.493-3.928-2.148-5.769-2.087a4.895,4.895,0,0,0-3.294,1.325,4.239,4.239,0,0,1-3.462,1.233,2.981,2.981,0,0,1-2.414-2.087v-.051a17.153,17.153,0,1,1,25.5,22.769,46.253,46.253,0,0,0,.6-5.114Z" transform="translate(178.85 55.765)" opacity="0.1"/><path d="M871.176,260.642a3.007,3.007,0,0,1-2.419-2.092c-.138-.542-.1-1.12-.261-1.657-.394-1.325-1.805-2.01-2.751-3.017-1.892-2.01-1.77-5.314-.43-7.733,1.084-1.949,3.181-3.58,5.38-3.212,1.36.235,2.557,1.2,3.918,1.294s2.557-.66,3.749-1.212a14.125,14.125,0,0,1,9.318-.829,5.369,5.369,0,0,1,2.557,1.294A22.32,22.32,0,0,1,891.6,245.4c1.565,1.995,4.373,2.388,6.874,2.838s5.329,1.442,6.137,3.846c.547,1.6,0,3.324-.3,4.981a1.5,1.5,0,0,0,.067,1.023c.394.644,1.37.373,2.107.511,1.417.3,1.78,2.128,1.836,3.58q.087,2.486.133,4.976a6.338,6.338,0,0,1-.148,1.841,6.5,6.5,0,0,1-1.427,2.317l-5.554,6.674c-2.465,2.956-5.078,6.4-4.6,10.228-1.166.511-2.557-.486-2.936-1.708a7.638,7.638,0,0,1,.184-3.79,46.475,46.475,0,0,0,.89-6.572,6.741,6.741,0,0,0-.384-3.273,2.5,2.5,0,0,0-2.67-1.534c-1.442.338-2.046,2.209-3.467,2.659a2.771,2.771,0,0,1-3.069-1.575,7.825,7.825,0,0,1-.583-3.657v-4.219c0-1.534-.051-3.181-.992-4.383-1.171-1.493-3.928-2.148-5.769-2.087a4.894,4.894,0,0,0-3.288,1.325A4.247,4.247,0,0,1,871.176,260.642Z" transform="translate(183.099 65.708)" fill="#7c5c5c"/><path d="M885.3,381.92l5.268,21.638S894.72,403.533,885.3,381.92Z" transform="translate(172.846 -2.776)" opacity="0.1"/><path d="M915.879,374.85s-6.894,11.292-4.2,22.973l1.284.092S910.667,392.509,915.879,374.85Z" transform="translate(160.264 0.678)" opacity="0.1"/><path d="M929,499.246s8.469-2.8,9.083,3.7C938.1,502.944,936.508,498.489,929,499.246Z" transform="translate(151.495 -59.805)" opacity="0.1"/><path d="M867.358,426.81s-1.683,11.763,1.345,16.483a36.886,36.886,0,0,1-14.8,2.02l-1.023-18.5Z" transform="translate(188.685 -24.708)" opacity="0.1"/><path d="M877.68,441.47l-.813.455-5.216-11.763,4.879-4.373h.251C876.7,426.373,875.342,436.484,877.68,441.47Z" transform="translate(179.515 -24.21)" opacity="0.1"/><path d="M862.712,425.83s-1.683,11.763,1.345,16.478a36.779,36.779,0,0,1-14.8,2.02l-5.887-18.5Z" transform="translate(193.332 -24.229)" fill="#6c63ff"/><g transform="translate(1047.398 315.411)" opacity="0.1"><path d="M942.435,268.422v-.082a15.062,15.062,0,0,0,.511-3.82,25.209,25.209,0,0,1-.511,3.069A1.863,1.863,0,0,0,942.435,268.422Z" transform="translate(-902.444 -260.828)"/><path d="M894.462,280.636a4.863,4.863,0,0,1,.414,1.923,5.8,5.8,0,0,0-.414-2.68,2.486,2.486,0,0,0-2.665-1.534c-1.442.338-2.046,2.209-3.473,2.659a2.777,2.777,0,0,1-3.069-1.575,7.782,7.782,0,0,1-.583-3.662v-4.214c0-1.534-.051-3.181-.992-4.383-1.176-1.5-3.928-2.148-5.769-2.092a4.9,4.9,0,0,0-3.294,1.33,4.249,4.249,0,0,1-3.467,1.233,3,3,0,0,1-2.414-2.087c-.138-.542-.1-1.125-.261-1.662-.394-1.319-1.805-2.01-2.751-3.012a5.508,5.508,0,0,1-1.417-3.58,5.733,5.733,0,0,0,1.417,4.311c.946,1.023,2.358,1.693,2.751,3.012.159.511.123,1.12.261,1.662a3,3,0,0,0,2.414,2.087,4.249,4.249,0,0,0,3.467-1.233,4.9,4.9,0,0,1,3.294-1.33c1.841-.056,4.6.593,5.769,2.092.941,1.2.987,2.854.992,4.383V276.5a7.74,7.74,0,0,0,.583,3.657,2.784,2.784,0,0,0,3.069,1.58c1.411-.45,2.046-2.322,3.473-2.659A2.583,2.583,0,0,1,894.462,280.636Z" transform="translate(-864.285 -257.3)"/><path d="M939.237,292.839a6.465,6.465,0,0,1-1.432,2.312l-5.554,6.674c-2.337,2.808-4.807,6.06-4.6,9.645.169-3.288,2.46-6.28,4.6-8.889l5.554-6.674a6.465,6.465,0,0,0,1.432-2.312,6.382,6.382,0,0,0,.148-1.846A4.854,4.854,0,0,1,939.237,292.839Z" transform="translate(-895.237 -274.132)"/><path d="M921.824,327.25a3.935,3.935,0,0,1-.169-.9,4.535,4.535,0,0,0,.169,1.657c.379,1.217,1.764,2.225,2.936,1.7a7.182,7.182,0,0,1-.061-.736A2.377,2.377,0,0,1,921.824,327.25Z" transform="translate(-892.307 -291.036)"/></g><path d="M945.43,641.23s-3.882,2.424-4,3.81,2-1.023,2-1.023Z" transform="translate(145.427 -129.468)" opacity="0.1"/><path d="M945.6,677.59a8.116,8.116,0,0,1-4.782,1.867c-2.9.128-2.659,3.912-.762,2.777A47.6,47.6,0,0,0,945.6,677.59Z" transform="translate(146.788 -147.233)" opacity="0.1"/><path d="M950.475,682.34s-1.862,9.149-3.375,7.385" transform="translate(142.652 -149.554)" opacity="0.1"/><path d="M245.128,529.858s11.686,3.207,17.312-1.059S270.5,525.9,270.5,525.9s13.415-.742,14.519-3.912-5.145-14.688-5.145-14.688c-.445-1.023-1.094-2.322-1.386-2.322l.061-4.859h0l1.943-20.329c4.485-11.5.082-26.364.082-26.364l-.8-3.687a9.328,9.328,0,0,1,.762-6.137l8.147-16.366a24.491,24.491,0,0,1,1.534-3.14c.511-.936,1.192-2.092,2.046-3.478.251-.4.511-.813.8-1.248.987-1.534,2.184-3.273,3.631-5.278,3.606-5,5.5-11.251,6.485-15.854l.435,1.442h.1l.118.026h.194l.21.036h.077l2.506,31.892c.153,12.438,4.72,19.322,4.72,19.322l-.629,27.458c.859,6.613-1.023,15.43-1.887,18.948l-1.974,4.455a5.354,5.354,0,0,0-2.91,4.05c-.389,3.288-3.851,10.377-3.851,10.377-1.34,1.7-4.25,6.285-4.25,6.285s-1.371,4.429-.522,6.086,7.948,1.488,7.948,1.488c8.106,1.8,14.32-2.557,13.926-5.554s1.263-3.759,1.263-3.759c3.222-1.023,2.91-3.207,2.91-3.207a20.068,20.068,0,0,0-2.439-13.062l-.511,1.181a17.986,17.986,0,0,1,.972-6.971l-.3.2-.092.056h-.031c.511-4.485,5.222-12.786,5.222-12.786,8.653-15.179,5.508-35.749,5.508-35.749l-1.34-6.413-.077-2.419a80.742,80.742,0,0,1,1.3-17.235c.465-2.516.946-5.554,1.314-8.9a78.7,78.7,0,0,1,4.439-17.475l.343-.061h.041c.471-.082.946-.164,1.427-.256h.092s.276-1.493.511-4.035c.138-1.621.251-3.677.251-6.04a67.955,67.955,0,0,0-3.227-21.025l.261-.373s.619-.839,1.749-2.291h0c2.076-2.639,5.309-6.648,9.293-11.169,7.134-8.137,5.038-16.366,5.038-16.366s-5.165-18.928-7.467-30.292a34.448,34.448,0,0,0-5.667-13.476,26.823,26.823,0,0,0,.716-5.462c.153-3.365.036-6.874-1.478-9.9s-4.736-5.411-8.1-5.007a3.1,3.1,0,0,1-1.452,0,2.209,2.209,0,0,1-.956-.834c-1.969-2.716-2.1-6.367-1.483-9.661s1.872-6.444,2.434-9.748.307-6.971-1.8-9.589c-2.47-3.069-6.776-3.933-9.988-6.239-2.255-1.621-3.948-3.948-6.326-5.385s-4.6-.89-7.186-.348c-4.342.915-8.469,1.335-12.576,3.2a33.492,33.492,0,0,0-10.96,7.973,10.4,10.4,0,0,0-2.445,3.856c-1.023,3.381.977,6.981.557,10.479-.3,2.48-1.759,4.639-2.92,6.853s-2.046,4.843-1.135,7.16c1.432,3.621,6.1,4.388,9.5,6.316a2.9,2.9,0,0,1,1.125.977c.839,1.463-.875,2.982-1.954,4.281a6.449,6.449,0,0,0-1.279,2.6,9.267,9.267,0,0,0-5.559,6.71c-1.151,5.15.619,11.65,2.179,15.946-1.7,9.569.511,13.343,2.143,14.79a8.208,8.208,0,0,1,2.843,5.595v.179c.107,1.739.292,3.473.537,5.2h0c-.056-.4-.112-.834-.143-1.023-1.335,2.47-3.877,8.781-5.309,19.4a58.314,58.314,0,0,1-1.294,6.756,36.948,36.948,0,0,0-1.084,12.08l.256,3.442a1.084,1.084,0,0,1-.7-.23l1.8,3.288v5.549a20.457,20.457,0,0,1-1.36,7.318c-.128.338-.266.675-.414,1.023a5.953,5.953,0,0,0-.6,3.012c-3.861,5.917-12.714,39.078-12.714,39.078-4.8,10.873.394,17.9.394,17.9s2.516,30.271,2.987,31.836,1.514,20.017,1.514,20.017h0v1.468a3.444,3.444,0,0,0-.875-.251c-4.209-.235-5.349,6.413-5.349,6.413l-8.612,8.224s-3.933-.665-9.717,3.677S245.128,529.858,245.128,529.858Zm86-174.953-.026-.092-.235.138h0l-.1.056-.046.031h0l-3.969-14.008a23.259,23.259,0,0,1-.292-11.522l3.069-13.44h0v-3.232l9.753,25.991C339.9,342.329,334.11,350.814,331.124,354.905Z" transform="translate(488.356 71.5)" fill="url(#d)"/><path d="M397.026,557a80.542,80.542,0,0,0-4.94,18.769c-.363,3.314-.834,6.311-1.294,8.8a80.388,80.388,0,0,0-1.258,17.015l.077,2.388,1.279,6.326s3.069,20.319-5.406,35.288c0,0-5.022,8.965-5.176,13.21l-3.4,1.314-6.874-1.928s3.319-11.9,2.24-20.242l.619-27.105s-4.465-6.782-4.618-19.056l-2.624-33.682Z" transform="translate(426.734 -88.316)" fill="#fdc2cc"/><path d="M323.291,547.62s-.844,13.133-7.339,22.186-7.876,12.98-7.876,12.98l-8,16.171a9.261,9.261,0,0,0-.752,6.05l.788,3.641s4.327,14.678-.077,26.037l-2.087,21.94h-12.2s-1.023-18.232-1.468-19.777-2.936-31.442-2.936-31.442-5.114-6.955-.389-17.69c0,0,10.663-40.172,13.517-39.477S323.291,547.62,323.291,547.62Z" transform="translate(469.093 -83.733)" fill="#fdc2cc"/><g transform="translate(765.806 463.887)" opacity="0.1"><path d="M315.843,608.674l-.783-3.641a9.205,9.205,0,0,1,.747-6.076l8-16.187s1.386-3.938,7.876-12.98c6.234-8.694,7.262-21.152,7.334-22.109l1.243-.061s-.844,13.133-7.339,22.186-7.876,12.98-7.876,12.98l-8,16.171a9.261,9.261,0,0,0-.752,6.05l.788,3.641s4.327,14.678-.077,26.037l-2.087,21.94H313.68l2.087-21.94C320.17,623.326,315.843,608.674,315.843,608.674Z" transform="translate(-313.68 -547.62)"/></g><path d="M389.16,658.809c.153-4.245,5.176-13.21,5.176-13.21,8.5-14.985,5.406-35.288,5.406-35.288l-1.309-6.331-.077-2.388a80.382,80.382,0,0,1,1.258-17.015c.455-2.485.926-5.482,1.289-8.8a80.531,80.531,0,0,1,4.925-18.728L407.1,557a80.544,80.544,0,0,0-4.94,18.769c-.363,3.314-.834,6.311-1.294,8.8a80.386,80.386,0,0,0-1.258,17.015l.077,2.388,1.279,6.326s3.069,20.319-5.406,35.288c0,0-5.022,8.965-5.176,13.21l-3.4,1.314-.716-.2Z" transform="translate(416.665 -88.316)" opacity="0.1"/><path d="M376.765,753.87a5.912,5.912,0,0,0,5.626-.7,18.156,18.156,0,0,0-.46,10.2c1.391,5.564-12.98-4.48-12.98-4.48l3.069-7.012S373.21,754.1,376.765,753.87Z" transform="translate(425.122 -183.529)" fill="#d39999"/><path d="M377.843,754.167a5.743,5.743,0,0,0,4.567-1.023,18.156,18.156,0,0,0-.46,10.2c1.391,5.564-12.98-4.48-12.98-4.48l3.069-7.012a4.384,4.384,0,0,0,3.5,1.974C376.335,753.916,377.091,754.023,377.843,754.167Z" transform="translate(425.112 -183.515)" opacity="0.1"/><path d="M289.32,448.184h6V414.118l-4.506-.808Z" transform="translate(479.963 -7.812)" fill="#fdc2cc"/><path d="M289.32,448.184h6V414.118l-4.506-.808Z" transform="translate(479.963 -7.812)" opacity="0.05"/><path d="M363.354,760.326a5.986,5.986,0,0,1,5.482,3.166l2.087,1.621,1.023-2.394a19.946,19.946,0,0,1,2.363,12.9s.307,2.158-2.859,3.166c0,0-1.621.772-1.238,3.708s-5.713,7.262-13.67,5.482c0,0-6.955.159-7.8-1.468s.542-5.948.542-5.948,2.859-4.531,4.168-6.2c0,0,3.4-7.007,3.79-10.229S361.344,758.546,363.354,760.326Z" transform="translate(435.131 -187.357)" fill="#7e5659"/><path d="M304.038,761.663l.061-4.8s-6.909,1.989-12.5-.261c0,0,.47,4.828-.307,5.488s2.588,6.874,2.588,6.874l3.759,3.938,6.464-2.353,1.754-5.523S304.5,761.663,304.038,761.663Z" transform="translate(463.122 -185.835)" fill="#d39999"/><path d="M304.038,761.663l.061-4.8s-6.909,1.989-12.5-.261c0,0,.47,4.828-.307,5.488s2.588,6.874,2.588,6.874l3.759,3.938,6.464-2.353,1.754-5.523S304.5,761.663,304.038,761.663Z" transform="translate(463.122 -185.835)" opacity="0.1"/><path d="M266.609,763.094s3.672.424,3.207,5.114.194,0,.194,0,3.9,1.58,5.293,3.785,3.9-1.969,4.091-3.166,1.754-1.693,1.754-1.693,6.137,11.379,5.053,14.509-14.259,3.851-14.259,3.851-2.4-1.35-7.922,2.859-16.995,1.023-16.995,1.023-9.349-3.9-3.667-8.183,9.538-3.631,9.538-3.631l8.459-8.152S262.477,762.859,266.609,763.094Z" transform="translate(487.377 -189.005)" fill="#7e5659"/><path d="M341.582,236.212c2.337,1.417,4,3.718,6.214,5.319,3.15,2.276,7.38,3.125,9.8,6.163,2.046,2.588,2.312,6.2,1.759,9.466s-1.79,6.377-2.388,9.63-.476,6.858,1.458,9.538a2.164,2.164,0,0,0,.936.823,3.067,3.067,0,0,0,1.427,0c3.3-.4,6.475,1.964,7.958,4.945s1.6,6.449,1.447,9.773a20.2,20.2,0,0,1-1.631,7.963c-2.046,4.173-6.3,6.751-10.5,8.725a81.33,81.33,0,0,1-8.382,3.386,12.615,12.615,0,0,1-6.076.915c-3.493-.6-5.968-3.779-9.282-5.022-2.716-1.023-5.728-.655-8.617-.4-2.465.215-5.283.21-6.981-1.591-2.179-2.312-1.2-6.04-.082-9.016a6.418,6.418,0,0,1-4.541-10.494c1.053-1.284,2.736-2.782,1.913-4.229a2.8,2.8,0,0,0-1.1-.961c-3.329-1.9-7.917-2.664-9.318-6.234-.9-2.3-.031-4.894,1.11-7.078s2.557-4.322,2.869-6.766c.409-3.457-1.534-7.012-.547-10.346a10.371,10.371,0,0,1,2.4-3.815,32.915,32.915,0,0,1,10.74-7.871c4.035-1.846,8.08-2.26,12.346-3.161C337.066,235.332,339.184,234.759,341.582,236.212Z" transform="translate(456.259 68.863)" fill="#865a61"/><path d="M320.75,337.754s-9.784-.511-11.635,7.83,4.015,20.288,4.015,20.288Z" transform="translate(454.533 18.806)" fill="#fdc2cc"/><path d="M320.75,337.754s-9.784-.511-11.635,7.83,4.015,20.288,4.015,20.288Z" transform="translate(454.533 18.806)" opacity="0.05"/><path d="M320,343.259l3.708,2.936,17.3.772,10.8-7.416L362.8,320.7a13.581,13.581,0,0,1-10.443-10.689,23.4,23.4,0,0,1-.215-8.929s-17.613-9.119-15.45,5.114a19.332,19.332,0,0,1,.164,5.288c-1.023,8.336-9.114,6.766-9.114,6.766l-3.1,4.787L321.079,334.8Z" transform="translate(449.038 38.125)" fill="#fdc2cc"/><path d="M352.484,306.172a19.333,19.333,0,0,1,.164,5.288,15.614,15.614,0,0,0,15.5-1.452,23.4,23.4,0,0,1-.215-8.929S350.321,291.96,352.484,306.172Z" transform="translate(433.257 38.129)" opacity="0.1"/><circle cx="15.604" cy="15.604" r="15.604" transform="translate(776.791 319.175)" fill="#fdc2cc"/><path d="M328.659,359.159c.378,0,.752.056,1.125.092,2.046.2,10.592.665,15.46-5.15,5.447-6.505,12.7-14.54,13-14.867l7.38,2.23s-5.841-2.076-9.717,8.786a11.251,11.251,0,0,0,3.8,12.944,11.691,11.691,0,0,0,4.828,2.046.025.025,0,0,1,0,.026v4.766h0l-3.017,13.3a23.05,23.05,0,0,0,.286,11.379l4.6,16.268c-.7.481-29.253,19.9-48.33,6.49h0c.072-.583,2.429-19.674.793-29.018a64.547,64.547,0,0,1-.854-7.221c0-.061,0-.118,0-.179a8.142,8.142,0,0,0-2.8-5.523c-1.718-1.534-4.045-5.626-1.744-16.437a39.718,39.718,0,0,1,2.557-7.789l6.4-14.458h0l5.9.118V337c-.511.634-7.349,9.175-8.091,14.678C319.5,356.908,318.61,358.514,328.659,359.159Z" transform="translate(452.699 19.249)" fill="#6c63ff"/><path d="M398.719,348.194s5.769,4.946,8.035,16.171,7.313,29.872,7.313,29.872,2.046,8.137-4.945,16.171-11.64,14.32-11.64,14.32l-4.6,6.781a5.773,5.773,0,0,1-3.314,2.342c-2.1.552-5.319.951-8.111-.578a4.726,4.726,0,0,1-2.046-5.968l1.023-2.368s-9.477,5.974-10.3,2.675,11.021-6.592,11.021-6.592,9.784-1.647,11.763-6.28c0,0,10.5-13.5,9.681-18.13l-10.147-27.192s-12.688-1.677-8.362-15.931S398.719,348.194,398.719,348.194Z" transform="translate(424.565 15.06)" fill="#fdc2cc"/><path d="M307.357,514.846s23.178,4.633,28.64,4.015l.588,1.959s8.8,1.969,28.686-1.187q1.949-.307,4.045-.69l.465-.082s.271-1.473.486-3.984a69.091,69.091,0,0,0-3.37-28.047l-3.345-10.3s-20.672,12.392-34.357,11.251c-1.222-.1-2.434-.2-3.657-.24-2.808-.107-7.16,0-9.988-2.266l-5.933,1.023v16.877a20.221,20.221,0,0,1-1.34,7.221c-.128.337-.261.67-.409,1.023A5.37,5.37,0,0,0,307.357,514.846Z" transform="translate(455.257 -49)" fill="#65617d"/><path d="M364.58,552.2v5.252s10.126,2.266,33.2-1.959c0,0,.271-1.473.486-3.984C391.184,552.645,371.663,555.376,364.58,552.2Z" transform="translate(427.257 -85.633)" opacity="0.1"/><path d="M307.359,547.219s23.178,4.633,28.64,4.015l.588,1.959V547.94c-2.639,1.095-21.48-3.447-28.307-5.15-.128.338-.261.67-.409,1.023a5.37,5.37,0,0,0-.511,3.406Z" transform="translate(455.255 -81.373)" opacity="0.1"/><path d="M417.31,536.854l1.718,10.658q1.948-.307,4.045-.69c-.537-3.115-1.708-10.229-1.386-11.41l-2.163-1.851Z" transform="translate(401.495 -76.863)" fill="#65617d"/><path d="M417.78,536.4l1.718,10.663q1.948-.312,4.045-.69c-.537-3.115-1.708-10.229-1.386-11.41l-2.163-1.856Z" transform="translate(401.265 -76.644)" opacity="0.1"/><g transform="translate(769.81 427.515)" opacity="0.05"><path d="M334.909,496.126c-1.217-.1-2.434-.2-3.657-.24-2.731-.1-6.9,0-9.743-2.092l.992-.174c2.844,2.255,7.16,2.158,9.988,2.266,1.222.041,2.434.138,3.657.24.4.036.808.056,1.222.066A22.944,22.944,0,0,1,334.909,496.126Z" transform="translate(-321.51 -484.864)"/><path d="M399.5,519.618q1.948-.307,4.045-.685l.471-.087s.271-1.473.481-3.984a68.909,68.909,0,0,0-3.37-28.046l-3.15-9.717c.67-.378,1.023-.6,1.023-.6l3.345,10.3a69.09,69.09,0,0,1,3.37,28.047c-.215,2.511-.486,3.984-.486,3.984l-.465.087q-2.092.378-4.045.685a127.392,127.392,0,0,1-20.841,1.79A131.415,131.415,0,0,0,399.5,519.618Z" transform="translate(-350.028 -476.5)"/><path d="M360.365,559.3v.056H359.7Q360.078,559.331,360.365,559.3Z" transform="translate(-340.169 -516.954)"/></g><ellipse cx="0.875" cy="1.8" rx="0.875" ry="1.8" transform="translate(820.809 458.379)" fill="#d39999"/><path d="M311.474,450.793c1.412-10.484,3.9-16.713,5.217-19.153.051.332.184,1.412.245,1.744a50.632,50.632,0,0,1,.113,5.416l-1.309,23.71,1.754,7.416c1.647,5.871-4.455,1.233-4.455,1.233-1.263,2.782-3.58,2.475-3.58,2.475l-.317-4.255a36.751,36.751,0,0,1,1.064-11.932,56.867,56.867,0,0,0,1.268-6.654Z" transform="translate(454.393 -27.068)" fill="#fdc2cc"/><path d="M311.474,450.793c1.412-10.484,3.9-16.713,5.217-19.153.051.332.184,1.412.245,1.744a50.632,50.632,0,0,1,.113,5.416l-1.309,23.71,1.754,7.416c1.647,5.871-4.455,1.233-4.455,1.233-1.263,2.782-3.58,2.475-3.58,2.475l-.317-4.255a36.751,36.751,0,0,1,1.064-11.932,56.867,56.867,0,0,0,1.268-6.654Z" transform="translate(454.393 -27.068)" opacity="0.05"/><path d="M400.77,484.065c-1.11,1.437-1.718,2.261-1.718,2.261l-4.6,6.776a5.748,5.748,0,0,1-3.314,2.342c-2.1.552-5.319.956-8.111-.578a4.715,4.715,0,0,1-2.046-5.963L382,486.53s-9.477,5.973-10.3,2.68,11.021-6.592,11.021-6.592,9.784-1.647,11.763-6.285c0,0,.854-1.094,2.046-2.772" transform="translate(423.798 -47.549)" fill="#fdc2cc"/><path d="M401.661,509.147s-11.205-1.089-14.755-7.5l-1.626,5.293s11.763,8.121,14.448,7.068Z" transform="translate(417.144 -61.273)" fill="#65617d"/><path d="M400.886,509.043s-11.2-1.089-14.755-7.5l-1.621,5.278s11.763,8.121,14.443,7.068Z" transform="translate(417.52 -61.219)" opacity="0.1"/><path d="M313.095,510.46s-3.923,1.391-4.695.619l1.764,3.248,3.335-2.557Z" transform="translate(454.705 -65.577)" fill="#65617d"/><path d="M313.095,510.46s-3.923,1.391-4.695.619l1.764,3.248,3.335-2.557Z" transform="translate(454.705 -65.577)" opacity="0.1"/><path d="M331.881,526.246V519.47l-1.611,6.94Z" transform="translate(459.956 -59.679)" opacity="0.1"/><path d="M361.834,265.041a6.018,6.018,0,0,1-4.2,2.214,33.131,33.131,0,0,1-4.884,0,12.249,12.249,0,0,0-7.37,1.856,18.736,18.736,0,0,0-3.381,3.58c-3.161,3.861-7.549,7.477-12.53,7.073a3.248,3.248,0,0,1-2.327-.982,3.733,3.733,0,0,1-.593-2.117,48.4,48.4,0,0,1,.3-9.543,20.121,20.121,0,0,1,1.442-5.692,19.434,19.434,0,0,1,3.467-4.951,21.208,21.208,0,0,1,6.05-4.848,10.853,10.853,0,0,1,7.569-.977c2.982.813,5.3,3.145,8.147,4.347C356.771,256.367,365.393,260.014,361.834,265.041Z" transform="translate(445.893 61.498)" opacity="0.1"/><path d="M361.834,263.826a6.018,6.018,0,0,1-4.2,2.214,33.134,33.134,0,0,1-4.884,0,12.209,12.209,0,0,0-7.37,1.851,18.736,18.736,0,0,0-3.381,3.58c-3.161,3.861-7.549,7.477-12.53,7.073a3.227,3.227,0,0,1-2.327-.982,3.718,3.718,0,0,1-.593-2.117,48.4,48.4,0,0,1,.3-9.543,20.119,20.119,0,0,1,1.442-5.692,19.3,19.3,0,0,1,3.467-4.945,21.137,21.137,0,0,1,6.05-4.853,10.853,10.853,0,0,1,7.569-.977c2.982.813,5.3,3.145,8.147,4.347C356.771,255.152,365.393,258.789,361.834,263.826Z" transform="translate(445.893 62.094)" fill="#865a61"/><path d="M291.86,473.47l-.041,1.867-.419-1.785Z" transform="translate(478.947 -37.205)" fill="#fdc2cc"/><path d="M291.86,473.47l-.041,1.867-.419-1.785Z" transform="translate(478.947 -37.205)" opacity="0.05"/><g transform="translate(807.489 360.912)" opacity="0.05"><path d="M397.944,352.929c-4.332,14.253,8.3,15.926,8.3,15.926l10.147,27.192c.823,4.633-9.686,18.13-9.686,18.13-.731,1.729-2.557,3.043-4.552,4.015a7.129,7.129,0,0,0,2.7-2.966s10.5-13.491,9.681-18.125l-10.147-27.2s-12.622-1.672-8.3-15.926c1.447-4.761,3.58-6.93,5.738-7.707C400.337,347.467,398.972,349.538,397.944,352.929Z" transform="translate(-395.184 -346.27)"/></g><g transform="translate(765.242 356.084)" opacity="0.1"><path d="M401,384.61a10.657,10.657,0,0,0,2.046,1.938,11.625,11.625,0,0,0,4.828,2.046v.537a11.59,11.59,0,0,1-4.378-1.938,10.612,10.612,0,0,1-2.5-2.583Z" transform="translate(-355.779 -360.174)"/><path d="M322.536,420.2v.179a66.067,66.067,0,0,0,.88,7.247c1.534,8.817-.476,26.323-.762,28.742-.164-.107-.327-.21-.511-.327.077-.583,2.434-19.674.8-29.013a64.792,64.792,0,0,1-.854-7.221v-.179a7.891,7.891,0,0,0-1.376-3.912A7.952,7.952,0,0,1,322.536,420.2Z" transform="translate(-316.551 -375.369)"/><path d="M327.978,337.531l-5-.1a.025.025,0,0,0-.026,0l-6.393,14.453A39.844,39.844,0,0,0,314,359.675c-1.862,8.745-.69,13.1.731,15.256-1.6-1.887-3.253-6.188-1.192-15.854a39.424,39.424,0,0,1,2.532-7.794l6.439-14.453h0l5.9.118v.036C328.361,337.045,328.2,337.239,327.978,337.531Z" transform="translate(-312.577 -336.83)"/><path d="M416.39,345.87l.087.026Z" transform="translate(-363.298 -341.247)"/><path d="M371.589,343.678l-5.012-1.509h-.026c-.3.327-7.543,8.362-12.99,14.867-4.869,5.815-13.4,5.36-15.46,5.155-.373-.041-.752-.072-1.125-.1-5.59-.358-7.789-1.023-8.525-2.434,1.048,1.023,3.355,1.534,8.06,1.821.378,0,.752.056,1.125.092,2.046.2,10.592.66,15.46-5.15,5.447-6.51,12.7-14.545,13-14.872h0l7.293,2.209a4.556,4.556,0,0,0-1.8-.082Z" transform="translate(-320.332 -339.136)"/></g><path d="M589.05,760.251s1.938,1.371,4.669,3.58a9.367,9.367,0,0,0,1.345.931,7.552,7.552,0,0,0,2.654-5.17c.056-.511.143-1.069.24-1.6a11.2,11.2,0,0,0-.537-5.4h0C593.6,752.866,589.05,760.251,589.05,760.251Z" transform="translate(317.586 -183.876)" opacity="0.1"/><ellipse cx="13.773" cy="2.327" rx="13.773" ry="2.327" transform="translate(706.046 558.005)" fill="#6c63ff" opacity="0.1"/></g></svg>