<svg xmlns="http://www.w3.org/2000/svg" width="922" height="729" viewBox="0 0 922 729"><g transform="translate(-44 266)"><g transform="translate(44 -266)" fill="#0e3e7d" stroke="#707070" stroke-width="1"><rect width="922" height="729" stroke="none"/><rect x="0.5" y="0.5" width="921" height="728" fill="none"/></g><g transform="translate(60.023 -223.05)"><path d="M175.953,489.642l-4.73-2.94c-.451-.278-.895-.579-1.346-.865a45.014,45.014,0,0,0,4.55-87.7l.233,18.544L164.47,396.509h-.128a45.021,45.021,0,0,0-47.059,42.863c-.045.865,0,1.707,0,2.557a53.838,53.838,0,0,1-8.9-13.137c-4.309-9.618-4.392-20.514-4.053-33.764.677-26.244,1.812-52.7,3.286-79.064A45.006,45.006,0,0,0,147.6,273.371c.06-1.376.038-2.73,0-4.083a6.465,6.465,0,0,0-.053-1.008c-.09-1.308-.211-2.6-.414-3.88a3.426,3.426,0,0,0-.113-.617c-.18-1.083-.406-2.151-.662-3.2-.1-.4-.2-.79-.3-1.181-.316-1.151-.662-2.256-1.068-3.4-.135-.368-.286-.752-.436-1.1-.316-.82-.662-1.632-1.03-2.429-.2-.421-.383-.842-.587-1.256-.06-.105-.1-.218-.158-.323h0a45,45,0,0,0-52.85-22.83l.3,24.139L80.15,232.26a44.8,44.8,0,0,0-21.469,48.511h-.09c.068.323.165.632.241.948.143.594.293,1.181.459,1.767q.327,1.128.7,2.256c.188.556.368,1.105.579,1.654.308.8.654,1.572,1,2.346.2.451.384.917.6,1.361q.857,1.745,1.865,3.406c.233.391.5.752.752,1.135.481.752.963,1.5,1.5,2.2.323.444.669.872,1.008,1.3.5.624,1,1.241,1.5,1.835.368.429.752.842,1.135,1.248.556.587,1.12,1.151,1.707,1.7.391.368.752.752,1.181,1.1.662.594,1.354,1.151,2.053,1.7.353.278.7.564,1.06.835q1.6,1.128,3.3,2.256c.211.128.444.233.654.361.955.556,1.918,1.09,2.91,1.572.429.211.865.4,1.3.594.812.361,1.632.714,2.474,1.038l1.5.526c.827.278,1.669.541,2.519.752.5.135,1,.278,1.5.4.917.218,1.857.4,2.8.564l.18.038q-.925,16.687-1.654,33.381A44.991,44.991,0,0,0,30.97,329.492L38.926,351.3,22.555,335.583A44.863,44.863,0,0,0,7.982,366.677a43.991,43.991,0,0,0,1.143,12.4,45,45,0,0,0,82.764,12.257c0,1.128-.075,2.256-.105,3.392-.3,11.686-.677,26.229,5.151,39.216,3.948,8.8,10.295,15.95,16.544,22.357,4.083,4.166,8.317,8.2,12.656,12.107a45.187,45.187,0,0,0,16.258,13.536c7.129,5.489,14.513,10.656,22.146,15.423l4.768,2.963c4.286,2.655,8.678,5.384,12.979,8.219-.752-.075-1.5-.158-2.256-.2a45.036,45.036,0,0,0-44.322,29.327l28.124,22.883-30.937-7.174a45.036,45.036,0,0,0,64.588,40.487l-2.091,2.594q-2.075,2.579-4.1,5.129c-18.3,23.184-23.394,45.187-14.333,61.964l11.024-5.948c-8.821-16.333,4.444-37.238,13.137-48.247q1.985-2.5,4.031-5.038c11.693-14.528,24.943-31,24.62-51.2C229.261,522.684,199.738,504.366,175.953,489.642Z" transform="translate(-7.95 -114.938)" fill="#f2f2f2"/><path d="M891.162,406.887l5.9-3.67c.564-.353,1.113-.752,1.677-1.083a56.146,56.146,0,0,1-5.677-109.406l-.293,23.139L905.48,290.7h.15a56.173,56.173,0,0,1,58.722,53.489c.053,1.075,0,2.128,0,3.188a66.883,66.883,0,0,0,11.1-16.386c5.384-12.032,5.49-25.568,5.061-42.111-.842-32.749-2.256-65.746-4.1-98.638A56.143,56.143,0,0,1,926.543,137.1c-.075-1.715-.053-3.406,0-5.091a11.854,11.854,0,0,1,.068-1.263c.105-1.632.263-3.249.5-4.835.038-.263.105-.519.143-.752q.346-2.03.835-4c.12-.489.241-.985.368-1.5.4-1.429.827-2.85,1.331-4.234.165-.466.361-.91.541-1.369.406-1.03.835-2.038,1.293-3.008.241-.519.474-1.045.752-1.564.06-.128.12-.271.188-.4h0A56.1,56.1,0,0,1,998.5,80.6l-.376,30.079L1010.7,85.8a55.85,55.85,0,0,1,26.778,60.52h.068c-.09.4-.218.752-.308,1.181-.18.752-.368,1.5-.572,2.2-.263.94-.564,1.857-.872,2.775-.233.692-.459,1.384-.752,2.068-.384.993-.812,1.963-1.248,2.925-.256.564-.481,1.143-.752,1.7-.714,1.451-1.5,2.873-2.324,4.249-.286.489-.617.947-.925,1.421-.6.932-1.211,1.85-1.865,2.745-.406.556-.835,1.083-1.256,1.624-.617.752-1.241,1.549-1.9,2.294q-.684.752-1.421,1.557c-.684.752-1.4,1.429-2.121,2.113-.489.466-.97.932-1.5,1.376-.835.752-1.692,1.429-2.572,2.113-.436.346-.865.714-1.316,1.045-1.331.978-2.7,1.91-4.121,2.775-.263.158-.549.293-.82.451q-1.775,1.053-3.625,1.963c-.534.263-1.083.489-1.624.752-1.015.459-2.038.895-3.083,1.293-.617.233-1.233.451-1.85.662-1.038.353-2.083.669-3.143.963-.624.173-1.248.346-1.888.5-1.151.271-2.316.5-3.5.7l-.233.045q1.173,20.822,2.068,41.652a56.113,56.113,0,0,1,77.936-24.364l-9.919,27.192,20.417-19.6a55.948,55.948,0,0,1,18.281,38.742,54.853,54.853,0,0,1-1.421,15.468,56.143,56.143,0,0,1-103.263,15.3c0,1.406.1,2.827.135,4.234.376,14.581.842,32.726-6.422,48.924-4.926,10.987-12.851,19.9-20.687,27.891q-7.648,7.806-15.792,15.107a56.354,56.354,0,0,1-20.3,16.867c-8.9,6.851-18.108,13.3-27.628,19.251l-5.948,3.692c-5.347,3.309-10.821,6.715-16.2,10.25.948-.09,1.88-.2,2.843-.241a56.188,56.188,0,0,1,55.263,36.561l-35.088,28.576,38.6-8.941A56.2,56.2,0,0,1,864.3,536.951c.872,1.083,1.737,2.166,2.609,3.241,1.722,2.143,3.444,4.279,5.121,6.4,22.83,28.914,29.185,56.4,17.875,77.3l-13.746-7.422c11-20.379-5.55-46.458-16.4-60.159-1.647-2.083-3.331-4.181-5.023-6.287-14.589-18.123-31.125-38.667-30.719-63.866C824.649,448.1,861.527,425.251,891.162,406.887Z" transform="translate(-210.351 -78.25)" fill="#f2f2f2"/><ellipse cx="386.52" cy="20.68" rx="386.52" ry="20.68" transform="translate(52.859 517.754)" fill="#3f3d56"/><ellipse cx="345.913" cy="16.544" rx="345.913" ry="16.544" transform="translate(92.714 515.498)" opacity="0.2"/><path d="M812.475,249.672V647.126a5.422,5.422,0,0,1-5.422,5.422h-646.4a5.414,5.414,0,0,1-5.414-5.422V249.672a5.414,5.414,0,0,1,5.414-5.422H807.031a5.422,5.422,0,0,1,5.444,5.422Z" transform="translate(-44.486 -119.408)" fill="#3f3d56"/><path d="M812.475,247.867v12.175H155.24V247.867a3.617,3.617,0,0,1,3.617-3.617h650a3.617,3.617,0,0,1,3.617,3.617Z" transform="translate(-44.486 -119.408)" fill="#cbceda"/><circle cx="3.76" cy="3.76" r="3.76" transform="translate(119.026 128.602)" fill="#6c63ff"/><circle cx="3.76" cy="3.76" r="3.76" transform="translate(129.554 128.602)" fill="#6c63ff"/><circle cx="3.76" cy="3.76" r="3.76" transform="translate(140.082 128.602)" fill="#6c63ff"/><rect width="200.028" height="10.528" transform="translate(339.365 180.113)" fill="#6c63ff" opacity="0.2"/><rect width="154.157" height="180.476" transform="translate(173.176 286.895)" fill="#6c63ff" opacity="0.2"/><rect width="154.157" height="180.476" transform="translate(361.925 286.895)" fill="#6c63ff" opacity="0.2"/><rect width="154.157" height="180.476" transform="translate(704.83 467.371) rotate(180)" fill="#6c63ff" opacity="0.2"/><path d="M326.984,577.329c-.459,2.715-3.143,4.422-5.677,5.482s-5.369,1.94-6.993,4.158c-2.188,3.008-1.271,7.317.752,10.438,2.294,3.579,5.768,6.219,9.167,8.776a16.544,16.544,0,0,0,4.963,2.9,14.756,14.756,0,0,0,4.226.451,77.064,77.064,0,0,0,13.664-1.226c5.783-1.053,11.964-3.158,15.04-8.182,2.5-4.113,2.339-9.249,2.1-14.062-2.722-.233-5.159-1.715-7.475-3.151-2.737-1.7-5.693-3.677-6.58-6.768-.932-3.241.556-7.242-1.662-9.776-1.5-1.715-4.053-1.918-6.324-1.978q-4.625-.12-9.242-.128c-2.121,0-6.858-.887-8.6.526C321.126,567.35,327.563,573.885,326.984,577.329Z" transform="translate(-83.625 -198.707)" fill="#a0616a"/><path d="M326.984,577.329c-.459,2.715-3.143,4.422-5.677,5.482s-5.369,1.94-6.993,4.158c-2.188,3.008-1.271,7.317.752,10.438,2.294,3.579,5.768,6.219,9.167,8.776a16.544,16.544,0,0,0,4.963,2.9,14.756,14.756,0,0,0,4.226.451,77.064,77.064,0,0,0,13.664-1.226c5.783-1.053,11.964-3.158,15.04-8.182,2.5-4.113,2.339-9.249,2.1-14.062-2.722-.233-5.159-1.715-7.475-3.151-2.737-1.7-5.693-3.677-6.58-6.768-.932-3.241.556-7.242-1.662-9.776-1.5-1.715-4.053-1.918-6.324-1.978q-4.625-.12-9.242-.128c-2.121,0-6.858-.887-8.6.526C321.126,567.35,327.563,573.885,326.984,577.329Z" transform="translate(-83.625 -198.707)" opacity="0.1"/><circle cx="22.056" cy="22.056" r="22.056" transform="translate(231.809 332.961)" fill="#a0616a"/><path d="M375.723,613.073a9.5,9.5,0,0,1-1.241,3.76,6.427,6.427,0,0,1-.677.872,19.6,19.6,0,0,1-4.61,3.211c-4.512,2.745-9.573,6.317-10.415,11.543a39.543,39.543,0,0,1-1.135,4.813c-1.053,3.579-2.429,7.1-3.234,10.678a24.274,24.274,0,0,0-.669,6.339,19.233,19.233,0,0,0,.181,1.993c.714,5.068,3.316,9.618,6.377,13.942.331.466.662.932,1,1.391l.218.293h-72c.12-.459.241-.91.353-1.369a2.154,2.154,0,0,1,.053-.211c.714-2.865,1.339-5.745,1.775-8.648a55.049,55.049,0,0,0,.669-7.791c0-2.256.5-4.753,2.384-6.016.128-.459.248-.925.368-1.384a42.976,42.976,0,0,0-.105-20.777c-.105-.421-.226-.842-.338-1.263-.053-.188-.113-.376-.165-.564a61.6,61.6,0,0,1-1.594-6.1c-.444-2.459-.541-5.076-1.85-7.2s-3.587-3.361-5.61-4.8a12.858,12.858,0,0,1-2.655-2.414h0a5.926,5.926,0,0,1-1.429-3.459,5.114,5.114,0,0,1,.083-1.128,8.656,8.656,0,0,1,2.294-4.1c4.572-5.031,11.558-7.144,18.424-7.234h0c1.06,0,2.113,0,3.158.09a8.9,8.9,0,0,1,3.542.8,5.376,5.376,0,0,1,1.767,1.459,8.753,8.753,0,0,1,1.5,2.842,15.794,15.794,0,0,1,.6,2.542c.421,2.685.511,5.542,1.925,7.858,2.564,4.2,8.407,4.963,13.235,4.053a29.854,29.854,0,0,0,20.477-15.04,27.618,27.618,0,0,1,1.5-2.73,6.818,6.818,0,0,1,1.023-1.211,41.968,41.968,0,0,1,18.326,8.272,20.017,20.017,0,0,1,4.346,4.512A17.821,17.821,0,0,1,375.723,613.073Z" transform="translate(-75.769 -204.529)" fill="#f2f2f2"/><path d="M380.536,662.09a21.175,21.175,0,0,1-2.76,5.911,14.229,14.229,0,0,1-3.188,4.076c-2.67,2.1-6.362,2.053-9.776,1.857h-.271l-1.692-.1-9.708-.579a54.725,54.725,0,0,1-7.67-.82c-.677-.135-1.346-.3-2.015-.481-3.76-1.008-7.437-2.512-11.325-2.73-1.128-.068-2.256,0-3.406,0h-.316a16.945,16.945,0,0,1-2.259-.151c-1.23-.18-2.441-.571-3.7-.631-3.219-.165-6.061,1.767-8.806,3.527l-.752.466a33.833,33.833,0,0,1-6.226,3.1H293.629a4.308,4.308,0,0,1-.609-.564,4.69,4.69,0,0,1-.587-.8c-.038-.068-.075-.135-.105-.2a6.858,6.858,0,0,1,0-5.8,11.348,11.348,0,0,1,1.9-2.857,26.317,26.317,0,0,1,2.752-2.587c5.068-4.226,10.9-7.791,17.378-9.024.451-.083.91-.158,1.361-.218a60.352,60.352,0,0,1,9.776-.323l3.061.06,12.821.263h.353c5.151.1,10.565.135,15.22-1.918a17.877,17.877,0,0,0,1.73-.887,3.256,3.256,0,0,0,1.2-1.038,3.587,3.587,0,0,0,.353-1.955l-.045-6.768-.09-13.047h0q0-4.805-.06-9.6a6.6,6.6,0,0,1,1.842-5.467c1.872-2.354,6.437-10.663,9.671-10.8a2.6,2.6,0,0,1,1.617.451h0c2.752,1.835,2.767,8.791,2.835,11.137q.113,3.888.338,7.768a263.849,263.849,0,0,0,3.76,31.583C380.656,655.938,381.258,659.082,380.536,662.09Z" transform="translate(-78.326 -208.134)" fill="#a0616a"/><path d="M380.536,662.09a21.175,21.175,0,0,1-2.76,5.911,14.229,14.229,0,0,1-3.188,4.076c-2.67,2.1-6.362,2.053-9.776,1.857h-.271l-1.692-.1-9.708-.579a54.725,54.725,0,0,1-7.67-.82c-.677-.135-1.346-.3-2.015-.481-3.76-1.008-7.437-2.512-11.325-2.73-1.128-.068-2.256,0-3.406,0h-.316a16.945,16.945,0,0,1-2.259-.151c-1.23-.18-2.441-.571-3.7-.631-3.219-.165-6.061,1.767-8.806,3.527l-.752.466a33.833,33.833,0,0,1-6.226,3.1H293.629a4.308,4.308,0,0,1-.609-.564,4.69,4.69,0,0,1-.587-.8c-.038-.068-.075-.135-.105-.2a6.858,6.858,0,0,1,0-5.8,11.348,11.348,0,0,1,1.9-2.857,26.317,26.317,0,0,1,2.752-2.587c5.068-4.226,10.9-7.791,17.378-9.024.451-.083.91-.158,1.361-.218a60.352,60.352,0,0,1,9.776-.323l3.061.06,12.821.263h.353c5.151.1,10.565.135,15.22-1.918a17.877,17.877,0,0,0,1.73-.887,3.256,3.256,0,0,0,1.2-1.038,3.587,3.587,0,0,0,.353-1.955l-.045-6.768-.09-13.047h0q0-4.805-.06-9.6a6.6,6.6,0,0,1,1.842-5.467c1.872-2.354,6.437-10.663,9.671-10.8a2.6,2.6,0,0,1,1.617.451h0c2.752,1.835,2.767,8.791,2.835,11.137q.113,3.888.338,7.768a263.849,263.849,0,0,0,3.76,31.583C380.656,655.938,381.258,659.082,380.536,662.09Z" transform="translate(-78.326 -208.134)" opacity="0.1"/><path d="M320.031,503.405c-1.91.286-4.023.8-5.061,2.421-.812,1.263-.752,2.865-1.03,4.339a9.625,9.625,0,0,1-3.7,5.918c-1.579,1.166-3.489,1.82-5.121,2.91s-3.076,2.873-2.858,4.828c.188,1.707,1.549,3.008,2.188,4.617,1.181,2.933-.211,6.2-1.5,9.092s-2.512,6.287-1.03,9.076c1.572,2.94,5.625,4.053,6.768,7.174,1.421,3.76-2.256,7.768-1.782,11.776.406,3.294,3.655,5.647,6.941,6.129a5.622,5.622,0,0,0,4.512-.978,5.912,5.912,0,0,0,1.624-4.339c.2-6.121-3.279-11.738-4.294-17.784a9.543,9.543,0,0,1,.549-5.926c.587-1.135,1.5-2.068,2.015-3.249,1.015-2.459-.135-5.429.955-7.858a20.572,20.572,0,0,1,2.128-3.008,3.551,3.551,0,0,0,.617-3.467,12.145,12.145,0,0,1,4.474,5.083c1.421-.286,1.384-3.339,2.775-2.9.391.128.617.541.872.865a3.918,3.918,0,0,0,4.166,1.1,8.188,8.188,0,0,0,3.67-2.639l2.376,2.948a2.715,2.715,0,0,1,2.609-1.654,6.272,6.272,0,0,1,3.083,1.06c4.512,2.7,7.9,8.227,6.166,13.19-.752,2.121-2.256,3.858-3.264,5.873s-1.263,4.722.346,6.287a12.51,12.51,0,0,1,1.038.948c1.181,1.391.436,3.512.79,5.264.624,3.226,4.429,4.512,7.633,5.264,2.256.511,4.941.895,6.52-.752,1.73-1.8.955-4.76-.09-7.031s-2.256-4.9-1.135-7.121,4.407-3.008,5.587-5.332c1.5-2.955-1.151-6.2-2.211-9.34-1.451-4.3.165-9.129-1.023-13.536a18.888,18.888,0,0,0-3.324-6.106c-3.512-4.723-7.723-9.061-12.942-11.8-4.933-2.587-9.9-3.008-15.341-2.354C329.845,503.007,324.927,502.676,320.031,503.405Z" transform="translate(-80.695 -183.363)" fill="#3c354c"/><path d="M381.269,627.794a1.82,1.82,0,0,1-.865-1.2q-2.5-7.039-4.692-14.175a5.513,5.513,0,0,1-.353-2.64,5.128,5.128,0,0,1,2.015-2.745,30.078,30.078,0,0,1,8.234-4.828c2.166-.85,5.362-2.361,7.52-.985,2.677,1.707-.18,6.016-1.158,8.272a85.776,85.776,0,0,1-4.512,9.024C386.947,619.425,381.954,628.065,381.269,627.794Z" transform="translate(-99.07 -207.806)" fill="#f2f2f2"/><path d="M359.717,673.915a4.512,4.512,0,0,1-.707,1.008,2.315,2.315,0,0,1-.271.271,3.157,3.157,0,0,1-.338.293H345.324a33.844,33.844,0,0,1-6.226-3.1l-.752-.466c-2.745-1.76-5.587-3.692-8.806-3.527-1.256.06-2.467.451-3.7.632a16.943,16.943,0,0,1-2.256.15h-.316c-1.135,0-2.256-.053-3.406,0-3.888.218-7.557,1.722-11.325,2.73-.669.18-1.339.346-2.015.481a54.708,54.708,0,0,1-7.67.82l-11.4.677h-.271c-3.406.2-7.1.241-9.776-1.857a14.229,14.229,0,0,1-3.188-4.076,21.175,21.175,0,0,1-2.76-5.911c-.752-3.008-.12-6.151.429-9.2a264.893,264.893,0,0,0,4.083-39.359c.068-2.354.083-9.332,2.85-11.144a2.4,2.4,0,0,1,1.045-.406h0a2.675,2.675,0,0,1,.556,0c3.234.135,7.8,8.445,9.671,10.8a6.6,6.6,0,0,1,1.842,5.467q0,4.632-.06,9.28v.421q-.053,9.881-.128,19.755a3.587,3.587,0,0,0,.353,1.955,2.152,2.152,0,0,0,.391.474,4.994,4.994,0,0,0,.8.564c5,2.948,11.144,2.918,16.95,2.8h.353l12.821-.263,3.061-.06a60.337,60.337,0,0,1,9.776.323c.451.06.91.135,1.361.218a35.4,35.4,0,0,1,13.761,6.211q1.88,1.331,3.655,2.812a15.658,15.658,0,0,1,4.655,5.444A6.858,6.858,0,0,1,359.717,673.915Z" transform="translate(-73.224 -208.116)" fill="#a0616a"/><path d="M295,627.794a1.842,1.842,0,0,0,.865-1.2q2.5-7.039,4.692-14.175a5.6,5.6,0,0,0,.346-2.64,5.128,5.128,0,0,0-2.015-2.745,29.885,29.885,0,0,0-8.227-4.828c-2.166-.85-5.354-2.361-7.52-.985-2.677,1.707.173,6.016,1.158,8.272a84.291,84.291,0,0,0,4.512,9.024C289.323,619.425,294.316,628.065,295,627.794Z" transform="translate(-75.93 -207.806)" fill="#f2f2f2"/><path d="M834.285,515.921c4.474-1.09,7.948,6.317,12.453,5.437,2.474-.481,4.384-3.414,6.888-3.2,2.85.248,4.068,4.143,5.527,6.993,2.534,4.933,7.655,7.918,12.588,7.324,1.549-2.045,1.256-5.189.466-7.745s-1.993-5.038-2.023-7.76c-.038-3.6,1.94-7.588.15-10.528-1.376-2.256-4.188-2.436-6.256-3.828-1.617-1.083-2.752-2.9-4.106-4.377a13.574,13.574,0,0,0-8.37-4.4,24.76,24.76,0,0,0-7.971.842l-12.3,2.662a3.422,3.422,0,0,0-1.917.88,6.626,6.626,0,0,0-.993,2.519c-1.166,3.82-4.82,5.61-7.806,7.73s-5.82,6.317-4.174,9.889c.932,2.023,3.128,3.271,3.361,5.542.2,2.03-1.263,3.692-2.459,5.2-5.076,6.362,6.3,9.67,9.024,5.354C829.4,529.7,827.885,517.485,834.285,515.921Z" transform="translate(-208.353 -181.29)" fill="#3c354c"/><path d="M830.27,571.45c-1.068,1.391-2.459,2.549-3.316,4.083a9.392,9.392,0,0,0-.5,7.046,26.624,26.624,0,0,0,3.211,6.467,37.6,37.6,0,0,0,5.64,7.52,13.723,13.723,0,0,0,8.272,4.106c3.346.248,6.58-1.135,9.61-2.587a10.528,10.528,0,0,0,3.467-2.256,10.744,10.744,0,0,0,1.684-3.061l2.609-6.249a17.212,17.212,0,0,0,1.5-4.8c.271-2.594-.632-5.159-1.5-7.618l-4.775-13.137a4.436,4.436,0,0,0-1.143-1.993,4.31,4.31,0,0,0-1.76-.752,51.075,51.075,0,0,0-9.227-1.5c-2.316-.158-7.573-.978-9.6.331-1.857,1.211-1.083,4.294-1.3,6.287a15.92,15.92,0,0,1-2.88,8.114Z" transform="translate(-210.843 -196.806)" fill="#a0616a"/><path d="M830.27,571.45c-1.068,1.391-2.459,2.549-3.316,4.083a9.392,9.392,0,0,0-.5,7.046,26.624,26.624,0,0,0,3.211,6.467,37.6,37.6,0,0,0,5.64,7.52,13.723,13.723,0,0,0,8.272,4.106c3.346.248,6.58-1.135,9.61-2.587a10.528,10.528,0,0,0,3.467-2.256,10.744,10.744,0,0,0,1.684-3.061l2.609-6.249a17.212,17.212,0,0,0,1.5-4.8c.271-2.594-.632-5.159-1.5-7.618l-4.775-13.137a4.436,4.436,0,0,0-1.143-1.993,4.31,4.31,0,0,0-1.76-.752,51.075,51.075,0,0,0-9.227-1.5c-2.316-.158-7.573-.978-9.6.331-1.857,1.211-1.083,4.294-1.3,6.287a15.92,15.92,0,0,1-2.88,8.114Z" transform="translate(-210.843 -196.806)" opacity="0.1"/><circle cx="20.83" cy="20.83" r="20.83" transform="translate(614.223 329.893)" fill="#a0616a"/><path d="M878.895,605.45c.045,5.745-2.158,11.28-4.437,16.544s-5.174,10.46-7.4,15.867c-.18.436-.353.88-.526,1.323q-5.745,14.844-10.167,30.147l-.218.752h-64.6c2.948-11.28,5.474-22.56-1.594-30.343-.218-.241-.436-.489-.647-.752-4.625-5.572-6.7-13.175-12.2-17.912-1.263-1.09-2.73-2.053-3.512-3.534a6.422,6.422,0,0,1-.662-2.933,19.907,19.907,0,0,1,.165-2.677c.541-4.888,1.241-10.016,4.189-13.957a20.615,20.615,0,0,1,4.775-4.437,38.1,38.1,0,0,1,13.318-5.948c5.384-1.233,11.325-1.414,15.716-4.775a18.574,18.574,0,0,1,3.008-2.256l.3-.128a3.128,3.128,0,0,1,3.241.346,4.459,4.459,0,0,1,1.083,2.256q1.2,4.376,2.4,8.753a8.942,8.942,0,0,0,1.812,3.94c2.128,2.211,6.2,1.948,7.851,4.512.993,1.557,3.6-.256,4.737-1.7a63.771,63.771,0,0,0,7.106-11.235,18.052,18.052,0,0,1,2.632-4.384,5.956,5.956,0,0,1,2.9-1.76,3.91,3.91,0,0,1,1.669-.045c1.624.331,2.812,1.669,3.918,2.9A87.98,87.98,0,0,0,876.879,602.4a3.827,3.827,0,0,1,1.692,1.4,2.894,2.894,0,0,1,.286,1.211A2.274,2.274,0,0,1,878.895,605.45Z" transform="translate(-197.684 -202.711)" fill="#3c354c"/><path d="M838.62,516.917c3.482-.752,6.181,4.249,9.686,3.655,1.925-.316,3.414-2.256,5.354-2.143,2.218.165,3.166,2.782,4.3,4.692a10.4,10.4,0,0,0,9.776,4.926c1.2-1.376.978-3.482.361-5.2s-1.557-3.391-1.579-5.211c0-2.429,1.5-5.106.12-7.084-1.068-1.5-3.256-1.639-4.865-2.572a20.375,20.375,0,0,1-3.2-2.94,11.122,11.122,0,0,0-6.5-2.955,22.126,22.126,0,0,0-6.2.564l-9.565,1.79a2.828,2.828,0,0,0-1.5.587,4.145,4.145,0,0,0-.752,1.692c-.91,2.572-3.76,3.76-6.068,5.2s-4.512,4.249-3.249,6.648c.752,1.361,2.429,2.2,2.609,3.76.165,1.361-.978,2.482-1.91,3.489-3.94,4.271,4.9,6.5,7.031,3.594C834.823,526.182,833.642,517.97,838.62,516.917Z" transform="translate(-210.44 -183.347)" fill="#3c354c"/><path d="M918.815,676.2H901.226c.286-7.2-2.647-14.521-3.008-21.868-.135-2.76.1-5.565-.459-8.272a18.134,18.134,0,0,0-.564-2.083c-.444-1.391-.985-2.76-1.406-4.158-1.4-4.67-1.346-9.633-1.278-14.506q.12-8.069.256-16.123c0-1.4-.414-3.459.857-4.046,2.865-1.324,5.843,1.3,8.475,3.008,1.579,1.053,3.384,1.88,4.918,3.008a9.19,9.19,0,0,1,2.339,2.331,13.068,13.068,0,0,1,1.557,4.053q3.2,12.2,5.565,24.612a79.883,79.883,0,0,1,1.5,10.9C920.439,660.758,918.838,668.526,918.815,676.2Z" transform="translate(-227.829 -208.825)" fill="#3c354c"/><path d="M775.3,672a13.545,13.545,0,0,0-1.451,5.76,8.957,8.957,0,0,0,.6,2.617H758.513a58.792,58.792,0,0,1-1.8-8.272,62.133,62.133,0,0,1,.368-16.446,60.027,60.027,0,0,1,2.76-12.46c1.85-5.181,4.775-9.874,7.264-14.746.587-1.136,1.12-2.414,1.745-3.542,1.339-2.474,3.068-4.294,6.512-2.632,8.565,4.128,12.242,18.589,9.859,27.011a.216.216,0,0,1,0,.068,41.675,41.675,0,0,1-2.542,6.219Q778.794,663.713,775.3,672Z" transform="translate(-193.559 -213.006)" fill="#3c354c"/><path d="M592.366,508.756a7.61,7.61,0,0,1,4.023,3.414c.684,1.421.662,3.083,1.128,4.595.985,3.181,3.948,5.264,5.79,8.046,2.5,3.76,2.79,8.55,2.617,13.062s-.752,9.114.376,13.5c.534,2.136,1.444,4.166,1.812,6.339.444,2.632.075,5.384.752,7.971a20.7,20.7,0,0,0,3.354,6.414l5.85,8.55a67.565,67.565,0,0,1-7.723-2.324,13.852,13.852,0,0,0,4.174,6.309l-4.226-5.113a12.122,12.122,0,0,0-3.151-3.008c-1.549-.88-3.384-1.015-5.129-1.376-3.346-.677-6.7-2.391-8.34-5.407-2.188-4.016-.752-9.061-2.008-13.468-.895-3.219-3.106-5.873-4.625-8.836-3.452-6.715-3.241-14.634-4.324-22.108a68.12,68.12,0,0,1-1.188-9.535c0-2.369.233-6.866,2.715-8.076C586.4,506.688,590.366,507.906,592.366,508.756Z" transform="translate(-150.212 -184.653)" fill="#3f3d56"/><path d="M587.718,576.19c.353,3.925,1.173,8.558,4.753,10.2,2.023.932,4.377.587,6.572.948,4.143.669,7.52,3.858,9.475,7.6s2.579,7.979,3.008,12.16c.564,5.226.752,10.9-2.128,15.31-2.324,3.572-6.339,5.745-10.453,6.851a29.17,29.17,0,0,1-24.342-4.512,54.193,54.193,0,0,1-8.956-8.851c-5.963-6.941-11.964-14.551-13.19-23.62-.143-1.03-.128-2.256.752-2.888a3.151,3.151,0,0,1,1.918-.384l5.715.105c1.451,0,3.091,0,4.076-1.09s.925-2.459.887-3.76q-.218-8.272-.436-16.581a2.383,2.383,0,0,1,.376-1.677,2.211,2.211,0,0,1,1.316-.564c3.151-.534,6.445,0,9.528-.857,2.933-.8,7.52-4.174,9.693-.714C588.1,566.76,587.44,572.851,587.718,576.19Z" transform="translate(-142.985 -198.297)" fill="#ffc1c7"/><path d="M587.718,576.19c.353,3.925,1.173,8.558,4.753,10.2,2.023.932,4.377.587,6.572.948,4.143.669,7.52,3.858,9.475,7.6s2.579,7.979,3.008,12.16c.564,5.226.752,10.9-2.128,15.31-2.324,3.572-6.339,5.745-10.453,6.851a29.17,29.17,0,0,1-24.342-4.512,54.193,54.193,0,0,1-8.956-8.851c-5.963-6.941-11.964-14.551-13.19-23.62-.143-1.03-.128-2.256.752-2.888a3.151,3.151,0,0,1,1.918-.384l5.715.105c1.451,0,3.091,0,4.076-1.09s.925-2.459.887-3.76q-.218-8.272-.436-16.581a2.383,2.383,0,0,1,.376-1.677,2.211,2.211,0,0,1,1.316-.564c3.151-.534,6.445,0,9.528-.857,2.933-.8,7.52-4.174,9.693-.714C588.1,566.76,587.44,572.851,587.718,576.19Z" transform="translate(-142.985 -198.297)" opacity="0.1"/><circle cx="21.845" cy="21.845" r="21.845" transform="translate(408.495 333.127)" fill="#ffc1c7"/><path d="M619.177,653.693a20.366,20.366,0,0,1-.624,2.639,62.006,62.006,0,0,1-2.406,5.933c-.346.8-.669,1.609-.948,2.436-.218.647-.406,1.308-.572,1.97s-.361,1.557-.5,2.346c-.2,1.166-.353,2.346-.474,3.527H556.65a35.537,35.537,0,0,0-.323-8.648,56.892,56.892,0,0,0-3.519-11.468c-3.632-9.31-7.693-18.8-9.926-28.508v-.038A56.655,56.655,0,0,1,541.5,604.6c.045-.376.1-.752.15-1.143a29.445,29.445,0,0,1,.549-2.9,15.994,15.994,0,0,1,3.632-7.354c2.557-2.752,6.881-4.113,10.2-2.354a10.329,10.329,0,0,1,4.234,5.023c.632,1.323,1.166,2.722,1.722,4.053a41.358,41.358,0,0,0,8.633,12.9,28.591,28.591,0,0,0,2.2,2.083c.76.662,1.421,1.218,2.166,1.79,2.414,1.857,5.324,4.211,8.475,4.294,1.827.053,3.692,0,5.58,0,1.654,0,3.324-.068,4.971,0,3.527.068,7.52-.932,9.227-4.023,1.166-2.113.97-4.692.752-7.1q-.259-2.82-.526-5.647v-.293c-.12-1.361-.248-2.707-.376-4.068h0c-.06-.654-.12-1.316-.188-1.97h0l-.135-1.459q.94-.105,1.895-.18c2.85-.226,5.76-.173,8.212,1.218a10.916,10.916,0,0,1,4.677,6.144,24.679,24.679,0,0,1,1.173,5.64c.842,8.535-.519,17.145-.053,25.7C618.959,641.15,620.268,647.58,619.177,653.693Z" transform="translate(-140.213 -205.174)" fill="#6c63ff"/><path d="M656.351,692.87H639.108c-.143-1.955-.256-3.91-.323-5.873-.06-1.354-.105-2.715-.128-4.068q-.113-5.474.09-10.919a24.628,24.628,0,0,0,11.092,3.166,21.242,21.242,0,0,1,3.76,5.963,28.927,28.927,0,0,1,1.286,3.692.1.1,0,0,1,0,.052,49.359,49.359,0,0,1,1.466,7.986Z" transform="translate(-164.37 -225.499)" fill="#ffc1c7"/><path d="M653.656,665.2a80.236,80.236,0,0,0-19.326,2.557c-.835-4.121-.429-8.377,0-12.558l2.79-28.733c.2-2.128-.188-21.665,3.933-18.213,1.5,1.271,3.429,12.693,3.9,14.528.714,2.775,1.278,5.58,1.782,8.392,1.03,5.775,1.729,11.6,2.73,17.378C649.753,650.224,652.167,665.218,653.656,665.2Z" transform="translate(-163.187 -209.586)" fill="#6c63ff"/><path d="M573.929,510.779a3.759,3.759,0,0,0-.451-1.963,3.264,3.264,0,0,0-2.339-1.233c-3.151-.489-6.61.752-9.46-.662-1.5-.752-2.639-2.256-4.143-3.091-3.549-2.008-8.031,0-11.174,2.6a32.621,32.621,0,0,0-10.475,15.957c-1.4,4.828-1.963,10.475-5.963,13.536-1.654,1.263-3.76,1.963-5,3.647a9.329,9.329,0,0,0-1.323,4.512c-.414,3.67-.752,7.43.2,10.994.752,2.654,2.143,5.061,3.008,7.67a20.364,20.364,0,0,1-5.55,21.191,6.6,6.6,0,0,0,4.888.85,4.188,4.188,0,0,1-.707,2.158c5.114-.165,9.558-5.144,14.558-4.053,3.82.827,5.948,4.768,8.8,7.445,3.67,3.452,9.37,4.9,13.979,2.85s7.407-7.866,5.452-12.513c-2.256-5.264-9.091-7.377-11.475-12.6-1.842-4.053-.474-8.776-.872-13.2-.338-3.8-1.978-7.347-3.008-11.024s-1.354-7.881.752-11.084c2.211-3.4,6.445-4.722,10.295-6.016C572.591,523.946,574.26,519.547,573.929,510.779Z" transform="translate(-135.264 -183.585)" fill="#3f3d56"/><path d="M577.656,606.372c.624-3.008,1.241-6.294.143-9.2-2.045-5.429-8.731-7.121-13.355-10.618a18.048,18.048,0,0,1-5.941-7.918c-.842-2.2-.955-5.264,1.113-6.377a5.016,5.016,0,0,1,2.579-.451c7.2.165,13.806,4.083,19.334,8.716,3.211,2.7,6.264,5.79,7.866,9.663a31.544,31.544,0,0,1,1.827,8.685l1.128,9.776a153.261,153.261,0,0,1,1.3,16.9,74.57,74.57,0,0,1-.609,9.693,14.516,14.516,0,0,1-2.053,6.5c-2.5,3.482-7.294,4.264-11.581,4.384a20.006,20.006,0,0,1-4.835-.308c-7.121-1.549-12.521-11.52-7.136-17.679,2.256-2.617,5.73-2.685,7.031-6.272C576.212,617.11,576.633,611.358,577.656,606.372Z" transform="translate(-144.36 -200.641)" fill="#ffc1c7"/><path d="M567.349,615.009l5.617,9.182a4.2,4.2,0,0,1,.684,1.587c.158,1.2-.752,2.256-1.444,3.226-4.843,6.617-3.609,15.716-2.151,23.785a43.171,43.171,0,0,1-29.673-34.945c-.707-4.805-1.85-12.716,2.414-15.844C553.069,594.465,562.529,607.143,567.349,615.009Z" transform="translate(-139.836 -207.563)" fill="#6c63ff"/><path d="M610.673,589.251c-2.2-.361-4.512,0-6.572-.948-3.579-1.647-4.4-6.279-4.753-10.2,0-.361-.053-.752-.068-1.181a32.654,32.654,0,0,1,4.158-3.617,20.439,20.439,0,0,1,4.249-1.872l3.971-1.4a22.75,22.75,0,0,1,.857,3.234c.444,2.632.075,5.384.752,7.971a20.7,20.7,0,0,0,3.354,6.414l5.85,8.55c-1.06-.248-2.113-.534-3.158-.835A13.271,13.271,0,0,0,610.673,589.251Z" transform="translate(-154.614 -200.206)" fill="#3f3d56"/><path d="M111.665,764.828c2.256-4.143-.3-9.227-3.226-12.919s-6.475-7.52-6.4-12.25c.113-6.768,7.294-10.761,13.032-14.355a63.168,63.168,0,0,0,11.7-9.407,17.145,17.145,0,0,0,3.594-4.813c1.188-2.647,1.158-5.655,1.083-8.55q-.383-14.483-1.436-28.944" transform="translate(-31.291 -225.891)" fill="none" stroke="#3f3d56" stroke-miterlimit="10" stroke-width="4"/><path d="M146.811,669.571a10.528,10.528,0,0,0-5.264-8.648l-2.361,4.677.075-5.662a10.693,10.693,0,0,0-3.482-.421,10.528,10.528,0,1,0,11.039,10.054Z" transform="translate(-37.178 -222.398)" fill="#6c63ff"/><path d="M122.162,762.815a10.528,10.528,0,1,1,.511-8.5l-6.595,5.362L123.335,758a10.528,10.528,0,0,1-1.173,4.813Z" transform="translate(-31.351 -244.212)" fill="#6c63ff"/><path d="M118.073,733.671a10.528,10.528,0,0,1-3.346-20.7l-.06,4.346,2.391-4.73h0a10.528,10.528,0,0,1,11.062,10.084,10.407,10.407,0,0,1-.451,3.6,10.528,10.528,0,0,1-9.6,7.4Z" transform="translate(-32.473 -235.559)" fill="#6c63ff"/><path d="M152.26,711.058a10.528,10.528,0,1,1,4.67-19.755l-1.865,5.113,3.835-3.685a10.528,10.528,0,0,1,3.407,7.287,10.37,10.37,0,0,1-.263,2.91A10.528,10.528,0,0,1,152.26,711.058Z" transform="translate(-41.04 -229.963)" fill="#6c63ff"/><path d="M145.406,674.289c-2.436.263-4.805,1.023-7.249,1.173s-5.129-.429-6.678-2.331a32.656,32.656,0,0,1-1.948-3.437,7.52,7.52,0,0,0-2.662-2.5A10.528,10.528,0,1,0,146.6,674.2Q146,674.221,145.406,674.289Z" transform="translate(-37.194 -224.303)" opacity="0.1"/><path d="M152.212,713.04A10.528,10.528,0,0,1,142.173,698a7.8,7.8,0,0,1,2.121,2.12,34.514,34.514,0,0,0,2.09,3.489c1.647,1.933,4.452,2.564,7,2.451s5.008-.842,7.52-1.075c.353,0,.707-.053,1.068-.06A10.528,10.528,0,0,1,152.212,713.04Z" transform="translate(-40.991 -231.945)" opacity="0.1"/><path d="M118.142,735.729A10.528,10.528,0,0,1,108.02,720.87a8.633,8.633,0,0,1,2.256,2.143c.82,1.158,1.331,2.5,2.256,3.564,1.782,1.978,4.775,2.677,7.467,2.617s5.136-.7,7.73-.9A10.528,10.528,0,0,1,118.142,735.729Z" transform="translate(-32.542 -237.617)" opacity="0.1"/><path d="M122.069,765.04a10.541,10.541,0,1,1-19.243-8.61,10.411,10.411,0,0,1,2.316,2.068,45.894,45.894,0,0,0,2.827,3.76c2.158,2.121,5.64,3.008,8.746,3.076a45.108,45.108,0,0,0,5.354-.293Z" transform="translate(-31.258 -246.436)" opacity="0.1"/><path d="M93.67,787.086s8.332-.256,10.844-2.045,12.784-3.918,13.43-1.053,12.521,14.288,3.121,14.333-21.853-1.459-24.364-3.008S93.67,787.086,93.67,787.086Z" transform="translate(-29.216 -252.923)" fill="#656380"/><path d="M121.23,798.8c-9.407.075-21.853-1.5-24.357-3.008-1.91-1.166-2.67-5.332-2.925-7.257H93.67s.526,6.723,3.008,8.272,14.957,3.061,24.364,3.008c2.715,0,3.647-.985,3.594-2.414C124.283,798.248,123.246,798.782,121.23,798.8Z" transform="translate(-29.216 -254.4)" opacity="0.2"/><path d="M1034.944,727.766c3.978-7.369-.534-16.4-5.73-22.981s-11.52-13.415-11.385-21.808c.2-12.032,12.972-19.153,23.176-25.53a112.709,112.709,0,0,0,20.815-16.739,30.014,30.014,0,0,0,6.4-8.558c2.113-4.707,2.053-10.062,1.918-15.22q-.669-25.763-2.549-51.481" transform="translate(-258.42 -199.07)" fill="none" stroke="#3f3d56" stroke-miterlimit="10" stroke-width="4"/><path d="M1097.416,558.323a18.747,18.747,0,0,0-9.37-15.386l-4.2,8.317.128-10.069a18.8,18.8,0,1,0,13.445,17.138Z" transform="translate(-268.839 -192.86)" fill="#6c63ff"/><path d="M1053.573,724.178a18.8,18.8,0,1,1,.9-15.115l-11.723,9.543,12.9-3.008a18.619,18.619,0,0,1-2.075,8.58Z" transform="translate(-258.475 -231.646)" fill="#6c63ff"/><path d="M1046.554,672.324a18.8,18.8,0,0,1-5.956-36.847l-.1,7.738,4.249-8.415h.053a18.8,18.8,0,1,1,1.752,37.509Z" transform="translate(-260.698 -216.248)" fill="#6c63ff"/><path d="M1107.042,632.008a18.8,18.8,0,1,1,8.272-35.133L1112,605.967l6.828-6.55a18.679,18.679,0,0,1,6.068,12.957,18.416,18.416,0,0,1-.481,5.174A18.8,18.8,0,0,1,1107.042,632.008Z" transform="translate(-275.638 -206.259)" fill="#6c63ff"/><path d="M1094.879,566.718c-4.331.474-8.543,1.82-12.9,2.091s-9.122-.752-11.874-4.151c-1.5-1.82-2.256-4.121-3.474-6.114a13.309,13.309,0,0,0-4.723-4.444,18.8,18.8,0,1,0,35.1,12.46C1096.292,566.591,1095.585,566.643,1094.879,566.718Z" transform="translate(-268.828 -196.255)" opacity="0.1"/><path d="M1107.09,635.568a18.8,18.8,0,0,1-17.86-26.778,13.873,13.873,0,0,1,3.76,3.76c1.339,2.023,2.143,4.354,3.76,6.2,2.918,3.444,7.918,4.565,12.445,4.362s8.9-1.5,13.423-1.91c.624-.053,1.256-.1,1.887-.113A18.8,18.8,0,0,1,1107.09,635.568Z" transform="translate(-275.686 -209.819)" opacity="0.1"/><path d="M1046.511,676.012a18.8,18.8,0,0,1-18.048-26.432,15.223,15.223,0,0,1,3.963,3.82c1.459,2.06,2.369,4.429,4.076,6.324,3.173,3.527,8.5,4.775,13.3,4.662,4.647-.105,9.122-1.248,13.746-1.6A18.8,18.8,0,0,1,1046.511,676.012Z" transform="translate(-260.654 -219.936)" opacity="0.1"/><path d="M1053.626,728.158a18.8,18.8,0,0,1-34.23-15.318,18.8,18.8,0,0,1,4.121,3.67c1.782,2.181,2.963,4.647,5.023,6.678,3.843,3.76,10.039,5.317,15.551,5.459a81.7,81.7,0,0,0,9.535-.489Z" transform="translate(-258.528 -235.625)" opacity="0.1"/><path d="M1002.94,767.358s14.814-.459,19.281-3.64,22.793-6.979,23.906-1.88,22.266,25.372,5.535,25.5-38.87-2.6-43.329-5.317S1002.94,767.358,1002.94,767.358Z" transform="translate(-254.728 -247.159)" fill="#656380"/><path d="M1051.962,788.218c-16.732.135-38.87-2.6-43.329-5.317-3.391-2.068-4.745-9.49-5.2-12.912h-.489s.932,11.949,5.392,14.664,26.605,5.452,43.329,5.317c4.835-.038,6.5-1.752,6.407-4.3C1057.4,787.233,1055.556,788.2,1051.962,788.218Z" transform="translate(-254.728 -249.799)" opacity="0.2"/></g></g></svg>